G04 #@! TF.GenerationSoftware,KiCad,Pcbnew,(5.1.4)-1*
G04 #@! TF.CreationDate,2020-12-02T10:45:32+01:00*
G04 #@! TF.ProjectId,ESP32 - LP IoT,45535033-3220-42d2-904c-5020496f542e,rev?*
G04 #@! TF.SameCoordinates,Original*
G04 #@! TF.FileFunction,Legend,Bot*
G04 #@! TF.FilePolarity,Positive*
%FSLAX46Y46*%
G04 Gerber Fmt 4.6, Leading zero omitted, Abs format (unit mm)*
G04 Created by KiCad (PCBNEW (5.1.4)-1) date 2020-12-02 10:45:32*
%MOMM*%
%LPD*%
G04 APERTURE LIST*
%ADD10C,0.127000*%
%ADD11C,0.120000*%
%ADD12C,0.150000*%
G04 APERTURE END LIST*
D10*
X53920571Y-46769261D02*
X54283428Y-46769261D01*
X54102000Y-46769261D02*
X54102000Y-46134261D01*
X54162476Y-46224976D01*
X54222952Y-46285452D01*
X54283428Y-46315690D01*
X71954571Y-78773261D02*
X72317428Y-78773261D01*
X72136000Y-78773261D02*
X72136000Y-78138261D01*
X72196476Y-78228976D01*
X72256952Y-78289452D01*
X72317428Y-78319690D01*
X53476071Y-92171761D02*
X53838928Y-92171761D01*
X53657500Y-92171761D02*
X53657500Y-91536761D01*
X53717976Y-91627476D01*
X53778452Y-91687952D01*
X53838928Y-91718190D01*
D11*
X61099700Y-46672500D02*
X63131700Y-46672500D01*
X63131700Y-50736500D02*
X61099700Y-50736500D01*
X63131700Y-50736500D02*
X63131700Y-50101500D01*
X61099700Y-50736500D02*
X61099700Y-50101500D01*
X63131700Y-47307500D02*
X63131700Y-46672500D01*
X61099700Y-47307500D02*
X61099700Y-46672500D01*
D12*
X72631800Y-79306600D02*
X72631800Y-78181600D01*
X80471800Y-79306600D02*
X80471800Y-83456600D01*
X71521800Y-79306600D02*
X71521800Y-83456600D01*
X80471800Y-79306600D02*
X79361800Y-79306600D01*
X80471800Y-83456600D02*
X79361800Y-83456600D01*
X71521800Y-83456600D02*
X72631800Y-83456600D01*
X72631800Y-79306600D02*
X71521800Y-79306600D01*
D11*
X50241200Y-65430400D02*
X50241200Y-63398400D01*
X54305200Y-63398400D02*
X54305200Y-65430400D01*
X54305200Y-63398400D02*
X53670200Y-63398400D01*
X54305200Y-65430400D02*
X53670200Y-65430400D01*
X50876200Y-63398400D02*
X50241200Y-63398400D01*
X50876200Y-65430400D02*
X50241200Y-65430400D01*
X58674000Y-105537000D02*
X58674000Y-106172000D01*
X56642000Y-105537000D02*
X56642000Y-106172000D01*
X58674000Y-102108000D02*
X58674000Y-102743000D01*
X56642000Y-102108000D02*
X56642000Y-102743000D01*
X56642000Y-102108000D02*
X58674000Y-102108000D01*
X58674000Y-106172000D02*
X56642000Y-106172000D01*
X52578000Y-105537000D02*
X52578000Y-106172000D01*
X50546000Y-105537000D02*
X50546000Y-106172000D01*
X52578000Y-102108000D02*
X52578000Y-102743000D01*
X50546000Y-102108000D02*
X50546000Y-102743000D01*
X50546000Y-102108000D02*
X52578000Y-102108000D01*
X52578000Y-106172000D02*
X50546000Y-106172000D01*
X54940200Y-47320200D02*
X54940200Y-46685200D01*
X56972200Y-47320200D02*
X56972200Y-46685200D01*
X54940200Y-50749200D02*
X54940200Y-50114200D01*
X56972200Y-50749200D02*
X56972200Y-50114200D01*
X56972200Y-50749200D02*
X54940200Y-50749200D01*
X54940200Y-46685200D02*
X56972200Y-46685200D01*
X78257400Y-86207600D02*
X78257400Y-88239600D01*
X74193400Y-88239600D02*
X74193400Y-86207600D01*
X74193400Y-88239600D02*
X74828400Y-88239600D01*
X74193400Y-86207600D02*
X74828400Y-86207600D01*
X77622400Y-88239600D02*
X78257400Y-88239600D01*
X77622400Y-86207600D02*
X78257400Y-86207600D01*
X60744100Y-76009500D02*
X60744100Y-78041500D01*
X56680100Y-78041500D02*
X56680100Y-76009500D01*
X56680100Y-78041500D02*
X57315100Y-78041500D01*
X56680100Y-76009500D02*
X57315100Y-76009500D01*
X60109100Y-78041500D02*
X60744100Y-78041500D01*
X60109100Y-76009500D02*
X60744100Y-76009500D01*
X70764400Y-88239600D02*
X70129400Y-88239600D01*
X70764400Y-86207600D02*
X70129400Y-86207600D01*
X74193400Y-88239600D02*
X73558400Y-88239600D01*
X74193400Y-86207600D02*
X73558400Y-86207600D01*
X74193400Y-86207600D02*
X74193400Y-88239600D01*
X70129400Y-88239600D02*
X70129400Y-86207600D01*
X60109100Y-82105500D02*
X60744100Y-82105500D01*
X60109100Y-84137500D02*
X60744100Y-84137500D01*
X56680100Y-82105500D02*
X57315100Y-82105500D01*
X56680100Y-84137500D02*
X57315100Y-84137500D01*
X56680100Y-84137500D02*
X56680100Y-82105500D01*
X60744100Y-82105500D02*
X60744100Y-84137500D01*
X69674200Y-55301000D02*
X71134200Y-55301000D01*
X69674200Y-52141000D02*
X71834200Y-52141000D01*
X69674200Y-52141000D02*
X69674200Y-53071000D01*
X69674200Y-55301000D02*
X69674200Y-54371000D01*
X62816200Y-55301000D02*
X62816200Y-54371000D01*
X62816200Y-52141000D02*
X62816200Y-53071000D01*
X62816200Y-52141000D02*
X64976200Y-52141000D01*
X62816200Y-55301000D02*
X64276200Y-55301000D01*
X66245200Y-55301000D02*
X67705200Y-55301000D01*
X66245200Y-52141000D02*
X68405200Y-52141000D01*
X66245200Y-52141000D02*
X66245200Y-53071000D01*
X66245200Y-55301000D02*
X66245200Y-54371000D01*
X59387200Y-55301000D02*
X59387200Y-54371000D01*
X59387200Y-52141000D02*
X59387200Y-53071000D01*
X59387200Y-52141000D02*
X61547200Y-52141000D01*
X59387200Y-55301000D02*
X60847200Y-55301000D01*
X73103200Y-55301000D02*
X73103200Y-54371000D01*
X73103200Y-52141000D02*
X73103200Y-53071000D01*
X73103200Y-52141000D02*
X75263200Y-52141000D01*
X73103200Y-55301000D02*
X74563200Y-55301000D01*
X73277000Y-63748800D02*
X73277000Y-64678800D01*
X73277000Y-66908800D02*
X73277000Y-65978800D01*
X73277000Y-66908800D02*
X71117000Y-66908800D01*
X73277000Y-63748800D02*
X71817000Y-63748800D01*
X63667100Y-79989800D02*
X63667100Y-79059800D01*
X63667100Y-76829800D02*
X63667100Y-77759800D01*
X63667100Y-76829800D02*
X65827100Y-76829800D01*
X63667100Y-79989800D02*
X65127100Y-79989800D01*
X73311800Y-60411200D02*
X71851800Y-60411200D01*
X73311800Y-63571200D02*
X71151800Y-63571200D01*
X73311800Y-63571200D02*
X73311800Y-62641200D01*
X73311800Y-60411200D02*
X73311800Y-61341200D01*
X63683100Y-83289300D02*
X65143100Y-83289300D01*
X63683100Y-80129300D02*
X65843100Y-80129300D01*
X63683100Y-80129300D02*
X63683100Y-81059300D01*
X63683100Y-83289300D02*
X63683100Y-82359300D01*
X56642000Y-106172000D02*
X54610000Y-106172000D01*
X54610000Y-102108000D02*
X56642000Y-102108000D01*
X54610000Y-102108000D02*
X54610000Y-102743000D01*
X56642000Y-102108000D02*
X56642000Y-102743000D01*
X54610000Y-105537000D02*
X54610000Y-106172000D01*
X56642000Y-105537000D02*
X56642000Y-106172000D01*
X54610000Y-106172000D02*
X52578000Y-106172000D01*
X52578000Y-102108000D02*
X54610000Y-102108000D01*
X52578000Y-102108000D02*
X52578000Y-102743000D01*
X54610000Y-102108000D02*
X54610000Y-102743000D01*
X52578000Y-105537000D02*
X52578000Y-106172000D01*
X54610000Y-105537000D02*
X54610000Y-106172000D01*
X59067700Y-47307500D02*
X59067700Y-46672500D01*
X61099700Y-47307500D02*
X61099700Y-46672500D01*
X59067700Y-50736500D02*
X59067700Y-50101500D01*
X61099700Y-50736500D02*
X61099700Y-50101500D01*
X61099700Y-50736500D02*
X59067700Y-50736500D01*
X59067700Y-46672500D02*
X61099700Y-46672500D01*
X73291700Y-46672500D02*
X75323700Y-46672500D01*
X75323700Y-50736500D02*
X73291700Y-50736500D01*
X75323700Y-50736500D02*
X75323700Y-50101500D01*
X73291700Y-50736500D02*
X73291700Y-50101500D01*
X75323700Y-47307500D02*
X75323700Y-46672500D01*
X73291700Y-47307500D02*
X73291700Y-46672500D01*
X65163700Y-50101500D02*
X65163700Y-50736500D01*
X63131700Y-50101500D02*
X63131700Y-50736500D01*
X65163700Y-46672500D02*
X65163700Y-47307500D01*
X63131700Y-46672500D02*
X63131700Y-47307500D01*
X63131700Y-46672500D02*
X65163700Y-46672500D01*
X65163700Y-50736500D02*
X63131700Y-50736500D01*
X67195700Y-47307500D02*
X67195700Y-46672500D01*
X69227700Y-47307500D02*
X69227700Y-46672500D01*
X67195700Y-50736500D02*
X67195700Y-50101500D01*
X69227700Y-50736500D02*
X69227700Y-50101500D01*
X69227700Y-50736500D02*
X67195700Y-50736500D01*
X67195700Y-46672500D02*
X69227700Y-46672500D01*
X59029600Y-50114200D02*
X59029600Y-50749200D01*
X56997600Y-50114200D02*
X56997600Y-50749200D01*
X59029600Y-46685200D02*
X59029600Y-47320200D01*
X56997600Y-46685200D02*
X56997600Y-47320200D01*
X56997600Y-46685200D02*
X59029600Y-46685200D01*
X59029600Y-50749200D02*
X56997600Y-50749200D01*
X57315100Y-80073500D02*
X56680100Y-80073500D01*
X57315100Y-78041500D02*
X56680100Y-78041500D01*
X60744100Y-80073500D02*
X60109100Y-80073500D01*
X60744100Y-78041500D02*
X60109100Y-78041500D01*
X60744100Y-78041500D02*
X60744100Y-80073500D01*
X56680100Y-80073500D02*
X56680100Y-78041500D01*
X64693800Y-66979800D02*
X64693800Y-64947800D01*
X68757800Y-64947800D02*
X68757800Y-66979800D01*
X68757800Y-64947800D02*
X68122800Y-64947800D01*
X68757800Y-66979800D02*
X68122800Y-66979800D01*
X65328800Y-64947800D02*
X64693800Y-64947800D01*
X65328800Y-66979800D02*
X64693800Y-66979800D01*
X68122800Y-58851800D02*
X68757800Y-58851800D01*
X68122800Y-60883800D02*
X68757800Y-60883800D01*
X64693800Y-58851800D02*
X65328800Y-58851800D01*
X64693800Y-60883800D02*
X65328800Y-60883800D01*
X64693800Y-60883800D02*
X64693800Y-58851800D01*
X68757800Y-58851800D02*
X68757800Y-60883800D01*
X64668400Y-58801000D02*
X64668400Y-56769000D01*
X68732400Y-56769000D02*
X68732400Y-58801000D01*
X68732400Y-56769000D02*
X68097400Y-56769000D01*
X68732400Y-58801000D02*
X68097400Y-58801000D01*
X65303400Y-56769000D02*
X64668400Y-56769000D01*
X65303400Y-58801000D02*
X64668400Y-58801000D01*
X62788800Y-83515200D02*
X62788800Y-84150200D01*
X60756800Y-83515200D02*
X60756800Y-84150200D01*
X62788800Y-80086200D02*
X62788800Y-80721200D01*
X60756800Y-80086200D02*
X60756800Y-80721200D01*
X60756800Y-80086200D02*
X62788800Y-80086200D01*
X62788800Y-84150200D02*
X60756800Y-84150200D01*
X64693800Y-62915800D02*
X64693800Y-60883800D01*
X68757800Y-60883800D02*
X68757800Y-62915800D01*
X68757800Y-60883800D02*
X68122800Y-60883800D01*
X68757800Y-62915800D02*
X68122800Y-62915800D01*
X65328800Y-60883800D02*
X64693800Y-60883800D01*
X65328800Y-62915800D02*
X64693800Y-62915800D01*
X68122800Y-62915800D02*
X68757800Y-62915800D01*
X68122800Y-64947800D02*
X68757800Y-64947800D01*
X64693800Y-62915800D02*
X65328800Y-62915800D01*
X64693800Y-64947800D02*
X65328800Y-64947800D01*
X64693800Y-64947800D02*
X64693800Y-62915800D01*
X68757800Y-62915800D02*
X68757800Y-64947800D01*
X73558400Y-92303600D02*
X74193400Y-92303600D01*
X73558400Y-94335600D02*
X74193400Y-94335600D01*
X70129400Y-92303600D02*
X70764400Y-92303600D01*
X70129400Y-94335600D02*
X70764400Y-94335600D01*
X70129400Y-94335600D02*
X70129400Y-92303600D01*
X74193400Y-92303600D02*
X74193400Y-94335600D01*
X60744100Y-76009500D02*
X62776100Y-76009500D01*
X62776100Y-80073500D02*
X60744100Y-80073500D01*
X62776100Y-80073500D02*
X62776100Y-79438500D01*
X60744100Y-80073500D02*
X60744100Y-79438500D01*
X62776100Y-76644500D02*
X62776100Y-76009500D01*
X60744100Y-76644500D02*
X60744100Y-76009500D01*
X56680100Y-82105500D02*
X56680100Y-80073500D01*
X60744100Y-80073500D02*
X60744100Y-82105500D01*
X60744100Y-80073500D02*
X60109100Y-80073500D01*
X60744100Y-82105500D02*
X60109100Y-82105500D01*
X57315100Y-80073500D02*
X56680100Y-80073500D01*
X57315100Y-82105500D02*
X56680100Y-82105500D01*
X70129400Y-92303600D02*
X70129400Y-90271600D01*
X74193400Y-90271600D02*
X74193400Y-92303600D01*
X74193400Y-90271600D02*
X73558400Y-90271600D01*
X74193400Y-92303600D02*
X73558400Y-92303600D01*
X70764400Y-90271600D02*
X70129400Y-90271600D01*
X70764400Y-92303600D02*
X70129400Y-92303600D01*
X77622400Y-90271600D02*
X78257400Y-90271600D01*
X77622400Y-92303600D02*
X78257400Y-92303600D01*
X74193400Y-90271600D02*
X74828400Y-90271600D01*
X74193400Y-92303600D02*
X74828400Y-92303600D01*
X74193400Y-92303600D02*
X74193400Y-90271600D01*
X78257400Y-90271600D02*
X78257400Y-92303600D01*
X74828400Y-94335600D02*
X74193400Y-94335600D01*
X74828400Y-92303600D02*
X74193400Y-92303600D01*
X78257400Y-94335600D02*
X77622400Y-94335600D01*
X78257400Y-92303600D02*
X77622400Y-92303600D01*
X78257400Y-92303600D02*
X78257400Y-94335600D01*
X74193400Y-94335600D02*
X74193400Y-92303600D01*
X51881200Y-46954800D02*
X54331200Y-46954800D01*
X53681200Y-50174800D02*
X51881200Y-50174800D01*
X46355000Y-95250000D02*
X45720000Y-95250000D01*
X46355000Y-93218000D02*
X45720000Y-93218000D01*
X49784000Y-95250000D02*
X49149000Y-95250000D01*
X49784000Y-93218000D02*
X49149000Y-93218000D01*
X49784000Y-93218000D02*
X49784000Y-95250000D01*
X45720000Y-95250000D02*
X45720000Y-93218000D01*
X46355000Y-87122000D02*
X45720000Y-87122000D01*
X46355000Y-85090000D02*
X45720000Y-85090000D01*
X49784000Y-87122000D02*
X49149000Y-87122000D01*
X49784000Y-85090000D02*
X49149000Y-85090000D01*
X49784000Y-85090000D02*
X49784000Y-87122000D01*
X45720000Y-87122000D02*
X45720000Y-85090000D01*
X45720000Y-93218000D02*
X45720000Y-91186000D01*
X49784000Y-91186000D02*
X49784000Y-93218000D01*
X49784000Y-91186000D02*
X49149000Y-91186000D01*
X49784000Y-93218000D02*
X49149000Y-93218000D01*
X46355000Y-91186000D02*
X45720000Y-91186000D01*
X46355000Y-93218000D02*
X45720000Y-93218000D01*
X49784000Y-87122000D02*
X49784000Y-89154000D01*
X45720000Y-89154000D02*
X45720000Y-87122000D01*
X45720000Y-89154000D02*
X46355000Y-89154000D01*
X45720000Y-87122000D02*
X46355000Y-87122000D01*
X49149000Y-89154000D02*
X49784000Y-89154000D01*
X49149000Y-87122000D02*
X49784000Y-87122000D01*
X45720000Y-91160600D02*
X45720000Y-89128600D01*
X49784000Y-89128600D02*
X49784000Y-91160600D01*
X49784000Y-89128600D02*
X49149000Y-89128600D01*
X49784000Y-91160600D02*
X49149000Y-91160600D01*
X46355000Y-89128600D02*
X45720000Y-89128600D01*
X46355000Y-91160600D02*
X45720000Y-91160600D01*
X50396500Y-91733500D02*
X50396500Y-88733500D01*
X53616500Y-90233500D02*
X53616500Y-88733500D01*
X73914000Y-25527000D02*
X73914000Y-27559000D01*
X69850000Y-27559000D02*
X69850000Y-25527000D01*
X69850000Y-27559000D02*
X70485000Y-27559000D01*
X69850000Y-25527000D02*
X70485000Y-25527000D01*
X73279000Y-27559000D02*
X73914000Y-27559000D01*
X73279000Y-25527000D02*
X73914000Y-25527000D01*
X56642000Y-25527000D02*
X56642000Y-27559000D01*
X52578000Y-27559000D02*
X52578000Y-25527000D01*
X52578000Y-27559000D02*
X53213000Y-27559000D01*
X52578000Y-25527000D02*
X53213000Y-25527000D01*
X56007000Y-27559000D02*
X56642000Y-27559000D01*
X56007000Y-25527000D02*
X56642000Y-25527000D01*
X72072500Y-38608000D02*
X72707500Y-38608000D01*
X72072500Y-40640000D02*
X72707500Y-40640000D01*
X68643500Y-38608000D02*
X69278500Y-38608000D01*
X68643500Y-40640000D02*
X69278500Y-40640000D01*
X68643500Y-40640000D02*
X68643500Y-38608000D01*
X72707500Y-38608000D02*
X72707500Y-40640000D01*
X70993000Y-32766000D02*
X70993000Y-34798000D01*
X66929000Y-34798000D02*
X66929000Y-32766000D01*
X66929000Y-34798000D02*
X67564000Y-34798000D01*
X66929000Y-32766000D02*
X67564000Y-32766000D01*
X70358000Y-34798000D02*
X70993000Y-34798000D01*
X70358000Y-32766000D02*
X70993000Y-32766000D01*
X64135000Y-25527000D02*
X64770000Y-25527000D01*
X64135000Y-27559000D02*
X64770000Y-27559000D01*
X60706000Y-25527000D02*
X61341000Y-25527000D01*
X60706000Y-27559000D02*
X61341000Y-27559000D01*
X60706000Y-27559000D02*
X60706000Y-25527000D01*
X64770000Y-25527000D02*
X64770000Y-27559000D01*
X65163700Y-47307500D02*
X65163700Y-46672500D01*
X67195700Y-47307500D02*
X67195700Y-46672500D01*
X65163700Y-50736500D02*
X65163700Y-50101500D01*
X67195700Y-50736500D02*
X67195700Y-50101500D01*
X67195700Y-50736500D02*
X65163700Y-50736500D01*
X65163700Y-46672500D02*
X67195700Y-46672500D01*
X71259700Y-46672500D02*
X73291700Y-46672500D01*
X73291700Y-50736500D02*
X71259700Y-50736500D01*
X73291700Y-50736500D02*
X73291700Y-50101500D01*
X71259700Y-50736500D02*
X71259700Y-50101500D01*
X73291700Y-47307500D02*
X73291700Y-46672500D01*
X71259700Y-47307500D02*
X71259700Y-46672500D01*
X71259700Y-50736500D02*
X69227700Y-50736500D01*
X69227700Y-46672500D02*
X71259700Y-46672500D01*
X69227700Y-46672500D02*
X69227700Y-47307500D01*
X71259700Y-46672500D02*
X71259700Y-47307500D01*
X69227700Y-50101500D02*
X69227700Y-50736500D01*
X71259700Y-50101500D02*
X71259700Y-50736500D01*
X69735700Y-48450500D02*
X70751700Y-48450500D01*
X69735700Y-48958500D02*
X70243700Y-48450500D01*
X70243700Y-48450500D02*
X70751700Y-48958500D01*
X70751700Y-48958500D02*
X69735700Y-48958500D01*
X54229000Y-90360500D02*
X56261000Y-90360500D01*
X56261000Y-94424500D02*
X54229000Y-94424500D01*
X56261000Y-94424500D02*
X56261000Y-93789500D01*
X54229000Y-94424500D02*
X54229000Y-93789500D01*
X56261000Y-90995500D02*
X56261000Y-90360500D01*
X54229000Y-90995500D02*
X54229000Y-90360500D01*
X56261000Y-89725500D02*
X56261000Y-90360500D01*
X54229000Y-89725500D02*
X54229000Y-90360500D01*
X56261000Y-86296500D02*
X56261000Y-86931500D01*
X54229000Y-86296500D02*
X54229000Y-86931500D01*
X54229000Y-86296500D02*
X56261000Y-86296500D01*
X56261000Y-90360500D02*
X54229000Y-90360500D01*
X78257400Y-88239600D02*
X78257400Y-90271600D01*
X74193400Y-90271600D02*
X74193400Y-88239600D01*
X74193400Y-90271600D02*
X74828400Y-90271600D01*
X74193400Y-88239600D02*
X74828400Y-88239600D01*
X77622400Y-90271600D02*
X78257400Y-90271600D01*
X77622400Y-88239600D02*
X78257400Y-88239600D01*
X73558400Y-88239600D02*
X74193400Y-88239600D01*
X73558400Y-90271600D02*
X74193400Y-90271600D01*
X70129400Y-88239600D02*
X70764400Y-88239600D01*
X70129400Y-90271600D02*
X70764400Y-90271600D01*
X70129400Y-90271600D02*
X70129400Y-88239600D01*
X74193400Y-88239600D02*
X74193400Y-90271600D01*
X73277000Y-57094000D02*
X73277000Y-58024000D01*
X73277000Y-60254000D02*
X73277000Y-59324000D01*
X73277000Y-60254000D02*
X71117000Y-60254000D01*
X73277000Y-57094000D02*
X71817000Y-57094000D01*
X63480000Y-100100500D02*
X59670000Y-100100500D01*
X59670000Y-100100500D02*
X59670000Y-111820500D01*
X59670000Y-111820500D02*
X61090000Y-111820500D01*
X61090000Y-111820500D02*
X61090000Y-107320500D01*
X61090000Y-107320500D02*
X63480000Y-107320500D01*
X63480000Y-100100500D02*
X67290000Y-100100500D01*
X67290000Y-100100500D02*
X67290000Y-111820500D01*
X67290000Y-111820500D02*
X65870000Y-111820500D01*
X65870000Y-111820500D02*
X65870000Y-107320500D01*
X65870000Y-107320500D02*
X63480000Y-107320500D01*
X61980000Y-106210500D02*
X61980000Y-100710500D01*
X61980000Y-100710500D02*
X62480000Y-100710500D01*
X62480000Y-100710500D02*
X62480000Y-106210500D01*
X62480000Y-106210500D02*
X61980000Y-106210500D01*
X64480000Y-106210500D02*
X64480000Y-100710500D01*
X64480000Y-100710500D02*
X64980000Y-100710500D01*
X64980000Y-100710500D02*
X64980000Y-106210500D01*
X64980000Y-106210500D02*
X64480000Y-106210500D01*
X62230000Y-110910500D02*
X61930000Y-111510500D01*
X61930000Y-111510500D02*
X62530000Y-111510500D01*
X62530000Y-111510500D02*
X62230000Y-110910500D01*
X57531000Y-32893000D02*
X57531000Y-34925000D01*
X53467000Y-34925000D02*
X53467000Y-32893000D01*
X53467000Y-34925000D02*
X54102000Y-34925000D01*
X53467000Y-32893000D02*
X54102000Y-32893000D01*
X56896000Y-34925000D02*
X57531000Y-34925000D01*
X56896000Y-32893000D02*
X57531000Y-32893000D01*
X66873000Y-90525600D02*
X66873000Y-89382600D01*
X66873000Y-84429600D02*
X66873000Y-85572600D01*
X60015000Y-84429600D02*
X60015000Y-85572600D01*
X60015000Y-90525600D02*
X60015000Y-89382600D01*
X62047000Y-90525600D02*
X62047000Y-84429600D01*
X60015000Y-84429600D02*
X66873000Y-84429600D01*
X66873000Y-90525600D02*
X60015000Y-90525600D01*
X63063000Y-87477600D02*
X63825000Y-87985600D01*
X63825000Y-87985600D02*
X63825000Y-86969600D01*
X63825000Y-86969600D02*
X63063000Y-87477600D01*
X63063000Y-87985600D02*
X63063000Y-86969600D01*
D10*
X62206414Y-46388261D02*
X62418080Y-46085880D01*
X62569271Y-46388261D02*
X62569271Y-45753261D01*
X62327366Y-45753261D01*
X62266890Y-45783500D01*
X62236652Y-45813738D01*
X62206414Y-45874214D01*
X62206414Y-45964928D01*
X62236652Y-46025404D01*
X62266890Y-46055642D01*
X62327366Y-46085880D01*
X62569271Y-46085880D01*
X61601652Y-46388261D02*
X61964509Y-46388261D01*
X61783080Y-46388261D02*
X61783080Y-45753261D01*
X61843557Y-45843976D01*
X61904033Y-45904452D01*
X61964509Y-45934690D01*
X61389985Y-45753261D02*
X60996890Y-45753261D01*
X61208557Y-45995166D01*
X61117842Y-45995166D01*
X61057366Y-46025404D01*
X61027128Y-46055642D01*
X60996890Y-46116119D01*
X60996890Y-46267309D01*
X61027128Y-46327785D01*
X61057366Y-46358023D01*
X61117842Y-46388261D01*
X61299271Y-46388261D01*
X61359747Y-46358023D01*
X61389985Y-46327785D01*
X70569061Y-80897790D02*
X71083109Y-80897790D01*
X71143585Y-80928028D01*
X71173823Y-80958266D01*
X71204061Y-81018742D01*
X71204061Y-81139695D01*
X71173823Y-81200171D01*
X71143585Y-81230409D01*
X71083109Y-81260647D01*
X70569061Y-81260647D01*
X70569061Y-81502552D02*
X70569061Y-81925885D01*
X71204061Y-81653742D01*
X52252033Y-63117185D02*
X52282271Y-63147423D01*
X52372985Y-63177661D01*
X52433461Y-63177661D01*
X52524176Y-63147423D01*
X52584652Y-63086947D01*
X52614890Y-63026471D01*
X52645128Y-62905519D01*
X52645128Y-62814804D01*
X52614890Y-62693852D01*
X52584652Y-62633376D01*
X52524176Y-62572900D01*
X52433461Y-62542661D01*
X52372985Y-62542661D01*
X52282271Y-62572900D01*
X52252033Y-62603138D01*
X52040366Y-62542661D02*
X51647271Y-62542661D01*
X51858938Y-62784566D01*
X51768223Y-62784566D01*
X51707747Y-62814804D01*
X51677509Y-62845042D01*
X51647271Y-62905519D01*
X51647271Y-63056709D01*
X51677509Y-63117185D01*
X51707747Y-63147423D01*
X51768223Y-63177661D01*
X51949652Y-63177661D01*
X52010128Y-63147423D01*
X52040366Y-63117185D01*
X58066214Y-101763285D02*
X58096452Y-101793523D01*
X58187166Y-101823761D01*
X58247642Y-101823761D01*
X58338357Y-101793523D01*
X58398833Y-101733047D01*
X58429071Y-101672571D01*
X58459309Y-101551619D01*
X58459309Y-101460904D01*
X58429071Y-101339952D01*
X58398833Y-101279476D01*
X58338357Y-101219000D01*
X58247642Y-101188761D01*
X58187166Y-101188761D01*
X58096452Y-101219000D01*
X58066214Y-101249238D01*
X57461452Y-101823761D02*
X57824309Y-101823761D01*
X57642880Y-101823761D02*
X57642880Y-101188761D01*
X57703357Y-101279476D01*
X57763833Y-101339952D01*
X57824309Y-101370190D01*
X57068357Y-101188761D02*
X57007880Y-101188761D01*
X56947404Y-101219000D01*
X56917166Y-101249238D01*
X56886928Y-101309714D01*
X56856690Y-101430666D01*
X56856690Y-101581857D01*
X56886928Y-101702809D01*
X56917166Y-101763285D01*
X56947404Y-101793523D01*
X57007880Y-101823761D01*
X57068357Y-101823761D01*
X57128833Y-101793523D01*
X57159071Y-101763285D01*
X57189309Y-101702809D01*
X57219547Y-101581857D01*
X57219547Y-101430666D01*
X57189309Y-101309714D01*
X57159071Y-101249238D01*
X57128833Y-101219000D01*
X57068357Y-101188761D01*
X51970214Y-101763285D02*
X52000452Y-101793523D01*
X52091166Y-101823761D01*
X52151642Y-101823761D01*
X52242357Y-101793523D01*
X52302833Y-101733047D01*
X52333071Y-101672571D01*
X52363309Y-101551619D01*
X52363309Y-101460904D01*
X52333071Y-101339952D01*
X52302833Y-101279476D01*
X52242357Y-101219000D01*
X52151642Y-101188761D01*
X52091166Y-101188761D01*
X52000452Y-101219000D01*
X51970214Y-101249238D01*
X51365452Y-101823761D02*
X51728309Y-101823761D01*
X51546880Y-101823761D02*
X51546880Y-101188761D01*
X51607357Y-101279476D01*
X51667833Y-101339952D01*
X51728309Y-101370190D01*
X50760690Y-101823761D02*
X51123547Y-101823761D01*
X50942119Y-101823761D02*
X50942119Y-101188761D01*
X51002595Y-101279476D01*
X51063071Y-101339952D01*
X51123547Y-101370190D01*
X56110414Y-46251585D02*
X56140652Y-46281823D01*
X56231366Y-46312061D01*
X56291842Y-46312061D01*
X56382557Y-46281823D01*
X56443033Y-46221347D01*
X56473271Y-46160871D01*
X56503509Y-46039919D01*
X56503509Y-45949204D01*
X56473271Y-45828252D01*
X56443033Y-45767776D01*
X56382557Y-45707300D01*
X56291842Y-45677061D01*
X56231366Y-45677061D01*
X56140652Y-45707300D01*
X56110414Y-45737538D01*
X55505652Y-46312061D02*
X55868509Y-46312061D01*
X55687080Y-46312061D02*
X55687080Y-45677061D01*
X55747557Y-45767776D01*
X55808033Y-45828252D01*
X55868509Y-45858490D01*
X54931128Y-45677061D02*
X55233509Y-45677061D01*
X55263747Y-45979442D01*
X55233509Y-45949204D01*
X55173033Y-45918966D01*
X55021842Y-45918966D01*
X54961366Y-45949204D01*
X54931128Y-45979442D01*
X54900890Y-46039919D01*
X54900890Y-46191109D01*
X54931128Y-46251585D01*
X54961366Y-46281823D01*
X55021842Y-46312061D01*
X55173033Y-46312061D01*
X55233509Y-46281823D01*
X55263747Y-46251585D01*
X79656214Y-87348785D02*
X79686452Y-87379023D01*
X79777166Y-87409261D01*
X79837642Y-87409261D01*
X79928357Y-87379023D01*
X79988833Y-87318547D01*
X80019071Y-87258071D01*
X80049309Y-87137119D01*
X80049309Y-87046404D01*
X80019071Y-86925452D01*
X79988833Y-86864976D01*
X79928357Y-86804500D01*
X79837642Y-86774261D01*
X79777166Y-86774261D01*
X79686452Y-86804500D01*
X79656214Y-86834738D01*
X79414309Y-86834738D02*
X79384071Y-86804500D01*
X79323595Y-86774261D01*
X79172404Y-86774261D01*
X79111928Y-86804500D01*
X79081690Y-86834738D01*
X79051452Y-86895214D01*
X79051452Y-86955690D01*
X79081690Y-87046404D01*
X79444547Y-87409261D01*
X79051452Y-87409261D01*
X78446690Y-87409261D02*
X78809547Y-87409261D01*
X78628119Y-87409261D02*
X78628119Y-86774261D01*
X78688595Y-86864976D01*
X78749071Y-86925452D01*
X78809547Y-86955690D01*
X56072314Y-77442785D02*
X56102552Y-77473023D01*
X56193266Y-77503261D01*
X56253742Y-77503261D01*
X56344457Y-77473023D01*
X56404933Y-77412547D01*
X56435171Y-77352071D01*
X56465409Y-77231119D01*
X56465409Y-77140404D01*
X56435171Y-77019452D01*
X56404933Y-76958976D01*
X56344457Y-76898500D01*
X56253742Y-76868261D01*
X56193266Y-76868261D01*
X56102552Y-76898500D01*
X56072314Y-76928738D01*
X55830409Y-76928738D02*
X55800171Y-76898500D01*
X55739695Y-76868261D01*
X55588504Y-76868261D01*
X55528028Y-76898500D01*
X55497790Y-76928738D01*
X55467552Y-76989214D01*
X55467552Y-77049690D01*
X55497790Y-77140404D01*
X55860647Y-77503261D01*
X55467552Y-77503261D01*
X54893028Y-76868261D02*
X55195409Y-76868261D01*
X55225647Y-77170642D01*
X55195409Y-77140404D01*
X55134933Y-77110166D01*
X54983742Y-77110166D01*
X54923266Y-77140404D01*
X54893028Y-77170642D01*
X54862790Y-77231119D01*
X54862790Y-77382309D01*
X54893028Y-77442785D01*
X54923266Y-77473023D01*
X54983742Y-77503261D01*
X55134933Y-77503261D01*
X55195409Y-77473023D01*
X55225647Y-77442785D01*
X72595014Y-85977185D02*
X72625252Y-86007423D01*
X72715966Y-86037661D01*
X72776442Y-86037661D01*
X72867157Y-86007423D01*
X72927633Y-85946947D01*
X72957871Y-85886471D01*
X72988109Y-85765519D01*
X72988109Y-85674804D01*
X72957871Y-85553852D01*
X72927633Y-85493376D01*
X72867157Y-85432900D01*
X72776442Y-85402661D01*
X72715966Y-85402661D01*
X72625252Y-85432900D01*
X72595014Y-85463138D01*
X72353109Y-85463138D02*
X72322871Y-85432900D01*
X72262395Y-85402661D01*
X72111204Y-85402661D01*
X72050728Y-85432900D01*
X72020490Y-85463138D01*
X71990252Y-85523614D01*
X71990252Y-85584090D01*
X72020490Y-85674804D01*
X72383347Y-86037661D01*
X71990252Y-86037661D01*
X71778585Y-85402661D02*
X71355252Y-85402661D01*
X71627395Y-86037661D01*
X56072314Y-83348285D02*
X56102552Y-83378523D01*
X56193266Y-83408761D01*
X56253742Y-83408761D01*
X56344457Y-83378523D01*
X56404933Y-83318047D01*
X56435171Y-83257571D01*
X56465409Y-83136619D01*
X56465409Y-83045904D01*
X56435171Y-82924952D01*
X56404933Y-82864476D01*
X56344457Y-82804000D01*
X56253742Y-82773761D01*
X56193266Y-82773761D01*
X56102552Y-82804000D01*
X56072314Y-82834238D01*
X55830409Y-82834238D02*
X55800171Y-82804000D01*
X55739695Y-82773761D01*
X55588504Y-82773761D01*
X55528028Y-82804000D01*
X55497790Y-82834238D01*
X55467552Y-82894714D01*
X55467552Y-82955190D01*
X55497790Y-83045904D01*
X55860647Y-83408761D01*
X55467552Y-83408761D01*
X55165171Y-83408761D02*
X55044219Y-83408761D01*
X54983742Y-83378523D01*
X54953504Y-83348285D01*
X54893028Y-83257571D01*
X54862790Y-83136619D01*
X54862790Y-82894714D01*
X54893028Y-82834238D01*
X54923266Y-82804000D01*
X54983742Y-82773761D01*
X55104695Y-82773761D01*
X55165171Y-82804000D01*
X55195409Y-82834238D01*
X55225647Y-82894714D01*
X55225647Y-83045904D01*
X55195409Y-83106380D01*
X55165171Y-83136619D01*
X55104695Y-83166857D01*
X54983742Y-83166857D01*
X54923266Y-83136619D01*
X54893028Y-83106380D01*
X54862790Y-83045904D01*
X71561476Y-51909738D02*
X71621952Y-51879500D01*
X71682428Y-51819023D01*
X71773142Y-51728309D01*
X71833619Y-51698071D01*
X71894095Y-51698071D01*
X71863857Y-51849261D02*
X71924333Y-51819023D01*
X71984809Y-51758547D01*
X72015047Y-51637595D01*
X72015047Y-51425928D01*
X71984809Y-51304976D01*
X71924333Y-51244500D01*
X71863857Y-51214261D01*
X71742904Y-51214261D01*
X71682428Y-51244500D01*
X71621952Y-51304976D01*
X71591714Y-51425928D01*
X71591714Y-51637595D01*
X71621952Y-51758547D01*
X71682428Y-51819023D01*
X71742904Y-51849261D01*
X71863857Y-51849261D01*
X71380047Y-51214261D02*
X70986952Y-51214261D01*
X71198619Y-51456166D01*
X71107904Y-51456166D01*
X71047428Y-51486404D01*
X71017190Y-51516642D01*
X70986952Y-51577119D01*
X70986952Y-51728309D01*
X71017190Y-51788785D01*
X71047428Y-51819023D01*
X71107904Y-51849261D01*
X71289333Y-51849261D01*
X71349809Y-51819023D01*
X71380047Y-51788785D01*
X64017676Y-51909738D02*
X64078152Y-51879500D01*
X64138628Y-51819023D01*
X64229342Y-51728309D01*
X64289819Y-51698071D01*
X64350295Y-51698071D01*
X64320057Y-51849261D02*
X64380533Y-51819023D01*
X64441009Y-51758547D01*
X64471247Y-51637595D01*
X64471247Y-51425928D01*
X64441009Y-51304976D01*
X64380533Y-51244500D01*
X64320057Y-51214261D01*
X64199104Y-51214261D01*
X64138628Y-51244500D01*
X64078152Y-51304976D01*
X64047914Y-51425928D01*
X64047914Y-51637595D01*
X64078152Y-51758547D01*
X64138628Y-51819023D01*
X64199104Y-51849261D01*
X64320057Y-51849261D01*
X63503628Y-51425928D02*
X63503628Y-51849261D01*
X63654819Y-51184023D02*
X63806009Y-51637595D01*
X63412914Y-51637595D01*
X67446676Y-51909738D02*
X67507152Y-51879500D01*
X67567628Y-51819023D01*
X67658342Y-51728309D01*
X67718819Y-51698071D01*
X67779295Y-51698071D01*
X67749057Y-51849261D02*
X67809533Y-51819023D01*
X67870009Y-51758547D01*
X67900247Y-51637595D01*
X67900247Y-51425928D01*
X67870009Y-51304976D01*
X67809533Y-51244500D01*
X67749057Y-51214261D01*
X67628104Y-51214261D01*
X67567628Y-51244500D01*
X67507152Y-51304976D01*
X67476914Y-51425928D01*
X67476914Y-51637595D01*
X67507152Y-51758547D01*
X67567628Y-51819023D01*
X67628104Y-51849261D01*
X67749057Y-51849261D01*
X66932628Y-51214261D02*
X67053580Y-51214261D01*
X67114057Y-51244500D01*
X67144295Y-51274738D01*
X67204771Y-51365452D01*
X67235009Y-51486404D01*
X67235009Y-51728309D01*
X67204771Y-51788785D01*
X67174533Y-51819023D01*
X67114057Y-51849261D01*
X66993104Y-51849261D01*
X66932628Y-51819023D01*
X66902390Y-51788785D01*
X66872152Y-51728309D01*
X66872152Y-51577119D01*
X66902390Y-51516642D01*
X66932628Y-51486404D01*
X66993104Y-51456166D01*
X67114057Y-51456166D01*
X67174533Y-51486404D01*
X67204771Y-51516642D01*
X67235009Y-51577119D01*
X59877476Y-51909738D02*
X59937952Y-51879500D01*
X59998428Y-51819023D01*
X60089142Y-51728309D01*
X60149619Y-51698071D01*
X60210095Y-51698071D01*
X60179857Y-51849261D02*
X60240333Y-51819023D01*
X60300809Y-51758547D01*
X60331047Y-51637595D01*
X60331047Y-51425928D01*
X60300809Y-51304976D01*
X60240333Y-51244500D01*
X60179857Y-51214261D01*
X60058904Y-51214261D01*
X59998428Y-51244500D01*
X59937952Y-51304976D01*
X59907714Y-51425928D01*
X59907714Y-51637595D01*
X59937952Y-51758547D01*
X59998428Y-51819023D01*
X60058904Y-51849261D01*
X60179857Y-51849261D01*
X59544857Y-51486404D02*
X59605333Y-51456166D01*
X59635571Y-51425928D01*
X59665809Y-51365452D01*
X59665809Y-51335214D01*
X59635571Y-51274738D01*
X59605333Y-51244500D01*
X59544857Y-51214261D01*
X59423904Y-51214261D01*
X59363428Y-51244500D01*
X59333190Y-51274738D01*
X59302952Y-51335214D01*
X59302952Y-51365452D01*
X59333190Y-51425928D01*
X59363428Y-51456166D01*
X59423904Y-51486404D01*
X59544857Y-51486404D01*
X59605333Y-51516642D01*
X59635571Y-51546880D01*
X59665809Y-51607357D01*
X59665809Y-51728309D01*
X59635571Y-51788785D01*
X59605333Y-51819023D01*
X59544857Y-51849261D01*
X59423904Y-51849261D01*
X59363428Y-51819023D01*
X59333190Y-51788785D01*
X59302952Y-51728309D01*
X59302952Y-51607357D01*
X59333190Y-51546880D01*
X59363428Y-51516642D01*
X59423904Y-51486404D01*
X75498476Y-51909738D02*
X75558952Y-51879500D01*
X75619428Y-51819023D01*
X75710142Y-51728309D01*
X75770619Y-51698071D01*
X75831095Y-51698071D01*
X75800857Y-51849261D02*
X75861333Y-51819023D01*
X75921809Y-51758547D01*
X75952047Y-51637595D01*
X75952047Y-51425928D01*
X75921809Y-51304976D01*
X75861333Y-51244500D01*
X75800857Y-51214261D01*
X75679904Y-51214261D01*
X75619428Y-51244500D01*
X75558952Y-51304976D01*
X75528714Y-51425928D01*
X75528714Y-51637595D01*
X75558952Y-51758547D01*
X75619428Y-51819023D01*
X75679904Y-51849261D01*
X75800857Y-51849261D01*
X75226333Y-51849261D02*
X75105380Y-51849261D01*
X75044904Y-51819023D01*
X75014666Y-51788785D01*
X74954190Y-51698071D01*
X74923952Y-51577119D01*
X74923952Y-51335214D01*
X74954190Y-51274738D01*
X74984428Y-51244500D01*
X75044904Y-51214261D01*
X75165857Y-51214261D01*
X75226333Y-51244500D01*
X75256571Y-51274738D01*
X75286809Y-51335214D01*
X75286809Y-51486404D01*
X75256571Y-51546880D01*
X75226333Y-51577119D01*
X75165857Y-51607357D01*
X75044904Y-51607357D01*
X74984428Y-51577119D01*
X74954190Y-51546880D01*
X74923952Y-51486404D01*
X74657857Y-66794138D02*
X74718333Y-66763900D01*
X74778809Y-66703423D01*
X74869523Y-66612709D01*
X74930000Y-66582471D01*
X74990476Y-66582471D01*
X74960238Y-66733661D02*
X75020714Y-66703423D01*
X75081190Y-66642947D01*
X75111428Y-66521995D01*
X75111428Y-66310328D01*
X75081190Y-66189376D01*
X75020714Y-66128900D01*
X74960238Y-66098661D01*
X74839285Y-66098661D01*
X74778809Y-66128900D01*
X74718333Y-66189376D01*
X74688095Y-66310328D01*
X74688095Y-66521995D01*
X74718333Y-66642947D01*
X74778809Y-66703423D01*
X74839285Y-66733661D01*
X74960238Y-66733661D01*
X74083333Y-66733661D02*
X74446190Y-66733661D01*
X74264761Y-66733661D02*
X74264761Y-66098661D01*
X74325238Y-66189376D01*
X74385714Y-66249852D01*
X74446190Y-66280090D01*
X73690238Y-66098661D02*
X73629761Y-66098661D01*
X73569285Y-66128900D01*
X73539047Y-66159138D01*
X73508809Y-66219614D01*
X73478571Y-66340566D01*
X73478571Y-66491757D01*
X73508809Y-66612709D01*
X73539047Y-66673185D01*
X73569285Y-66703423D01*
X73629761Y-66733661D01*
X73690238Y-66733661D01*
X73750714Y-66703423D01*
X73780952Y-66673185D01*
X73811190Y-66612709D01*
X73841428Y-66491757D01*
X73841428Y-66340566D01*
X73811190Y-66219614D01*
X73780952Y-66159138D01*
X73750714Y-66128900D01*
X73690238Y-66098661D01*
X66971938Y-78046942D02*
X66941700Y-77986466D01*
X66881223Y-77925990D01*
X66790509Y-77835276D01*
X66760271Y-77774800D01*
X66760271Y-77714323D01*
X66911461Y-77744561D02*
X66881223Y-77684085D01*
X66820747Y-77623609D01*
X66699795Y-77593371D01*
X66488128Y-77593371D01*
X66367176Y-77623609D01*
X66306700Y-77684085D01*
X66276461Y-77744561D01*
X66276461Y-77865514D01*
X66306700Y-77925990D01*
X66367176Y-77986466D01*
X66488128Y-78016704D01*
X66699795Y-78016704D01*
X66820747Y-77986466D01*
X66881223Y-77925990D01*
X66911461Y-77865514D01*
X66911461Y-77744561D01*
X66911461Y-78621466D02*
X66911461Y-78258609D01*
X66911461Y-78440038D02*
X66276461Y-78440038D01*
X66367176Y-78379561D01*
X66427652Y-78319085D01*
X66457890Y-78258609D01*
X66336938Y-78863371D02*
X66306700Y-78893609D01*
X66276461Y-78954085D01*
X66276461Y-79105276D01*
X66306700Y-79165752D01*
X66336938Y-79195990D01*
X66397414Y-79226228D01*
X66457890Y-79226228D01*
X66548604Y-79195990D01*
X66911461Y-78833133D01*
X66911461Y-79226228D01*
X74708657Y-63420938D02*
X74769133Y-63390700D01*
X74829609Y-63330223D01*
X74920323Y-63239509D01*
X74980800Y-63209271D01*
X75041276Y-63209271D01*
X75011038Y-63360461D02*
X75071514Y-63330223D01*
X75131990Y-63269747D01*
X75162228Y-63148795D01*
X75162228Y-62937128D01*
X75131990Y-62816176D01*
X75071514Y-62755700D01*
X75011038Y-62725461D01*
X74890085Y-62725461D01*
X74829609Y-62755700D01*
X74769133Y-62816176D01*
X74738895Y-62937128D01*
X74738895Y-63148795D01*
X74769133Y-63269747D01*
X74829609Y-63330223D01*
X74890085Y-63360461D01*
X75011038Y-63360461D01*
X74134133Y-63360461D02*
X74496990Y-63360461D01*
X74315561Y-63360461D02*
X74315561Y-62725461D01*
X74376038Y-62816176D01*
X74436514Y-62876652D01*
X74496990Y-62906890D01*
X73529371Y-63360461D02*
X73892228Y-63360461D01*
X73710800Y-63360461D02*
X73710800Y-62725461D01*
X73771276Y-62816176D01*
X73831752Y-62876652D01*
X73892228Y-62906890D01*
X66921138Y-81348942D02*
X66890900Y-81288466D01*
X66830423Y-81227990D01*
X66739709Y-81137276D01*
X66709471Y-81076800D01*
X66709471Y-81016323D01*
X66860661Y-81046561D02*
X66830423Y-80986085D01*
X66769947Y-80925609D01*
X66648995Y-80895371D01*
X66437328Y-80895371D01*
X66316376Y-80925609D01*
X66255900Y-80986085D01*
X66225661Y-81046561D01*
X66225661Y-81167514D01*
X66255900Y-81227990D01*
X66316376Y-81288466D01*
X66437328Y-81318704D01*
X66648995Y-81318704D01*
X66769947Y-81288466D01*
X66830423Y-81227990D01*
X66860661Y-81167514D01*
X66860661Y-81046561D01*
X66860661Y-81923466D02*
X66860661Y-81560609D01*
X66860661Y-81742038D02*
X66225661Y-81742038D01*
X66316376Y-81681561D01*
X66376852Y-81621085D01*
X66407090Y-81560609D01*
X66225661Y-82135133D02*
X66225661Y-82528228D01*
X66467566Y-82316561D01*
X66467566Y-82407276D01*
X66497804Y-82467752D01*
X66528042Y-82497990D01*
X66588519Y-82528228D01*
X66739709Y-82528228D01*
X66800185Y-82497990D01*
X66830423Y-82467752D01*
X66860661Y-82407276D01*
X66860661Y-82225847D01*
X66830423Y-82165371D01*
X66800185Y-82135133D01*
X55731833Y-101823761D02*
X55943500Y-101521380D01*
X56094690Y-101823761D02*
X56094690Y-101188761D01*
X55852785Y-101188761D01*
X55792309Y-101219000D01*
X55762071Y-101249238D01*
X55731833Y-101309714D01*
X55731833Y-101400428D01*
X55762071Y-101460904D01*
X55792309Y-101491142D01*
X55852785Y-101521380D01*
X56094690Y-101521380D01*
X55127071Y-101823761D02*
X55489928Y-101823761D01*
X55308500Y-101823761D02*
X55308500Y-101188761D01*
X55368976Y-101279476D01*
X55429452Y-101339952D01*
X55489928Y-101370190D01*
X53699833Y-101823761D02*
X53911500Y-101521380D01*
X54062690Y-101823761D02*
X54062690Y-101188761D01*
X53820785Y-101188761D01*
X53760309Y-101219000D01*
X53730071Y-101249238D01*
X53699833Y-101309714D01*
X53699833Y-101400428D01*
X53730071Y-101460904D01*
X53760309Y-101491142D01*
X53820785Y-101521380D01*
X54062690Y-101521380D01*
X53457928Y-101249238D02*
X53427690Y-101219000D01*
X53367214Y-101188761D01*
X53216023Y-101188761D01*
X53155547Y-101219000D01*
X53125309Y-101249238D01*
X53095071Y-101309714D01*
X53095071Y-101370190D01*
X53125309Y-101460904D01*
X53488166Y-101823761D01*
X53095071Y-101823761D01*
X60047414Y-46388261D02*
X60259080Y-46085880D01*
X60410271Y-46388261D02*
X60410271Y-45753261D01*
X60168366Y-45753261D01*
X60107890Y-45783500D01*
X60077652Y-45813738D01*
X60047414Y-45874214D01*
X60047414Y-45964928D01*
X60077652Y-46025404D01*
X60107890Y-46055642D01*
X60168366Y-46085880D01*
X60410271Y-46085880D01*
X59442652Y-46388261D02*
X59805509Y-46388261D01*
X59624080Y-46388261D02*
X59624080Y-45753261D01*
X59684557Y-45843976D01*
X59745033Y-45904452D01*
X59805509Y-45934690D01*
X58868128Y-45753261D02*
X59170509Y-45753261D01*
X59200747Y-46055642D01*
X59170509Y-46025404D01*
X59110033Y-45995166D01*
X58958842Y-45995166D01*
X58898366Y-46025404D01*
X58868128Y-46055642D01*
X58837890Y-46116119D01*
X58837890Y-46267309D01*
X58868128Y-46327785D01*
X58898366Y-46358023D01*
X58958842Y-46388261D01*
X59110033Y-46388261D01*
X59170509Y-46358023D01*
X59200747Y-46327785D01*
X74715914Y-46388261D02*
X74927580Y-46085880D01*
X75078771Y-46388261D02*
X75078771Y-45753261D01*
X74836866Y-45753261D01*
X74776390Y-45783500D01*
X74746152Y-45813738D01*
X74715914Y-45874214D01*
X74715914Y-45964928D01*
X74746152Y-46025404D01*
X74776390Y-46055642D01*
X74836866Y-46085880D01*
X75078771Y-46085880D01*
X74111152Y-46388261D02*
X74474009Y-46388261D01*
X74292580Y-46388261D02*
X74292580Y-45753261D01*
X74353057Y-45843976D01*
X74413533Y-45904452D01*
X74474009Y-45934690D01*
X73566866Y-45753261D02*
X73687819Y-45753261D01*
X73748295Y-45783500D01*
X73778533Y-45813738D01*
X73839009Y-45904452D01*
X73869247Y-46025404D01*
X73869247Y-46267309D01*
X73839009Y-46327785D01*
X73808771Y-46358023D01*
X73748295Y-46388261D01*
X73627342Y-46388261D01*
X73566866Y-46358023D01*
X73536628Y-46327785D01*
X73506390Y-46267309D01*
X73506390Y-46116119D01*
X73536628Y-46055642D01*
X73566866Y-46025404D01*
X73627342Y-45995166D01*
X73748295Y-45995166D01*
X73808771Y-46025404D01*
X73839009Y-46055642D01*
X73869247Y-46116119D01*
X64365414Y-46388261D02*
X64577080Y-46085880D01*
X64728271Y-46388261D02*
X64728271Y-45753261D01*
X64486366Y-45753261D01*
X64425890Y-45783500D01*
X64395652Y-45813738D01*
X64365414Y-45874214D01*
X64365414Y-45964928D01*
X64395652Y-46025404D01*
X64425890Y-46055642D01*
X64486366Y-46085880D01*
X64728271Y-46085880D01*
X63760652Y-46388261D02*
X64123509Y-46388261D01*
X63942080Y-46388261D02*
X63942080Y-45753261D01*
X64002557Y-45843976D01*
X64063033Y-45904452D01*
X64123509Y-45934690D01*
X63548985Y-45753261D02*
X63125652Y-45753261D01*
X63397795Y-46388261D01*
X68683414Y-46388261D02*
X68895080Y-46085880D01*
X69046271Y-46388261D02*
X69046271Y-45753261D01*
X68804366Y-45753261D01*
X68743890Y-45783500D01*
X68713652Y-45813738D01*
X68683414Y-45874214D01*
X68683414Y-45964928D01*
X68713652Y-46025404D01*
X68743890Y-46055642D01*
X68804366Y-46085880D01*
X69046271Y-46085880D01*
X68078652Y-46388261D02*
X68441509Y-46388261D01*
X68260080Y-46388261D02*
X68260080Y-45753261D01*
X68320557Y-45843976D01*
X68381033Y-45904452D01*
X68441509Y-45934690D01*
X67715795Y-46025404D02*
X67776271Y-45995166D01*
X67806509Y-45964928D01*
X67836747Y-45904452D01*
X67836747Y-45874214D01*
X67806509Y-45813738D01*
X67776271Y-45783500D01*
X67715795Y-45753261D01*
X67594842Y-45753261D01*
X67534366Y-45783500D01*
X67504128Y-45813738D01*
X67473890Y-45874214D01*
X67473890Y-45904452D01*
X67504128Y-45964928D01*
X67534366Y-45995166D01*
X67594842Y-46025404D01*
X67715795Y-46025404D01*
X67776271Y-46055642D01*
X67806509Y-46085880D01*
X67836747Y-46146357D01*
X67836747Y-46267309D01*
X67806509Y-46327785D01*
X67776271Y-46358023D01*
X67715795Y-46388261D01*
X67594842Y-46388261D01*
X67534366Y-46358023D01*
X67504128Y-46327785D01*
X67473890Y-46267309D01*
X67473890Y-46146357D01*
X67504128Y-46085880D01*
X67534366Y-46055642D01*
X67594842Y-46025404D01*
X58142414Y-46439061D02*
X58354080Y-46136680D01*
X58505271Y-46439061D02*
X58505271Y-45804061D01*
X58263366Y-45804061D01*
X58202890Y-45834300D01*
X58172652Y-45864538D01*
X58142414Y-45925014D01*
X58142414Y-46015728D01*
X58172652Y-46076204D01*
X58202890Y-46106442D01*
X58263366Y-46136680D01*
X58505271Y-46136680D01*
X57900509Y-45864538D02*
X57870271Y-45834300D01*
X57809795Y-45804061D01*
X57658604Y-45804061D01*
X57598128Y-45834300D01*
X57567890Y-45864538D01*
X57537652Y-45925014D01*
X57537652Y-45985490D01*
X57567890Y-46076204D01*
X57930747Y-46439061D01*
X57537652Y-46439061D01*
X57144557Y-45804061D02*
X57084080Y-45804061D01*
X57023604Y-45834300D01*
X56993366Y-45864538D01*
X56963128Y-45925014D01*
X56932890Y-46045966D01*
X56932890Y-46197157D01*
X56963128Y-46318109D01*
X56993366Y-46378585D01*
X57023604Y-46408823D01*
X57084080Y-46439061D01*
X57144557Y-46439061D01*
X57205033Y-46408823D01*
X57235271Y-46378585D01*
X57265509Y-46318109D01*
X57295747Y-46197157D01*
X57295747Y-46045966D01*
X57265509Y-45925014D01*
X57235271Y-45864538D01*
X57205033Y-45834300D01*
X57144557Y-45804061D01*
X56072314Y-79281261D02*
X56283980Y-78978880D01*
X56435171Y-79281261D02*
X56435171Y-78646261D01*
X56193266Y-78646261D01*
X56132790Y-78676500D01*
X56102552Y-78706738D01*
X56072314Y-78767214D01*
X56072314Y-78857928D01*
X56102552Y-78918404D01*
X56132790Y-78948642D01*
X56193266Y-78978880D01*
X56435171Y-78978880D01*
X55830409Y-78706738D02*
X55800171Y-78676500D01*
X55739695Y-78646261D01*
X55588504Y-78646261D01*
X55528028Y-78676500D01*
X55497790Y-78706738D01*
X55467552Y-78767214D01*
X55467552Y-78827690D01*
X55497790Y-78918404D01*
X55860647Y-79281261D01*
X55467552Y-79281261D01*
X55255885Y-78646261D02*
X54832552Y-78646261D01*
X55104695Y-79281261D01*
X70182014Y-66378061D02*
X70393680Y-66075680D01*
X70544871Y-66378061D02*
X70544871Y-65743061D01*
X70302966Y-65743061D01*
X70242490Y-65773300D01*
X70212252Y-65803538D01*
X70182014Y-65864014D01*
X70182014Y-65954728D01*
X70212252Y-66015204D01*
X70242490Y-66045442D01*
X70302966Y-66075680D01*
X70544871Y-66075680D01*
X69940109Y-65803538D02*
X69909871Y-65773300D01*
X69849395Y-65743061D01*
X69698204Y-65743061D01*
X69637728Y-65773300D01*
X69607490Y-65803538D01*
X69577252Y-65864014D01*
X69577252Y-65924490D01*
X69607490Y-66015204D01*
X69970347Y-66378061D01*
X69577252Y-66378061D01*
X68972490Y-66378061D02*
X69335347Y-66378061D01*
X69153919Y-66378061D02*
X69153919Y-65743061D01*
X69214395Y-65833776D01*
X69274871Y-65894252D01*
X69335347Y-65924490D01*
X70182014Y-60231261D02*
X70393680Y-59928880D01*
X70544871Y-60231261D02*
X70544871Y-59596261D01*
X70302966Y-59596261D01*
X70242490Y-59626500D01*
X70212252Y-59656738D01*
X70182014Y-59717214D01*
X70182014Y-59807928D01*
X70212252Y-59868404D01*
X70242490Y-59898642D01*
X70302966Y-59928880D01*
X70544871Y-59928880D01*
X69940109Y-59656738D02*
X69909871Y-59626500D01*
X69849395Y-59596261D01*
X69698204Y-59596261D01*
X69637728Y-59626500D01*
X69607490Y-59656738D01*
X69577252Y-59717214D01*
X69577252Y-59777690D01*
X69607490Y-59868404D01*
X69970347Y-60231261D01*
X69577252Y-60231261D01*
X69335347Y-59656738D02*
X69305109Y-59626500D01*
X69244633Y-59596261D01*
X69093442Y-59596261D01*
X69032966Y-59626500D01*
X69002728Y-59656738D01*
X68972490Y-59717214D01*
X68972490Y-59777690D01*
X69002728Y-59868404D01*
X69365585Y-60231261D01*
X68972490Y-60231261D01*
X70258214Y-58072261D02*
X70469880Y-57769880D01*
X70621071Y-58072261D02*
X70621071Y-57437261D01*
X70379166Y-57437261D01*
X70318690Y-57467500D01*
X70288452Y-57497738D01*
X70258214Y-57558214D01*
X70258214Y-57648928D01*
X70288452Y-57709404D01*
X70318690Y-57739642D01*
X70379166Y-57769880D01*
X70621071Y-57769880D01*
X70016309Y-57497738D02*
X69986071Y-57467500D01*
X69925595Y-57437261D01*
X69774404Y-57437261D01*
X69713928Y-57467500D01*
X69683690Y-57497738D01*
X69653452Y-57558214D01*
X69653452Y-57618690D01*
X69683690Y-57709404D01*
X70046547Y-58072261D01*
X69653452Y-58072261D01*
X69441785Y-57437261D02*
X69048690Y-57437261D01*
X69260357Y-57679166D01*
X69169642Y-57679166D01*
X69109166Y-57709404D01*
X69078928Y-57739642D01*
X69048690Y-57800119D01*
X69048690Y-57951309D01*
X69078928Y-58011785D01*
X69109166Y-58042023D01*
X69169642Y-58072261D01*
X69351071Y-58072261D01*
X69411547Y-58042023D01*
X69441785Y-58011785D01*
X64162214Y-84158061D02*
X64373880Y-83855680D01*
X64525071Y-84158061D02*
X64525071Y-83523061D01*
X64283166Y-83523061D01*
X64222690Y-83553300D01*
X64192452Y-83583538D01*
X64162214Y-83644014D01*
X64162214Y-83734728D01*
X64192452Y-83795204D01*
X64222690Y-83825442D01*
X64283166Y-83855680D01*
X64525071Y-83855680D01*
X63950547Y-83523061D02*
X63557452Y-83523061D01*
X63769119Y-83764966D01*
X63678404Y-83764966D01*
X63617928Y-83795204D01*
X63587690Y-83825442D01*
X63557452Y-83885919D01*
X63557452Y-84037109D01*
X63587690Y-84097585D01*
X63617928Y-84127823D01*
X63678404Y-84158061D01*
X63859833Y-84158061D01*
X63920309Y-84127823D01*
X63950547Y-84097585D01*
X63164357Y-83523061D02*
X63103880Y-83523061D01*
X63043404Y-83553300D01*
X63013166Y-83583538D01*
X62982928Y-83644014D01*
X62952690Y-83764966D01*
X62952690Y-83916157D01*
X62982928Y-84037109D01*
X63013166Y-84097585D01*
X63043404Y-84127823D01*
X63103880Y-84158061D01*
X63164357Y-84158061D01*
X63224833Y-84127823D01*
X63255071Y-84097585D01*
X63285309Y-84037109D01*
X63315547Y-83916157D01*
X63315547Y-83764966D01*
X63285309Y-83644014D01*
X63255071Y-83583538D01*
X63224833Y-83553300D01*
X63164357Y-83523061D01*
X70182014Y-62110861D02*
X70393680Y-61808480D01*
X70544871Y-62110861D02*
X70544871Y-61475861D01*
X70302966Y-61475861D01*
X70242490Y-61506100D01*
X70212252Y-61536338D01*
X70182014Y-61596814D01*
X70182014Y-61687528D01*
X70212252Y-61748004D01*
X70242490Y-61778242D01*
X70302966Y-61808480D01*
X70544871Y-61808480D01*
X69940109Y-61536338D02*
X69909871Y-61506100D01*
X69849395Y-61475861D01*
X69698204Y-61475861D01*
X69637728Y-61506100D01*
X69607490Y-61536338D01*
X69577252Y-61596814D01*
X69577252Y-61657290D01*
X69607490Y-61748004D01*
X69970347Y-62110861D01*
X69577252Y-62110861D01*
X69032966Y-61475861D02*
X69153919Y-61475861D01*
X69214395Y-61506100D01*
X69244633Y-61536338D01*
X69305109Y-61627052D01*
X69335347Y-61748004D01*
X69335347Y-61989909D01*
X69305109Y-62050385D01*
X69274871Y-62080623D01*
X69214395Y-62110861D01*
X69093442Y-62110861D01*
X69032966Y-62080623D01*
X69002728Y-62050385D01*
X68972490Y-61989909D01*
X68972490Y-61838719D01*
X69002728Y-61778242D01*
X69032966Y-61748004D01*
X69093442Y-61717766D01*
X69214395Y-61717766D01*
X69274871Y-61748004D01*
X69305109Y-61778242D01*
X69335347Y-61838719D01*
X70182014Y-64346061D02*
X70393680Y-64043680D01*
X70544871Y-64346061D02*
X70544871Y-63711061D01*
X70302966Y-63711061D01*
X70242490Y-63741300D01*
X70212252Y-63771538D01*
X70182014Y-63832014D01*
X70182014Y-63922728D01*
X70212252Y-63983204D01*
X70242490Y-64013442D01*
X70302966Y-64043680D01*
X70544871Y-64043680D01*
X69940109Y-63771538D02*
X69909871Y-63741300D01*
X69849395Y-63711061D01*
X69698204Y-63711061D01*
X69637728Y-63741300D01*
X69607490Y-63771538D01*
X69577252Y-63832014D01*
X69577252Y-63892490D01*
X69607490Y-63983204D01*
X69970347Y-64346061D01*
X69577252Y-64346061D01*
X69214395Y-63983204D02*
X69274871Y-63952966D01*
X69305109Y-63922728D01*
X69335347Y-63862252D01*
X69335347Y-63832014D01*
X69305109Y-63771538D01*
X69274871Y-63741300D01*
X69214395Y-63711061D01*
X69093442Y-63711061D01*
X69032966Y-63741300D01*
X69002728Y-63771538D01*
X68972490Y-63832014D01*
X68972490Y-63862252D01*
X69002728Y-63922728D01*
X69032966Y-63952966D01*
X69093442Y-63983204D01*
X69214395Y-63983204D01*
X69274871Y-64013442D01*
X69305109Y-64043680D01*
X69335347Y-64104157D01*
X69335347Y-64225109D01*
X69305109Y-64285585D01*
X69274871Y-64315823D01*
X69214395Y-64346061D01*
X69093442Y-64346061D01*
X69032966Y-64315823D01*
X69002728Y-64285585D01*
X68972490Y-64225109D01*
X68972490Y-64104157D01*
X69002728Y-64043680D01*
X69032966Y-64013442D01*
X69093442Y-63983204D01*
X69496214Y-93632261D02*
X69707880Y-93329880D01*
X69859071Y-93632261D02*
X69859071Y-92997261D01*
X69617166Y-92997261D01*
X69556690Y-93027500D01*
X69526452Y-93057738D01*
X69496214Y-93118214D01*
X69496214Y-93208928D01*
X69526452Y-93269404D01*
X69556690Y-93299642D01*
X69617166Y-93329880D01*
X69859071Y-93329880D01*
X69254309Y-93057738D02*
X69224071Y-93027500D01*
X69163595Y-92997261D01*
X69012404Y-92997261D01*
X68951928Y-93027500D01*
X68921690Y-93057738D01*
X68891452Y-93118214D01*
X68891452Y-93178690D01*
X68921690Y-93269404D01*
X69284547Y-93632261D01*
X68891452Y-93632261D01*
X68589071Y-93632261D02*
X68468119Y-93632261D01*
X68407642Y-93602023D01*
X68377404Y-93571785D01*
X68316928Y-93481071D01*
X68286690Y-93360119D01*
X68286690Y-93118214D01*
X68316928Y-93057738D01*
X68347166Y-93027500D01*
X68407642Y-92997261D01*
X68528595Y-92997261D01*
X68589071Y-93027500D01*
X68619309Y-93057738D01*
X68649547Y-93118214D01*
X68649547Y-93269404D01*
X68619309Y-93329880D01*
X68589071Y-93360119D01*
X68528595Y-93390357D01*
X68407642Y-93390357D01*
X68347166Y-93360119D01*
X68316928Y-93329880D01*
X68286690Y-93269404D01*
X62257214Y-75801461D02*
X62468880Y-75499080D01*
X62620071Y-75801461D02*
X62620071Y-75166461D01*
X62378166Y-75166461D01*
X62317690Y-75196700D01*
X62287452Y-75226938D01*
X62257214Y-75287414D01*
X62257214Y-75378128D01*
X62287452Y-75438604D01*
X62317690Y-75468842D01*
X62378166Y-75499080D01*
X62620071Y-75499080D01*
X62045547Y-75166461D02*
X61652452Y-75166461D01*
X61864119Y-75408366D01*
X61773404Y-75408366D01*
X61712928Y-75438604D01*
X61682690Y-75468842D01*
X61652452Y-75529319D01*
X61652452Y-75680509D01*
X61682690Y-75740985D01*
X61712928Y-75771223D01*
X61773404Y-75801461D01*
X61954833Y-75801461D01*
X62015309Y-75771223D01*
X62045547Y-75740985D01*
X61108166Y-75378128D02*
X61108166Y-75801461D01*
X61259357Y-75136223D02*
X61410547Y-75589795D01*
X61017452Y-75589795D01*
X56072314Y-81440261D02*
X56283980Y-81137880D01*
X56435171Y-81440261D02*
X56435171Y-80805261D01*
X56193266Y-80805261D01*
X56132790Y-80835500D01*
X56102552Y-80865738D01*
X56072314Y-80926214D01*
X56072314Y-81016928D01*
X56102552Y-81077404D01*
X56132790Y-81107642D01*
X56193266Y-81137880D01*
X56435171Y-81137880D01*
X55860647Y-80805261D02*
X55467552Y-80805261D01*
X55679219Y-81047166D01*
X55588504Y-81047166D01*
X55528028Y-81077404D01*
X55497790Y-81107642D01*
X55467552Y-81168119D01*
X55467552Y-81319309D01*
X55497790Y-81379785D01*
X55528028Y-81410023D01*
X55588504Y-81440261D01*
X55769933Y-81440261D01*
X55830409Y-81410023D01*
X55860647Y-81379785D01*
X54893028Y-80805261D02*
X55195409Y-80805261D01*
X55225647Y-81107642D01*
X55195409Y-81077404D01*
X55134933Y-81047166D01*
X54983742Y-81047166D01*
X54923266Y-81077404D01*
X54893028Y-81107642D01*
X54862790Y-81168119D01*
X54862790Y-81319309D01*
X54893028Y-81379785D01*
X54923266Y-81410023D01*
X54983742Y-81440261D01*
X55134933Y-81440261D01*
X55195409Y-81410023D01*
X55225647Y-81379785D01*
X69496214Y-91219261D02*
X69707880Y-90916880D01*
X69859071Y-91219261D02*
X69859071Y-90584261D01*
X69617166Y-90584261D01*
X69556690Y-90614500D01*
X69526452Y-90644738D01*
X69496214Y-90705214D01*
X69496214Y-90795928D01*
X69526452Y-90856404D01*
X69556690Y-90886642D01*
X69617166Y-90916880D01*
X69859071Y-90916880D01*
X69284547Y-90584261D02*
X68891452Y-90584261D01*
X69103119Y-90826166D01*
X69012404Y-90826166D01*
X68951928Y-90856404D01*
X68921690Y-90886642D01*
X68891452Y-90947119D01*
X68891452Y-91098309D01*
X68921690Y-91158785D01*
X68951928Y-91189023D01*
X69012404Y-91219261D01*
X69193833Y-91219261D01*
X69254309Y-91189023D01*
X69284547Y-91158785D01*
X68286690Y-91219261D02*
X68649547Y-91219261D01*
X68468119Y-91219261D02*
X68468119Y-90584261D01*
X68528595Y-90674976D01*
X68589071Y-90735452D01*
X68649547Y-90765690D01*
X79656214Y-90711261D02*
X79867880Y-90408880D01*
X80019071Y-90711261D02*
X80019071Y-90076261D01*
X79777166Y-90076261D01*
X79716690Y-90106500D01*
X79686452Y-90136738D01*
X79656214Y-90197214D01*
X79656214Y-90287928D01*
X79686452Y-90348404D01*
X79716690Y-90378642D01*
X79777166Y-90408880D01*
X80019071Y-90408880D01*
X79444547Y-90076261D02*
X79051452Y-90076261D01*
X79263119Y-90318166D01*
X79172404Y-90318166D01*
X79111928Y-90348404D01*
X79081690Y-90378642D01*
X79051452Y-90439119D01*
X79051452Y-90590309D01*
X79081690Y-90650785D01*
X79111928Y-90681023D01*
X79172404Y-90711261D01*
X79353833Y-90711261D01*
X79414309Y-90681023D01*
X79444547Y-90650785D01*
X78809547Y-90136738D02*
X78779309Y-90106500D01*
X78718833Y-90076261D01*
X78567642Y-90076261D01*
X78507166Y-90106500D01*
X78476928Y-90136738D01*
X78446690Y-90197214D01*
X78446690Y-90257690D01*
X78476928Y-90348404D01*
X78839785Y-90711261D01*
X78446690Y-90711261D01*
X79707014Y-93556061D02*
X79918680Y-93253680D01*
X80069871Y-93556061D02*
X80069871Y-92921061D01*
X79827966Y-92921061D01*
X79767490Y-92951300D01*
X79737252Y-92981538D01*
X79707014Y-93042014D01*
X79707014Y-93132728D01*
X79737252Y-93193204D01*
X79767490Y-93223442D01*
X79827966Y-93253680D01*
X80069871Y-93253680D01*
X79495347Y-92921061D02*
X79102252Y-92921061D01*
X79313919Y-93162966D01*
X79223204Y-93162966D01*
X79162728Y-93193204D01*
X79132490Y-93223442D01*
X79102252Y-93283919D01*
X79102252Y-93435109D01*
X79132490Y-93495585D01*
X79162728Y-93525823D01*
X79223204Y-93556061D01*
X79404633Y-93556061D01*
X79465109Y-93525823D01*
X79495347Y-93495585D01*
X78890585Y-92921061D02*
X78497490Y-92921061D01*
X78709157Y-93162966D01*
X78618442Y-93162966D01*
X78557966Y-93193204D01*
X78527728Y-93223442D01*
X78497490Y-93283919D01*
X78497490Y-93435109D01*
X78527728Y-93495585D01*
X78557966Y-93525823D01*
X78618442Y-93556061D01*
X78799871Y-93556061D01*
X78860347Y-93525823D01*
X78890585Y-93495585D01*
X52426809Y-46134261D02*
X52426809Y-46648309D01*
X52396571Y-46708785D01*
X52366333Y-46739023D01*
X52305857Y-46769261D01*
X52184904Y-46769261D01*
X52124428Y-46739023D01*
X52094190Y-46708785D01*
X52063952Y-46648309D01*
X52063952Y-46134261D01*
X51459190Y-46134261D02*
X51761571Y-46134261D01*
X51791809Y-46436642D01*
X51761571Y-46406404D01*
X51701095Y-46376166D01*
X51549904Y-46376166D01*
X51489428Y-46406404D01*
X51459190Y-46436642D01*
X51428952Y-46497119D01*
X51428952Y-46648309D01*
X51459190Y-46708785D01*
X51489428Y-46739023D01*
X51549904Y-46769261D01*
X51701095Y-46769261D01*
X51761571Y-46739023D01*
X51791809Y-46708785D01*
X45063833Y-94521261D02*
X45275500Y-94218880D01*
X45426690Y-94521261D02*
X45426690Y-93886261D01*
X45184785Y-93886261D01*
X45124309Y-93916500D01*
X45094071Y-93946738D01*
X45063833Y-94007214D01*
X45063833Y-94097928D01*
X45094071Y-94158404D01*
X45124309Y-94188642D01*
X45184785Y-94218880D01*
X45426690Y-94218880D01*
X44852166Y-93886261D02*
X44459071Y-93886261D01*
X44670738Y-94128166D01*
X44580023Y-94128166D01*
X44519547Y-94158404D01*
X44489309Y-94188642D01*
X44459071Y-94249119D01*
X44459071Y-94400309D01*
X44489309Y-94460785D01*
X44519547Y-94491023D01*
X44580023Y-94521261D01*
X44761452Y-94521261D01*
X44821928Y-94491023D01*
X44852166Y-94460785D01*
X45063833Y-86266261D02*
X45275500Y-85963880D01*
X45426690Y-86266261D02*
X45426690Y-85631261D01*
X45184785Y-85631261D01*
X45124309Y-85661500D01*
X45094071Y-85691738D01*
X45063833Y-85752214D01*
X45063833Y-85842928D01*
X45094071Y-85903404D01*
X45124309Y-85933642D01*
X45184785Y-85963880D01*
X45426690Y-85963880D01*
X44519547Y-85842928D02*
X44519547Y-86266261D01*
X44670738Y-85601023D02*
X44821928Y-86054595D01*
X44428833Y-86054595D01*
X45063833Y-92235261D02*
X45275500Y-91932880D01*
X45426690Y-92235261D02*
X45426690Y-91600261D01*
X45184785Y-91600261D01*
X45124309Y-91630500D01*
X45094071Y-91660738D01*
X45063833Y-91721214D01*
X45063833Y-91811928D01*
X45094071Y-91872404D01*
X45124309Y-91902642D01*
X45184785Y-91932880D01*
X45426690Y-91932880D01*
X44489309Y-91600261D02*
X44791690Y-91600261D01*
X44821928Y-91902642D01*
X44791690Y-91872404D01*
X44731214Y-91842166D01*
X44580023Y-91842166D01*
X44519547Y-91872404D01*
X44489309Y-91902642D01*
X44459071Y-91963119D01*
X44459071Y-92114309D01*
X44489309Y-92174785D01*
X44519547Y-92205023D01*
X44580023Y-92235261D01*
X44731214Y-92235261D01*
X44791690Y-92205023D01*
X44821928Y-92174785D01*
X45063833Y-88425261D02*
X45275500Y-88122880D01*
X45426690Y-88425261D02*
X45426690Y-87790261D01*
X45184785Y-87790261D01*
X45124309Y-87820500D01*
X45094071Y-87850738D01*
X45063833Y-87911214D01*
X45063833Y-88001928D01*
X45094071Y-88062404D01*
X45124309Y-88092642D01*
X45184785Y-88122880D01*
X45426690Y-88122880D01*
X44519547Y-87790261D02*
X44640500Y-87790261D01*
X44700976Y-87820500D01*
X44731214Y-87850738D01*
X44791690Y-87941452D01*
X44821928Y-88062404D01*
X44821928Y-88304309D01*
X44791690Y-88364785D01*
X44761452Y-88395023D01*
X44700976Y-88425261D01*
X44580023Y-88425261D01*
X44519547Y-88395023D01*
X44489309Y-88364785D01*
X44459071Y-88304309D01*
X44459071Y-88153119D01*
X44489309Y-88092642D01*
X44519547Y-88062404D01*
X44580023Y-88032166D01*
X44700976Y-88032166D01*
X44761452Y-88062404D01*
X44791690Y-88092642D01*
X44821928Y-88153119D01*
X45063833Y-90457261D02*
X45275500Y-90154880D01*
X45426690Y-90457261D02*
X45426690Y-89822261D01*
X45184785Y-89822261D01*
X45124309Y-89852500D01*
X45094071Y-89882738D01*
X45063833Y-89943214D01*
X45063833Y-90033928D01*
X45094071Y-90094404D01*
X45124309Y-90124642D01*
X45184785Y-90154880D01*
X45426690Y-90154880D01*
X44852166Y-89822261D02*
X44428833Y-89822261D01*
X44700976Y-90457261D01*
X52426809Y-87282261D02*
X52426809Y-87796309D01*
X52396571Y-87856785D01*
X52366333Y-87887023D01*
X52305857Y-87917261D01*
X52184904Y-87917261D01*
X52124428Y-87887023D01*
X52094190Y-87856785D01*
X52063952Y-87796309D01*
X52063952Y-87282261D01*
X51428952Y-87917261D02*
X51791809Y-87917261D01*
X51610380Y-87917261D02*
X51610380Y-87282261D01*
X51670857Y-87372976D01*
X51731333Y-87433452D01*
X51791809Y-87463690D01*
X72290214Y-25372785D02*
X72320452Y-25403023D01*
X72411166Y-25433261D01*
X72471642Y-25433261D01*
X72562357Y-25403023D01*
X72622833Y-25342547D01*
X72653071Y-25282071D01*
X72683309Y-25161119D01*
X72683309Y-25070404D01*
X72653071Y-24949452D01*
X72622833Y-24888976D01*
X72562357Y-24828500D01*
X72471642Y-24798261D01*
X72411166Y-24798261D01*
X72320452Y-24828500D01*
X72290214Y-24858738D01*
X71685452Y-25433261D02*
X72048309Y-25433261D01*
X71866880Y-25433261D02*
X71866880Y-24798261D01*
X71927357Y-24888976D01*
X71987833Y-24949452D01*
X72048309Y-24979690D01*
X71322595Y-25070404D02*
X71383071Y-25040166D01*
X71413309Y-25009928D01*
X71443547Y-24949452D01*
X71443547Y-24919214D01*
X71413309Y-24858738D01*
X71383071Y-24828500D01*
X71322595Y-24798261D01*
X71201642Y-24798261D01*
X71141166Y-24828500D01*
X71110928Y-24858738D01*
X71080690Y-24919214D01*
X71080690Y-24949452D01*
X71110928Y-25009928D01*
X71141166Y-25040166D01*
X71201642Y-25070404D01*
X71322595Y-25070404D01*
X71383071Y-25100642D01*
X71413309Y-25130880D01*
X71443547Y-25191357D01*
X71443547Y-25312309D01*
X71413309Y-25372785D01*
X71383071Y-25403023D01*
X71322595Y-25433261D01*
X71201642Y-25433261D01*
X71141166Y-25403023D01*
X71110928Y-25372785D01*
X71080690Y-25312309D01*
X71080690Y-25191357D01*
X71110928Y-25130880D01*
X71141166Y-25100642D01*
X71201642Y-25070404D01*
X55018214Y-25245785D02*
X55048452Y-25276023D01*
X55139166Y-25306261D01*
X55199642Y-25306261D01*
X55290357Y-25276023D01*
X55350833Y-25215547D01*
X55381071Y-25155071D01*
X55411309Y-25034119D01*
X55411309Y-24943404D01*
X55381071Y-24822452D01*
X55350833Y-24761976D01*
X55290357Y-24701500D01*
X55199642Y-24671261D01*
X55139166Y-24671261D01*
X55048452Y-24701500D01*
X55018214Y-24731738D01*
X54413452Y-25306261D02*
X54776309Y-25306261D01*
X54594880Y-25306261D02*
X54594880Y-24671261D01*
X54655357Y-24761976D01*
X54715833Y-24822452D01*
X54776309Y-24852690D01*
X54111071Y-25306261D02*
X53990119Y-25306261D01*
X53929642Y-25276023D01*
X53899404Y-25245785D01*
X53838928Y-25155071D01*
X53808690Y-25034119D01*
X53808690Y-24792214D01*
X53838928Y-24731738D01*
X53869166Y-24701500D01*
X53929642Y-24671261D01*
X54050595Y-24671261D01*
X54111071Y-24701500D01*
X54141309Y-24731738D01*
X54171547Y-24792214D01*
X54171547Y-24943404D01*
X54141309Y-25003880D01*
X54111071Y-25034119D01*
X54050595Y-25064357D01*
X53929642Y-25064357D01*
X53869166Y-25034119D01*
X53838928Y-25003880D01*
X53808690Y-24943404D01*
X71299614Y-38237885D02*
X71329852Y-38268123D01*
X71420566Y-38298361D01*
X71481042Y-38298361D01*
X71571757Y-38268123D01*
X71632233Y-38207647D01*
X71662471Y-38147171D01*
X71692709Y-38026219D01*
X71692709Y-37935504D01*
X71662471Y-37814552D01*
X71632233Y-37754076D01*
X71571757Y-37693600D01*
X71481042Y-37663361D01*
X71420566Y-37663361D01*
X71329852Y-37693600D01*
X71299614Y-37723838D01*
X71057709Y-37723838D02*
X71027471Y-37693600D01*
X70966995Y-37663361D01*
X70815804Y-37663361D01*
X70755328Y-37693600D01*
X70725090Y-37723838D01*
X70694852Y-37784314D01*
X70694852Y-37844790D01*
X70725090Y-37935504D01*
X71087947Y-38298361D01*
X70694852Y-38298361D01*
X70452947Y-37723838D02*
X70422709Y-37693600D01*
X70362233Y-37663361D01*
X70211042Y-37663361D01*
X70150566Y-37693600D01*
X70120328Y-37723838D01*
X70090090Y-37784314D01*
X70090090Y-37844790D01*
X70120328Y-37935504D01*
X70483185Y-38298361D01*
X70090090Y-38298361D01*
X69496214Y-35659785D02*
X69526452Y-35690023D01*
X69617166Y-35720261D01*
X69677642Y-35720261D01*
X69768357Y-35690023D01*
X69828833Y-35629547D01*
X69859071Y-35569071D01*
X69889309Y-35448119D01*
X69889309Y-35357404D01*
X69859071Y-35236452D01*
X69828833Y-35175976D01*
X69768357Y-35115500D01*
X69677642Y-35085261D01*
X69617166Y-35085261D01*
X69526452Y-35115500D01*
X69496214Y-35145738D01*
X69254309Y-35145738D02*
X69224071Y-35115500D01*
X69163595Y-35085261D01*
X69012404Y-35085261D01*
X68951928Y-35115500D01*
X68921690Y-35145738D01*
X68891452Y-35206214D01*
X68891452Y-35266690D01*
X68921690Y-35357404D01*
X69284547Y-35720261D01*
X68891452Y-35720261D01*
X68679785Y-35085261D02*
X68286690Y-35085261D01*
X68498357Y-35327166D01*
X68407642Y-35327166D01*
X68347166Y-35357404D01*
X68316928Y-35387642D01*
X68286690Y-35448119D01*
X68286690Y-35599309D01*
X68316928Y-35659785D01*
X68347166Y-35690023D01*
X68407642Y-35720261D01*
X68589071Y-35720261D01*
X68649547Y-35690023D01*
X68679785Y-35659785D01*
X63019214Y-25372785D02*
X63049452Y-25403023D01*
X63140166Y-25433261D01*
X63200642Y-25433261D01*
X63291357Y-25403023D01*
X63351833Y-25342547D01*
X63382071Y-25282071D01*
X63412309Y-25161119D01*
X63412309Y-25070404D01*
X63382071Y-24949452D01*
X63351833Y-24888976D01*
X63291357Y-24828500D01*
X63200642Y-24798261D01*
X63140166Y-24798261D01*
X63049452Y-24828500D01*
X63019214Y-24858738D01*
X62777309Y-24858738D02*
X62747071Y-24828500D01*
X62686595Y-24798261D01*
X62535404Y-24798261D01*
X62474928Y-24828500D01*
X62444690Y-24858738D01*
X62414452Y-24919214D01*
X62414452Y-24979690D01*
X62444690Y-25070404D01*
X62807547Y-25433261D01*
X62414452Y-25433261D01*
X61870166Y-25009928D02*
X61870166Y-25433261D01*
X62021357Y-24768023D02*
X62172547Y-25221595D01*
X61779452Y-25221595D01*
X66524414Y-46327785D02*
X66554652Y-46358023D01*
X66645366Y-46388261D01*
X66705842Y-46388261D01*
X66796557Y-46358023D01*
X66857033Y-46297547D01*
X66887271Y-46237071D01*
X66917509Y-46116119D01*
X66917509Y-46025404D01*
X66887271Y-45904452D01*
X66857033Y-45843976D01*
X66796557Y-45783500D01*
X66705842Y-45753261D01*
X66645366Y-45753261D01*
X66554652Y-45783500D01*
X66524414Y-45813738D01*
X65919652Y-46388261D02*
X66282509Y-46388261D01*
X66101080Y-46388261D02*
X66101080Y-45753261D01*
X66161557Y-45843976D01*
X66222033Y-45904452D01*
X66282509Y-45934690D01*
X65375366Y-45753261D02*
X65496319Y-45753261D01*
X65556795Y-45783500D01*
X65587033Y-45813738D01*
X65647509Y-45904452D01*
X65677747Y-46025404D01*
X65677747Y-46267309D01*
X65647509Y-46327785D01*
X65617271Y-46358023D01*
X65556795Y-46388261D01*
X65435842Y-46388261D01*
X65375366Y-46358023D01*
X65345128Y-46327785D01*
X65314890Y-46267309D01*
X65314890Y-46116119D01*
X65345128Y-46055642D01*
X65375366Y-46025404D01*
X65435842Y-45995166D01*
X65556795Y-45995166D01*
X65617271Y-46025404D01*
X65647509Y-46055642D01*
X65677747Y-46116119D01*
X72620414Y-46327785D02*
X72650652Y-46358023D01*
X72741366Y-46388261D01*
X72801842Y-46388261D01*
X72892557Y-46358023D01*
X72953033Y-46297547D01*
X72983271Y-46237071D01*
X73013509Y-46116119D01*
X73013509Y-46025404D01*
X72983271Y-45904452D01*
X72953033Y-45843976D01*
X72892557Y-45783500D01*
X72801842Y-45753261D01*
X72741366Y-45753261D01*
X72650652Y-45783500D01*
X72620414Y-45813738D01*
X72015652Y-46388261D02*
X72378509Y-46388261D01*
X72197080Y-46388261D02*
X72197080Y-45753261D01*
X72257557Y-45843976D01*
X72318033Y-45904452D01*
X72378509Y-45934690D01*
X71803985Y-45753261D02*
X71380652Y-45753261D01*
X71652795Y-46388261D01*
X70648890Y-46388261D02*
X70648890Y-45753261D01*
X70497700Y-45753261D01*
X70406985Y-45783500D01*
X70346509Y-45843976D01*
X70316271Y-45904452D01*
X70286033Y-46025404D01*
X70286033Y-46116119D01*
X70316271Y-46237071D01*
X70346509Y-46297547D01*
X70406985Y-46358023D01*
X70497700Y-46388261D01*
X70648890Y-46388261D01*
X70074366Y-45753261D02*
X69681271Y-45753261D01*
X69892938Y-45995166D01*
X69802223Y-45995166D01*
X69741747Y-46025404D01*
X69711509Y-46055642D01*
X69681271Y-46116119D01*
X69681271Y-46267309D01*
X69711509Y-46327785D01*
X69741747Y-46358023D01*
X69802223Y-46388261D01*
X69983652Y-46388261D01*
X70044128Y-46358023D01*
X70074366Y-46327785D01*
X57128833Y-94079785D02*
X57159071Y-94110023D01*
X57249785Y-94140261D01*
X57310261Y-94140261D01*
X57400976Y-94110023D01*
X57461452Y-94049547D01*
X57491690Y-93989071D01*
X57521928Y-93868119D01*
X57521928Y-93777404D01*
X57491690Y-93656452D01*
X57461452Y-93595976D01*
X57400976Y-93535500D01*
X57310261Y-93505261D01*
X57249785Y-93505261D01*
X57159071Y-93535500D01*
X57128833Y-93565738D01*
X56584547Y-93716928D02*
X56584547Y-94140261D01*
X56735738Y-93475023D02*
X56886928Y-93928595D01*
X56493833Y-93928595D01*
X55780214Y-86078785D02*
X55810452Y-86109023D01*
X55901166Y-86139261D01*
X55961642Y-86139261D01*
X56052357Y-86109023D01*
X56112833Y-86048547D01*
X56143071Y-85988071D01*
X56173309Y-85867119D01*
X56173309Y-85776404D01*
X56143071Y-85655452D01*
X56112833Y-85594976D01*
X56052357Y-85534500D01*
X55961642Y-85504261D01*
X55901166Y-85504261D01*
X55810452Y-85534500D01*
X55780214Y-85564738D01*
X55175452Y-86139261D02*
X55538309Y-86139261D01*
X55356880Y-86139261D02*
X55356880Y-85504261D01*
X55417357Y-85594976D01*
X55477833Y-85655452D01*
X55538309Y-85685690D01*
X54933547Y-85564738D02*
X54903309Y-85534500D01*
X54842833Y-85504261D01*
X54691642Y-85504261D01*
X54631166Y-85534500D01*
X54600928Y-85564738D01*
X54570690Y-85625214D01*
X54570690Y-85685690D01*
X54600928Y-85776404D01*
X54963785Y-86139261D01*
X54570690Y-86139261D01*
X79707014Y-89507785D02*
X79737252Y-89538023D01*
X79827966Y-89568261D01*
X79888442Y-89568261D01*
X79979157Y-89538023D01*
X80039633Y-89477547D01*
X80069871Y-89417071D01*
X80100109Y-89296119D01*
X80100109Y-89205404D01*
X80069871Y-89084452D01*
X80039633Y-89023976D01*
X79979157Y-88963500D01*
X79888442Y-88933261D01*
X79827966Y-88933261D01*
X79737252Y-88963500D01*
X79707014Y-88993738D01*
X79465109Y-88993738D02*
X79434871Y-88963500D01*
X79374395Y-88933261D01*
X79223204Y-88933261D01*
X79162728Y-88963500D01*
X79132490Y-88993738D01*
X79102252Y-89054214D01*
X79102252Y-89114690D01*
X79132490Y-89205404D01*
X79495347Y-89568261D01*
X79102252Y-89568261D01*
X78709157Y-88933261D02*
X78648680Y-88933261D01*
X78588204Y-88963500D01*
X78557966Y-88993738D01*
X78527728Y-89054214D01*
X78497490Y-89175166D01*
X78497490Y-89326357D01*
X78527728Y-89447309D01*
X78557966Y-89507785D01*
X78588204Y-89538023D01*
X78648680Y-89568261D01*
X78709157Y-89568261D01*
X78769633Y-89538023D01*
X78799871Y-89507785D01*
X78830109Y-89447309D01*
X78860347Y-89326357D01*
X78860347Y-89175166D01*
X78830109Y-89054214D01*
X78799871Y-88993738D01*
X78769633Y-88963500D01*
X78709157Y-88933261D01*
X69547014Y-90193585D02*
X69577252Y-90223823D01*
X69667966Y-90254061D01*
X69728442Y-90254061D01*
X69819157Y-90223823D01*
X69879633Y-90163347D01*
X69909871Y-90102871D01*
X69940109Y-89981919D01*
X69940109Y-89891204D01*
X69909871Y-89770252D01*
X69879633Y-89709776D01*
X69819157Y-89649300D01*
X69728442Y-89619061D01*
X69667966Y-89619061D01*
X69577252Y-89649300D01*
X69547014Y-89679538D01*
X69305109Y-89679538D02*
X69274871Y-89649300D01*
X69214395Y-89619061D01*
X69063204Y-89619061D01*
X69002728Y-89649300D01*
X68972490Y-89679538D01*
X68942252Y-89740014D01*
X68942252Y-89800490D01*
X68972490Y-89891204D01*
X69335347Y-90254061D01*
X68942252Y-90254061D01*
X68397966Y-89619061D02*
X68518919Y-89619061D01*
X68579395Y-89649300D01*
X68609633Y-89679538D01*
X68670109Y-89770252D01*
X68700347Y-89891204D01*
X68700347Y-90133109D01*
X68670109Y-90193585D01*
X68639871Y-90223823D01*
X68579395Y-90254061D01*
X68458442Y-90254061D01*
X68397966Y-90223823D01*
X68367728Y-90193585D01*
X68337490Y-90133109D01*
X68337490Y-89981919D01*
X68367728Y-89921442D01*
X68397966Y-89891204D01*
X68458442Y-89860966D01*
X68579395Y-89860966D01*
X68639871Y-89891204D01*
X68670109Y-89921442D01*
X68700347Y-89981919D01*
X74524809Y-59393061D02*
X74524809Y-59907109D01*
X74494571Y-59967585D01*
X74464333Y-59997823D01*
X74403857Y-60028061D01*
X74282904Y-60028061D01*
X74222428Y-59997823D01*
X74192190Y-59967585D01*
X74161952Y-59907109D01*
X74161952Y-59393061D01*
X73587428Y-59393061D02*
X73708380Y-59393061D01*
X73768857Y-59423300D01*
X73799095Y-59453538D01*
X73859571Y-59544252D01*
X73889809Y-59665204D01*
X73889809Y-59907109D01*
X73859571Y-59967585D01*
X73829333Y-59997823D01*
X73768857Y-60028061D01*
X73647904Y-60028061D01*
X73587428Y-59997823D01*
X73557190Y-59967585D01*
X73526952Y-59907109D01*
X73526952Y-59755919D01*
X73557190Y-59695442D01*
X73587428Y-59665204D01*
X73647904Y-59634966D01*
X73768857Y-59634966D01*
X73829333Y-59665204D01*
X73859571Y-59695442D01*
X73889809Y-59755919D01*
D12*
X60721833Y-98829880D02*
X60721833Y-99544166D01*
X60769452Y-99687023D01*
X60864690Y-99782261D01*
X61007547Y-99829880D01*
X61102785Y-99829880D01*
X60293261Y-98925119D02*
X60245642Y-98877500D01*
X60150404Y-98829880D01*
X59912309Y-98829880D01*
X59817071Y-98877500D01*
X59769452Y-98925119D01*
X59721833Y-99020357D01*
X59721833Y-99115595D01*
X59769452Y-99258452D01*
X60340880Y-99829880D01*
X59721833Y-99829880D01*
D10*
X56034214Y-35659785D02*
X56064452Y-35690023D01*
X56155166Y-35720261D01*
X56215642Y-35720261D01*
X56306357Y-35690023D01*
X56366833Y-35629547D01*
X56397071Y-35569071D01*
X56427309Y-35448119D01*
X56427309Y-35357404D01*
X56397071Y-35236452D01*
X56366833Y-35175976D01*
X56306357Y-35115500D01*
X56215642Y-35085261D01*
X56155166Y-35085261D01*
X56064452Y-35115500D01*
X56034214Y-35145738D01*
X55792309Y-35145738D02*
X55762071Y-35115500D01*
X55701595Y-35085261D01*
X55550404Y-35085261D01*
X55489928Y-35115500D01*
X55459690Y-35145738D01*
X55429452Y-35206214D01*
X55429452Y-35266690D01*
X55459690Y-35357404D01*
X55822547Y-35720261D01*
X55429452Y-35720261D01*
X55066595Y-35357404D02*
X55127071Y-35327166D01*
X55157309Y-35296928D01*
X55187547Y-35236452D01*
X55187547Y-35206214D01*
X55157309Y-35145738D01*
X55127071Y-35115500D01*
X55066595Y-35085261D01*
X54945642Y-35085261D01*
X54885166Y-35115500D01*
X54854928Y-35145738D01*
X54824690Y-35206214D01*
X54824690Y-35236452D01*
X54854928Y-35296928D01*
X54885166Y-35327166D01*
X54945642Y-35357404D01*
X55066595Y-35357404D01*
X55127071Y-35387642D01*
X55157309Y-35417880D01*
X55187547Y-35478357D01*
X55187547Y-35599309D01*
X55157309Y-35659785D01*
X55127071Y-35690023D01*
X55066595Y-35720261D01*
X54945642Y-35720261D01*
X54885166Y-35690023D01*
X54854928Y-35659785D01*
X54824690Y-35599309D01*
X54824690Y-35478357D01*
X54854928Y-35417880D01*
X54885166Y-35387642D01*
X54945642Y-35357404D01*
X68179890Y-85224861D02*
X68179890Y-84589861D01*
X68028700Y-84589861D01*
X67937985Y-84620100D01*
X67877509Y-84680576D01*
X67847271Y-84741052D01*
X67817033Y-84862004D01*
X67817033Y-84952719D01*
X67847271Y-85073671D01*
X67877509Y-85134147D01*
X67937985Y-85194623D01*
X68028700Y-85224861D01*
X68179890Y-85224861D01*
X67575128Y-84650338D02*
X67544890Y-84620100D01*
X67484414Y-84589861D01*
X67333223Y-84589861D01*
X67272747Y-84620100D01*
X67242509Y-84650338D01*
X67212271Y-84710814D01*
X67212271Y-84771290D01*
X67242509Y-84862004D01*
X67605366Y-85224861D01*
X67212271Y-85224861D01*
M02*
