M48
; DRILL file {KiCad (5.1.4)-1} date 12/2/2020 10:45:34 AM
; FORMAT={-:-/ absolute / inch / decimal}
; #@! TF.CreationDate,2020-12-02T10:45:34+01:00
; #@! TF.GenerationSoftware,Kicad,Pcbnew,(5.1.4)-1
; #@! TF.FileFunction,Plated,1,2,PTH
FMAT,2
INCH
T1C0.0120
T2C0.0236
T3C0.0335
T4C0.0354
T5C0.0360
T6C0.0390
T7C0.0394
T8C0.0433
T9C0.0512
T10C0.0984
%
G90
G05
T1
X1.772Y-3.012
X1.775Y-1.175
X1.775Y-1.35
X1.775Y-1.525
X1.775Y-1.725
X1.775Y-1.9
X1.775Y-2.675
X1.775Y-2.75
X1.775Y-2.925
X1.775Y-3.15
X1.775Y-3.25
X1.775Y-3.35
X1.775Y-3.65
X1.775Y-4.075
X1.775Y-4.2
X1.78Y-3.496
X1.842Y-3.522
X1.875Y-2.675
X1.876Y-3.004
X1.925Y-3.85
X1.925Y-4.375
X1.95Y-0.9
X1.95Y-2.675
X1.97Y-3.578
X1.972Y-1.5482
X1.982Y-2.807
X1.982Y-3.494
X1.985Y-2.884
X1.9895Y-2.7055
X1.9998Y-3.3353
X2.0014Y-1.5606
X2.03Y-2.59
X2.031Y-2.807
X2.033Y-2.882
X2.042Y-2.924
X2.0554Y-2.41
X2.08Y-1.48
X2.087Y-1.8251
X2.092Y-3.34
X2.0954Y-1.7601
X2.1Y-2.572
X2.1002Y-2.11
X2.1052Y-3.3914
X2.125Y-0.9
X2.1298Y-2.15
X2.13Y-1.28
X2.13Y-1.328
X2.13Y-1.44
X2.13Y-1.52
X2.135Y-4.2
X2.1375Y-3.73
X2.1375Y-3.758
X2.14Y-2.015
X2.14Y-3.385
X2.1444Y-3.5525
X2.148Y-2.924
X2.17Y-3.73
X2.17Y-3.758
X2.17Y-4.2
X2.175Y-3.9
X2.18Y-1.378
X2.195Y-2.1074
X2.202Y-3.73
X2.202Y-3.758
X2.203Y-2.018
X2.212Y-2.3
X2.22Y-3.385
X2.2205Y-1.5295
X2.225Y-3.555
X2.23Y-1.1
X2.23Y-1.28
X2.23Y-2.105
X2.234Y-3.73
X2.234Y-3.758
X2.2431Y-3.18
X2.2431Y-3.256
X2.27Y-2.055
X2.27Y-4.055
X2.278Y-2.725
X2.285Y-2.1
X2.2949Y-2.0088
X2.297Y-3.011
X2.3Y-0.9
X2.32Y-2.04
X2.325Y-4.045
X2.328Y-2.214
X2.328Y-2.412
X2.3329Y-3.142
X2.34Y-1.855
X2.343Y-2.72
X2.35Y-3.606
X2.3558Y-1.795
X2.364Y-2.1526
X2.365Y-1.458
X2.371Y-2.742
X2.375Y-4.375
X2.39Y-2.015
X2.3924Y-2.5319
X2.4054Y-2.7591
X2.409Y-2.791
X2.4132Y-2.7282
X2.44Y-3.61
X2.446Y-2.18
X2.446Y-2.306
X2.45Y-2.528
X2.4599Y-3.7139
X2.464Y-3.508
X2.475Y-3.925
X2.48Y-1.561
X2.4834Y-3.1314
X2.5Y-0.9
X2.505Y-2.365
X2.505Y-3.425
X2.5099Y-2.4739
X2.51Y-2.27
X2.51Y-3.61
X2.51Y-3.725
X2.524Y-2.2
X2.524Y-3.172
X2.5302Y-2.5556
X2.534Y-3.22
X2.59Y-3.61
X2.59Y-3.725
X2.615Y-2.78
X2.626Y-2.56
X2.632Y-1.7614
X2.652Y-2.146
X2.6534Y-2.2276
X2.664Y-2.474
X2.675Y-4.375
X2.685Y-3.61
X2.685Y-3.725
X2.6935Y-2.9585
X2.7Y-0.9
X2.7082Y-1.734
X2.722Y-3.478
X2.726Y-3.792
X2.743Y-1.502
X2.75Y-3.925
X2.76Y-3.12
X2.76Y-3.216
X2.76Y-3.384
X2.765Y-1.95
X2.765Y-1.99
X2.77Y-2.745
X2.774Y-2.026
X2.792Y-3.06
X2.794Y-3.028
X2.815Y-1.7865
X2.815Y-2.499
X2.824Y-3.174
X2.8245Y-1.5235
X2.828Y-3.302
X2.8385Y-2.4812
X2.84Y-2.68
X2.84Y-2.745
X2.8411Y-3.5051
X2.8411Y-3.7131
X2.852Y-3.06
X2.862Y-2.408
X2.8665Y-3.622
X2.874Y-3.162
X2.875Y-0.9
X2.876Y-3.034
X2.895Y-2.645
X2.9Y-4.375
X2.908Y-4.0829
X2.91Y-2.13
X2.9111Y-3.667
X2.912Y-1.3
X2.925Y-3.95
X2.9276Y-2.026
X2.938Y-2.556
X2.952Y-2.386
X2.96Y-1.368
X2.975Y-3.825
X2.9754Y-3.2677
X2.98Y-3.19
X2.9889Y-3.952
X3.002Y-3.634
X3.025Y-2.22
X3.025Y-3.19
X3.0266Y-3.2629
X3.05Y-4.375
X3.085Y-1.3
X3.085Y-1.37
X3.085Y-1.44
X3.085Y-1.51
X3.1Y-1.725
X3.109Y-1.56
X3.11Y-3.585
X3.12Y-3.64
X3.12Y-3.105
X3.135Y-3.605
X3.1526Y-3.09
X3.1583Y-3.1622
X3.1824Y-3.5103
X3.1826Y-3.5422
X3.2Y-1.1
X3.2Y-3.725
X3.2Y-3.825
X3.2Y-3.95
X3.2Y-4.075
X3.2Y-4.225
X2.0175Y-3.5375
X2.0175Y-3.5675
X2.0475Y-3.5375
X2.0475Y-3.5675
X2.0775Y-3.5375
X2.0775Y-3.5675
T3
X2.0666Y-4.2574
X2.2634Y-4.2574
T4
X3.09Y-2.2225
X3.09Y-2.3225
X3.09Y-1.805
X3.09Y-1.905
X3.09Y-2.5325
X3.09Y-2.0125
X3.09Y-2.1125
X3.09Y-3.841
X3.09Y-3.941
X3.09Y-4.0535
X3.09Y-4.1535
X3.09Y-2.4325
T6
X3.102Y-2.766
X3.102Y-2.9432
T7
X1.98Y-1.24
X2.08Y-1.24
X2.18Y-1.24
X2.28Y-1.24
X2.38Y-1.24
X2.38Y-1.14
X2.48Y-1.14
X2.58Y-1.14
X1.852Y-3.808
X1.852Y-3.908
X2.68Y-1.14
X2.78Y-1.14
X2.88Y-1.14
X2.98Y-1.14
X1.98Y-1.14
X2.08Y-1.14
X2.18Y-1.14
X2.28Y-1.14
X2.132Y-1.661
X2.232Y-1.661
X2.332Y-1.661
X2.432Y-1.661
X2.532Y-1.661
X2.632Y-1.661
X2.732Y-1.661
X2.832Y-1.661
X2.45Y-4.3075
X2.5484Y-4.3075
X2.48Y-1.24
X2.58Y-1.24
X2.68Y-1.24
X2.78Y-1.24
X2.88Y-1.24
X2.98Y-1.24
T8
X2.71Y-4.0175
X2.71Y-4.2175
X2.81Y-4.0175
X2.91Y-4.0175
X2.91Y-4.2175
T9
X3.004Y-2.7168
X3.004Y-2.9928
T10
X1.8307Y-4.311
X1.8307Y-0.9646
X3.1299Y-4.311
X3.1299Y-0.9646
T2
G00X2.0272Y-4.3775
M15
G01X2.0272Y-4.3499
M16
G05
G00X2.3028Y-4.3499
M15
G01X2.3028Y-4.3775
M16
G05
T5
G00X2.2543Y-2.243
M15
G01X2.2543Y-2.243
M16
G05
G00X2.2543Y-2.368
M15
G01X2.2543Y-2.368
M16
G05
G00X2.3293Y-2.293
M15
G01X2.3293Y-2.293
M16
G05
G00X2.4043Y-2.243
M15
G01X2.4043Y-2.243
M16
G05
G00X2.4043Y-2.368
M15
G01X2.4043Y-2.368
M16
G05
T0
M30
