G04 #@! TF.GenerationSoftware,KiCad,Pcbnew,(5.1.4)-1*
G04 #@! TF.CreationDate,2020-12-02T10:45:32+01:00*
G04 #@! TF.ProjectId,ESP32 - LP IoT,45535033-3220-42d2-904c-5020496f542e,rev?*
G04 #@! TF.SameCoordinates,Original*
G04 #@! TF.FileFunction,Soldermask,Top*
G04 #@! TF.FilePolarity,Negative*
%FSLAX46Y46*%
G04 Gerber Fmt 4.6, Leading zero omitted, Abs format (unit mm)*
G04 Created by KiCad (PCBNEW (5.1.4)-1) date 2020-12-02 10:45:32*
%MOMM*%
%LPD*%
G04 APERTURE LIST*
%ADD10R,1.800000X2.500000*%
%ADD11R,1.670000X1.797000*%
%ADD12R,1.797000X1.670000*%
%ADD13R,2.100000X2.100000*%
%ADD14O,2.100000X2.100000*%
%ADD15C,0.100000*%
%ADD16C,1.000000*%
%ADD17R,1.200000X1.300000*%
%ADD18R,2.600000X1.000000*%
%ADD19R,2.550000X3.850000*%
%ADD20R,1.900000X2.300000*%
%ADD21C,1.850000*%
%ADD22R,0.800000X1.750000*%
%ADD23O,1.600000X2.300000*%
%ADD24R,1.600000X2.300000*%
%ADD25C,2.500000*%
%ADD26C,1.009600*%
%ADD27R,2.780000X2.050000*%
%ADD28R,2.400000X2.400000*%
%ADD29R,2.432000X1.797000*%
%ADD30C,2.100000*%
%ADD31O,2.100000X2.400000*%
%ADD32C,2.150000*%
%ADD33R,2.200000X2.200000*%
%ADD34C,2.200000*%
%ADD35R,1.300000X2.900000*%
%ADD36R,2.900000X1.300000*%
%ADD37R,6.400000X6.400000*%
%ADD38O,1.670000X1.670000*%
%ADD39C,3.400000*%
G04 APERTURE END LIST*
D10*
X69937000Y-87583000D03*
X64937000Y-97583000D03*
X64937000Y-87583000D03*
X69937000Y-97583000D03*
D11*
X53238400Y-70256400D03*
X50952400Y-70256400D03*
D12*
X75717400Y-87985600D03*
X75717400Y-85699600D03*
D13*
X50292000Y-28956000D03*
D14*
X52832000Y-28956000D03*
X55372000Y-28956000D03*
X57912000Y-28956000D03*
D10*
X60412000Y-97583000D03*
X55412000Y-87583000D03*
X55412000Y-97583000D03*
X60412000Y-87583000D03*
D12*
X57912000Y-106045000D03*
X57912000Y-103759000D03*
D11*
X59080400Y-77470000D03*
X56794400Y-77470000D03*
D12*
X51689000Y-81534000D03*
X51689000Y-79248000D03*
D11*
X56007000Y-103886000D03*
X53721000Y-103886000D03*
D14*
X75692000Y-28956000D03*
X73152000Y-28956000D03*
X70612000Y-28956000D03*
D13*
X68072000Y-28956000D03*
D14*
X75692000Y-31496000D03*
X73152000Y-31496000D03*
X70612000Y-31496000D03*
X68072000Y-31496000D03*
X65532000Y-31496000D03*
D13*
X62992000Y-31496000D03*
X60452000Y-28956000D03*
D14*
X62992000Y-28956000D03*
X65532000Y-28956000D03*
D11*
X56007000Y-101854000D03*
X53721000Y-101854000D03*
D15*
G36*
X72791504Y-94465204D02*
G01*
X72815773Y-94468804D01*
X72839571Y-94474765D01*
X72862671Y-94483030D01*
X72884849Y-94493520D01*
X72905893Y-94506133D01*
X72925598Y-94520747D01*
X72943777Y-94537223D01*
X72960253Y-94555402D01*
X72974867Y-94575107D01*
X72987480Y-94596151D01*
X72997970Y-94618329D01*
X73006235Y-94641429D01*
X73012196Y-94665227D01*
X73015796Y-94689496D01*
X73017000Y-94714000D01*
X73017000Y-96364000D01*
X73015796Y-96388504D01*
X73012196Y-96412773D01*
X73006235Y-96436571D01*
X72997970Y-96459671D01*
X72987480Y-96481849D01*
X72974867Y-96502893D01*
X72960253Y-96522598D01*
X72943777Y-96540777D01*
X72925598Y-96557253D01*
X72905893Y-96571867D01*
X72884849Y-96584480D01*
X72862671Y-96594970D01*
X72839571Y-96603235D01*
X72815773Y-96609196D01*
X72791504Y-96612796D01*
X72767000Y-96614000D01*
X72267000Y-96614000D01*
X72242496Y-96612796D01*
X72218227Y-96609196D01*
X72194429Y-96603235D01*
X72171329Y-96594970D01*
X72149151Y-96584480D01*
X72128107Y-96571867D01*
X72108402Y-96557253D01*
X72090223Y-96540777D01*
X72073747Y-96522598D01*
X72059133Y-96502893D01*
X72046520Y-96481849D01*
X72036030Y-96459671D01*
X72027765Y-96436571D01*
X72021804Y-96412773D01*
X72018204Y-96388504D01*
X72017000Y-96364000D01*
X72017000Y-94714000D01*
X72018204Y-94689496D01*
X72021804Y-94665227D01*
X72027765Y-94641429D01*
X72036030Y-94618329D01*
X72046520Y-94596151D01*
X72059133Y-94575107D01*
X72073747Y-94555402D01*
X72090223Y-94537223D01*
X72108402Y-94520747D01*
X72128107Y-94506133D01*
X72149151Y-94493520D01*
X72171329Y-94483030D01*
X72194429Y-94474765D01*
X72218227Y-94468804D01*
X72242496Y-94465204D01*
X72267000Y-94464000D01*
X72767000Y-94464000D01*
X72791504Y-94465204D01*
X72791504Y-94465204D01*
G37*
D16*
X72517000Y-95539000D03*
D15*
G36*
X74061504Y-94465204D02*
G01*
X74085773Y-94468804D01*
X74109571Y-94474765D01*
X74132671Y-94483030D01*
X74154849Y-94493520D01*
X74175893Y-94506133D01*
X74195598Y-94520747D01*
X74213777Y-94537223D01*
X74230253Y-94555402D01*
X74244867Y-94575107D01*
X74257480Y-94596151D01*
X74267970Y-94618329D01*
X74276235Y-94641429D01*
X74282196Y-94665227D01*
X74285796Y-94689496D01*
X74287000Y-94714000D01*
X74287000Y-96364000D01*
X74285796Y-96388504D01*
X74282196Y-96412773D01*
X74276235Y-96436571D01*
X74267970Y-96459671D01*
X74257480Y-96481849D01*
X74244867Y-96502893D01*
X74230253Y-96522598D01*
X74213777Y-96540777D01*
X74195598Y-96557253D01*
X74175893Y-96571867D01*
X74154849Y-96584480D01*
X74132671Y-96594970D01*
X74109571Y-96603235D01*
X74085773Y-96609196D01*
X74061504Y-96612796D01*
X74037000Y-96614000D01*
X73537000Y-96614000D01*
X73512496Y-96612796D01*
X73488227Y-96609196D01*
X73464429Y-96603235D01*
X73441329Y-96594970D01*
X73419151Y-96584480D01*
X73398107Y-96571867D01*
X73378402Y-96557253D01*
X73360223Y-96540777D01*
X73343747Y-96522598D01*
X73329133Y-96502893D01*
X73316520Y-96481849D01*
X73306030Y-96459671D01*
X73297765Y-96436571D01*
X73291804Y-96412773D01*
X73288204Y-96388504D01*
X73287000Y-96364000D01*
X73287000Y-94714000D01*
X73288204Y-94689496D01*
X73291804Y-94665227D01*
X73297765Y-94641429D01*
X73306030Y-94618329D01*
X73316520Y-94596151D01*
X73329133Y-94575107D01*
X73343747Y-94555402D01*
X73360223Y-94537223D01*
X73378402Y-94520747D01*
X73398107Y-94506133D01*
X73419151Y-94493520D01*
X73441329Y-94483030D01*
X73464429Y-94474765D01*
X73488227Y-94468804D01*
X73512496Y-94465204D01*
X73537000Y-94464000D01*
X74037000Y-94464000D01*
X74061504Y-94465204D01*
X74061504Y-94465204D01*
G37*
D16*
X73787000Y-95539000D03*
D15*
G36*
X75331504Y-94465204D02*
G01*
X75355773Y-94468804D01*
X75379571Y-94474765D01*
X75402671Y-94483030D01*
X75424849Y-94493520D01*
X75445893Y-94506133D01*
X75465598Y-94520747D01*
X75483777Y-94537223D01*
X75500253Y-94555402D01*
X75514867Y-94575107D01*
X75527480Y-94596151D01*
X75537970Y-94618329D01*
X75546235Y-94641429D01*
X75552196Y-94665227D01*
X75555796Y-94689496D01*
X75557000Y-94714000D01*
X75557000Y-96364000D01*
X75555796Y-96388504D01*
X75552196Y-96412773D01*
X75546235Y-96436571D01*
X75537970Y-96459671D01*
X75527480Y-96481849D01*
X75514867Y-96502893D01*
X75500253Y-96522598D01*
X75483777Y-96540777D01*
X75465598Y-96557253D01*
X75445893Y-96571867D01*
X75424849Y-96584480D01*
X75402671Y-96594970D01*
X75379571Y-96603235D01*
X75355773Y-96609196D01*
X75331504Y-96612796D01*
X75307000Y-96614000D01*
X74807000Y-96614000D01*
X74782496Y-96612796D01*
X74758227Y-96609196D01*
X74734429Y-96603235D01*
X74711329Y-96594970D01*
X74689151Y-96584480D01*
X74668107Y-96571867D01*
X74648402Y-96557253D01*
X74630223Y-96540777D01*
X74613747Y-96522598D01*
X74599133Y-96502893D01*
X74586520Y-96481849D01*
X74576030Y-96459671D01*
X74567765Y-96436571D01*
X74561804Y-96412773D01*
X74558204Y-96388504D01*
X74557000Y-96364000D01*
X74557000Y-94714000D01*
X74558204Y-94689496D01*
X74561804Y-94665227D01*
X74567765Y-94641429D01*
X74576030Y-94618329D01*
X74586520Y-94596151D01*
X74599133Y-94575107D01*
X74613747Y-94555402D01*
X74630223Y-94537223D01*
X74648402Y-94520747D01*
X74668107Y-94506133D01*
X74689151Y-94493520D01*
X74711329Y-94483030D01*
X74734429Y-94474765D01*
X74758227Y-94468804D01*
X74782496Y-94465204D01*
X74807000Y-94464000D01*
X75307000Y-94464000D01*
X75331504Y-94465204D01*
X75331504Y-94465204D01*
G37*
D16*
X75057000Y-95539000D03*
D15*
G36*
X76601504Y-94465204D02*
G01*
X76625773Y-94468804D01*
X76649571Y-94474765D01*
X76672671Y-94483030D01*
X76694849Y-94493520D01*
X76715893Y-94506133D01*
X76735598Y-94520747D01*
X76753777Y-94537223D01*
X76770253Y-94555402D01*
X76784867Y-94575107D01*
X76797480Y-94596151D01*
X76807970Y-94618329D01*
X76816235Y-94641429D01*
X76822196Y-94665227D01*
X76825796Y-94689496D01*
X76827000Y-94714000D01*
X76827000Y-96364000D01*
X76825796Y-96388504D01*
X76822196Y-96412773D01*
X76816235Y-96436571D01*
X76807970Y-96459671D01*
X76797480Y-96481849D01*
X76784867Y-96502893D01*
X76770253Y-96522598D01*
X76753777Y-96540777D01*
X76735598Y-96557253D01*
X76715893Y-96571867D01*
X76694849Y-96584480D01*
X76672671Y-96594970D01*
X76649571Y-96603235D01*
X76625773Y-96609196D01*
X76601504Y-96612796D01*
X76577000Y-96614000D01*
X76077000Y-96614000D01*
X76052496Y-96612796D01*
X76028227Y-96609196D01*
X76004429Y-96603235D01*
X75981329Y-96594970D01*
X75959151Y-96584480D01*
X75938107Y-96571867D01*
X75918402Y-96557253D01*
X75900223Y-96540777D01*
X75883747Y-96522598D01*
X75869133Y-96502893D01*
X75856520Y-96481849D01*
X75846030Y-96459671D01*
X75837765Y-96436571D01*
X75831804Y-96412773D01*
X75828204Y-96388504D01*
X75827000Y-96364000D01*
X75827000Y-94714000D01*
X75828204Y-94689496D01*
X75831804Y-94665227D01*
X75837765Y-94641429D01*
X75846030Y-94618329D01*
X75856520Y-94596151D01*
X75869133Y-94575107D01*
X75883747Y-94555402D01*
X75900223Y-94537223D01*
X75918402Y-94520747D01*
X75938107Y-94506133D01*
X75959151Y-94493520D01*
X75981329Y-94483030D01*
X76004429Y-94474765D01*
X76028227Y-94468804D01*
X76052496Y-94465204D01*
X76077000Y-94464000D01*
X76577000Y-94464000D01*
X76601504Y-94465204D01*
X76601504Y-94465204D01*
G37*
D16*
X76327000Y-95539000D03*
D15*
G36*
X76601504Y-89315204D02*
G01*
X76625773Y-89318804D01*
X76649571Y-89324765D01*
X76672671Y-89333030D01*
X76694849Y-89343520D01*
X76715893Y-89356133D01*
X76735598Y-89370747D01*
X76753777Y-89387223D01*
X76770253Y-89405402D01*
X76784867Y-89425107D01*
X76797480Y-89446151D01*
X76807970Y-89468329D01*
X76816235Y-89491429D01*
X76822196Y-89515227D01*
X76825796Y-89539496D01*
X76827000Y-89564000D01*
X76827000Y-91214000D01*
X76825796Y-91238504D01*
X76822196Y-91262773D01*
X76816235Y-91286571D01*
X76807970Y-91309671D01*
X76797480Y-91331849D01*
X76784867Y-91352893D01*
X76770253Y-91372598D01*
X76753777Y-91390777D01*
X76735598Y-91407253D01*
X76715893Y-91421867D01*
X76694849Y-91434480D01*
X76672671Y-91444970D01*
X76649571Y-91453235D01*
X76625773Y-91459196D01*
X76601504Y-91462796D01*
X76577000Y-91464000D01*
X76077000Y-91464000D01*
X76052496Y-91462796D01*
X76028227Y-91459196D01*
X76004429Y-91453235D01*
X75981329Y-91444970D01*
X75959151Y-91434480D01*
X75938107Y-91421867D01*
X75918402Y-91407253D01*
X75900223Y-91390777D01*
X75883747Y-91372598D01*
X75869133Y-91352893D01*
X75856520Y-91331849D01*
X75846030Y-91309671D01*
X75837765Y-91286571D01*
X75831804Y-91262773D01*
X75828204Y-91238504D01*
X75827000Y-91214000D01*
X75827000Y-89564000D01*
X75828204Y-89539496D01*
X75831804Y-89515227D01*
X75837765Y-89491429D01*
X75846030Y-89468329D01*
X75856520Y-89446151D01*
X75869133Y-89425107D01*
X75883747Y-89405402D01*
X75900223Y-89387223D01*
X75918402Y-89370747D01*
X75938107Y-89356133D01*
X75959151Y-89343520D01*
X75981329Y-89333030D01*
X76004429Y-89324765D01*
X76028227Y-89318804D01*
X76052496Y-89315204D01*
X76077000Y-89314000D01*
X76577000Y-89314000D01*
X76601504Y-89315204D01*
X76601504Y-89315204D01*
G37*
D16*
X76327000Y-90389000D03*
D15*
G36*
X75331504Y-89315204D02*
G01*
X75355773Y-89318804D01*
X75379571Y-89324765D01*
X75402671Y-89333030D01*
X75424849Y-89343520D01*
X75445893Y-89356133D01*
X75465598Y-89370747D01*
X75483777Y-89387223D01*
X75500253Y-89405402D01*
X75514867Y-89425107D01*
X75527480Y-89446151D01*
X75537970Y-89468329D01*
X75546235Y-89491429D01*
X75552196Y-89515227D01*
X75555796Y-89539496D01*
X75557000Y-89564000D01*
X75557000Y-91214000D01*
X75555796Y-91238504D01*
X75552196Y-91262773D01*
X75546235Y-91286571D01*
X75537970Y-91309671D01*
X75527480Y-91331849D01*
X75514867Y-91352893D01*
X75500253Y-91372598D01*
X75483777Y-91390777D01*
X75465598Y-91407253D01*
X75445893Y-91421867D01*
X75424849Y-91434480D01*
X75402671Y-91444970D01*
X75379571Y-91453235D01*
X75355773Y-91459196D01*
X75331504Y-91462796D01*
X75307000Y-91464000D01*
X74807000Y-91464000D01*
X74782496Y-91462796D01*
X74758227Y-91459196D01*
X74734429Y-91453235D01*
X74711329Y-91444970D01*
X74689151Y-91434480D01*
X74668107Y-91421867D01*
X74648402Y-91407253D01*
X74630223Y-91390777D01*
X74613747Y-91372598D01*
X74599133Y-91352893D01*
X74586520Y-91331849D01*
X74576030Y-91309671D01*
X74567765Y-91286571D01*
X74561804Y-91262773D01*
X74558204Y-91238504D01*
X74557000Y-91214000D01*
X74557000Y-89564000D01*
X74558204Y-89539496D01*
X74561804Y-89515227D01*
X74567765Y-89491429D01*
X74576030Y-89468329D01*
X74586520Y-89446151D01*
X74599133Y-89425107D01*
X74613747Y-89405402D01*
X74630223Y-89387223D01*
X74648402Y-89370747D01*
X74668107Y-89356133D01*
X74689151Y-89343520D01*
X74711329Y-89333030D01*
X74734429Y-89324765D01*
X74758227Y-89318804D01*
X74782496Y-89315204D01*
X74807000Y-89314000D01*
X75307000Y-89314000D01*
X75331504Y-89315204D01*
X75331504Y-89315204D01*
G37*
D16*
X75057000Y-90389000D03*
D15*
G36*
X74061504Y-89315204D02*
G01*
X74085773Y-89318804D01*
X74109571Y-89324765D01*
X74132671Y-89333030D01*
X74154849Y-89343520D01*
X74175893Y-89356133D01*
X74195598Y-89370747D01*
X74213777Y-89387223D01*
X74230253Y-89405402D01*
X74244867Y-89425107D01*
X74257480Y-89446151D01*
X74267970Y-89468329D01*
X74276235Y-89491429D01*
X74282196Y-89515227D01*
X74285796Y-89539496D01*
X74287000Y-89564000D01*
X74287000Y-91214000D01*
X74285796Y-91238504D01*
X74282196Y-91262773D01*
X74276235Y-91286571D01*
X74267970Y-91309671D01*
X74257480Y-91331849D01*
X74244867Y-91352893D01*
X74230253Y-91372598D01*
X74213777Y-91390777D01*
X74195598Y-91407253D01*
X74175893Y-91421867D01*
X74154849Y-91434480D01*
X74132671Y-91444970D01*
X74109571Y-91453235D01*
X74085773Y-91459196D01*
X74061504Y-91462796D01*
X74037000Y-91464000D01*
X73537000Y-91464000D01*
X73512496Y-91462796D01*
X73488227Y-91459196D01*
X73464429Y-91453235D01*
X73441329Y-91444970D01*
X73419151Y-91434480D01*
X73398107Y-91421867D01*
X73378402Y-91407253D01*
X73360223Y-91390777D01*
X73343747Y-91372598D01*
X73329133Y-91352893D01*
X73316520Y-91331849D01*
X73306030Y-91309671D01*
X73297765Y-91286571D01*
X73291804Y-91262773D01*
X73288204Y-91238504D01*
X73287000Y-91214000D01*
X73287000Y-89564000D01*
X73288204Y-89539496D01*
X73291804Y-89515227D01*
X73297765Y-89491429D01*
X73306030Y-89468329D01*
X73316520Y-89446151D01*
X73329133Y-89425107D01*
X73343747Y-89405402D01*
X73360223Y-89387223D01*
X73378402Y-89370747D01*
X73398107Y-89356133D01*
X73419151Y-89343520D01*
X73441329Y-89333030D01*
X73464429Y-89324765D01*
X73488227Y-89318804D01*
X73512496Y-89315204D01*
X73537000Y-89314000D01*
X74037000Y-89314000D01*
X74061504Y-89315204D01*
X74061504Y-89315204D01*
G37*
D16*
X73787000Y-90389000D03*
D15*
G36*
X72791504Y-89315204D02*
G01*
X72815773Y-89318804D01*
X72839571Y-89324765D01*
X72862671Y-89333030D01*
X72884849Y-89343520D01*
X72905893Y-89356133D01*
X72925598Y-89370747D01*
X72943777Y-89387223D01*
X72960253Y-89405402D01*
X72974867Y-89425107D01*
X72987480Y-89446151D01*
X72997970Y-89468329D01*
X73006235Y-89491429D01*
X73012196Y-89515227D01*
X73015796Y-89539496D01*
X73017000Y-89564000D01*
X73017000Y-91214000D01*
X73015796Y-91238504D01*
X73012196Y-91262773D01*
X73006235Y-91286571D01*
X72997970Y-91309671D01*
X72987480Y-91331849D01*
X72974867Y-91352893D01*
X72960253Y-91372598D01*
X72943777Y-91390777D01*
X72925598Y-91407253D01*
X72905893Y-91421867D01*
X72884849Y-91434480D01*
X72862671Y-91444970D01*
X72839571Y-91453235D01*
X72815773Y-91459196D01*
X72791504Y-91462796D01*
X72767000Y-91464000D01*
X72267000Y-91464000D01*
X72242496Y-91462796D01*
X72218227Y-91459196D01*
X72194429Y-91453235D01*
X72171329Y-91444970D01*
X72149151Y-91434480D01*
X72128107Y-91421867D01*
X72108402Y-91407253D01*
X72090223Y-91390777D01*
X72073747Y-91372598D01*
X72059133Y-91352893D01*
X72046520Y-91331849D01*
X72036030Y-91309671D01*
X72027765Y-91286571D01*
X72021804Y-91262773D01*
X72018204Y-91238504D01*
X72017000Y-91214000D01*
X72017000Y-89564000D01*
X72018204Y-89539496D01*
X72021804Y-89515227D01*
X72027765Y-89491429D01*
X72036030Y-89468329D01*
X72046520Y-89446151D01*
X72059133Y-89425107D01*
X72073747Y-89405402D01*
X72090223Y-89387223D01*
X72108402Y-89370747D01*
X72128107Y-89356133D01*
X72149151Y-89343520D01*
X72171329Y-89333030D01*
X72194429Y-89324765D01*
X72218227Y-89318804D01*
X72242496Y-89315204D01*
X72267000Y-89314000D01*
X72767000Y-89314000D01*
X72791504Y-89315204D01*
X72791504Y-89315204D01*
G37*
D16*
X72517000Y-90389000D03*
D17*
X73637100Y-83042000D03*
X75537100Y-83042000D03*
X74587100Y-81042000D03*
X49911000Y-77200000D03*
X48961000Y-75200000D03*
X50861000Y-75200000D03*
D12*
X73685400Y-87985600D03*
X73685400Y-85699600D03*
X49657000Y-83312000D03*
X49657000Y-85598000D03*
X47625000Y-83312000D03*
X47625000Y-85598000D03*
X77749400Y-87985600D03*
X77749400Y-85699600D03*
X74803000Y-59309000D03*
X74803000Y-57023000D03*
X74803000Y-55245000D03*
X74803000Y-52959000D03*
D11*
X45466000Y-71374000D03*
X47752000Y-71374000D03*
D18*
X54926900Y-83312000D03*
X54926900Y-80772000D03*
D19*
X61226900Y-82042000D03*
D18*
X54926900Y-82042000D03*
X54926900Y-84582000D03*
X54926900Y-79502000D03*
D17*
X76939100Y-83042000D03*
X78839100Y-83042000D03*
X77889100Y-81042000D03*
D12*
X79806800Y-87985600D03*
X79806800Y-85699600D03*
D20*
X55991000Y-110838500D03*
D21*
X52491000Y-108138500D03*
D22*
X54341000Y-108138500D03*
X53691000Y-108138500D03*
X56291000Y-108138500D03*
X55641000Y-108138500D03*
X54991000Y-108138500D03*
D21*
X57491000Y-108138500D03*
D20*
X53991000Y-110838500D03*
D23*
X51491000Y-110838500D03*
X58491000Y-110838500D03*
D24*
X57891000Y-110838500D03*
X52091000Y-110838500D03*
D25*
X73914000Y-107124500D03*
X68834000Y-107124500D03*
X73914000Y-102044500D03*
X71374000Y-102044500D03*
X68834000Y-102044500D03*
D13*
X47040800Y-96723200D03*
D14*
X47040800Y-99263200D03*
D26*
X51244500Y-89852500D03*
X51244500Y-90614500D03*
X52768500Y-89852500D03*
X52768500Y-90614500D03*
X52006500Y-89852500D03*
X52006500Y-90614500D03*
D27*
X52006500Y-90233500D03*
D17*
X47559000Y-75200000D03*
X45659000Y-75200000D03*
X46609000Y-77200000D03*
D11*
X47752000Y-73406000D03*
X45466000Y-73406000D03*
D28*
X51816000Y-99129600D03*
X51816000Y-95129600D03*
D11*
X53238400Y-72288400D03*
X50952400Y-72288400D03*
X59080400Y-75438000D03*
X56794400Y-75438000D03*
D12*
X49657000Y-79248000D03*
X49657000Y-81534000D03*
X51689000Y-83312000D03*
X51689000Y-85598000D03*
D29*
X65024000Y-101498400D03*
X65024000Y-104749600D03*
D15*
G36*
X63001447Y-108211987D02*
G01*
X63031425Y-108216434D01*
X63060824Y-108223798D01*
X63089358Y-108234008D01*
X63116755Y-108246965D01*
X63142750Y-108262546D01*
X63167092Y-108280600D01*
X63189548Y-108300952D01*
X63209900Y-108323408D01*
X63227954Y-108347750D01*
X63243535Y-108373745D01*
X63256492Y-108401142D01*
X63266702Y-108429676D01*
X63274066Y-108459075D01*
X63278513Y-108489053D01*
X63280000Y-108519323D01*
X63280000Y-110301677D01*
X63278513Y-110331947D01*
X63274066Y-110361925D01*
X63266702Y-110391324D01*
X63256492Y-110419858D01*
X63243535Y-110447255D01*
X63227954Y-110473250D01*
X63209900Y-110497592D01*
X63189548Y-110520048D01*
X63167092Y-110540400D01*
X63142750Y-110558454D01*
X63116755Y-110574035D01*
X63089358Y-110586992D01*
X63060824Y-110597202D01*
X63031425Y-110604566D01*
X63001447Y-110609013D01*
X62971177Y-110610500D01*
X61488823Y-110610500D01*
X61458553Y-110609013D01*
X61428575Y-110604566D01*
X61399176Y-110597202D01*
X61370642Y-110586992D01*
X61343245Y-110574035D01*
X61317250Y-110558454D01*
X61292908Y-110540400D01*
X61270452Y-110520048D01*
X61250100Y-110497592D01*
X61232046Y-110473250D01*
X61216465Y-110447255D01*
X61203508Y-110419858D01*
X61193298Y-110391324D01*
X61185934Y-110361925D01*
X61181487Y-110331947D01*
X61180000Y-110301677D01*
X61180000Y-108519323D01*
X61181487Y-108489053D01*
X61185934Y-108459075D01*
X61193298Y-108429676D01*
X61203508Y-108401142D01*
X61216465Y-108373745D01*
X61232046Y-108347750D01*
X61250100Y-108323408D01*
X61270452Y-108300952D01*
X61292908Y-108280600D01*
X61317250Y-108262546D01*
X61343245Y-108246965D01*
X61370642Y-108234008D01*
X61399176Y-108223798D01*
X61428575Y-108216434D01*
X61458553Y-108211987D01*
X61488823Y-108210500D01*
X62971177Y-108210500D01*
X63001447Y-108211987D01*
X63001447Y-108211987D01*
G37*
D30*
X62230000Y-109410500D03*
D31*
X64730000Y-109410500D03*
D25*
X76300800Y-76016400D03*
D32*
X78790800Y-74756400D03*
X78790800Y-70256400D03*
D25*
X76300800Y-69006400D03*
D33*
X78486000Y-97561400D03*
D34*
X78486000Y-100101400D03*
X78486000Y-105498900D03*
D33*
X78486000Y-102958900D03*
D34*
X78486000Y-61785500D03*
D33*
X78486000Y-64325500D03*
X78486000Y-58991500D03*
D34*
X78486000Y-56451500D03*
D33*
X78486000Y-53657500D03*
D34*
X78486000Y-51117500D03*
X78486000Y-45847000D03*
D33*
X78486000Y-48387000D03*
D13*
X54152800Y-42189400D03*
D14*
X56692800Y-42189400D03*
X59232800Y-42189400D03*
X61772800Y-42189400D03*
X64312800Y-42189400D03*
X66852800Y-42189400D03*
X69392800Y-42189400D03*
X71932800Y-42189400D03*
D13*
X50292000Y-31496000D03*
D14*
X52832000Y-31496000D03*
X55372000Y-31496000D03*
X57912000Y-31496000D03*
X60452000Y-31496000D03*
D35*
X51545200Y-49242200D03*
X52815200Y-49242200D03*
X54085200Y-49242200D03*
X55355200Y-49242200D03*
X56625200Y-49242200D03*
X57895200Y-49242200D03*
X59165200Y-49242200D03*
X60435200Y-49242200D03*
X61705200Y-49242200D03*
X62975200Y-49242200D03*
X64245200Y-49242200D03*
X65515200Y-49242200D03*
X66785200Y-49242200D03*
X68055200Y-49242200D03*
D36*
X69545200Y-52527200D03*
X69545200Y-53797200D03*
X69545200Y-55067200D03*
X69545200Y-56337200D03*
X69545200Y-57607200D03*
X69545200Y-58877200D03*
X69545200Y-60147200D03*
X69545200Y-61417200D03*
X69545200Y-62687200D03*
X69545200Y-63957200D03*
D35*
X68055200Y-67242200D03*
X66785200Y-67242200D03*
X65515200Y-67242200D03*
X64245200Y-67242200D03*
X62975200Y-67242200D03*
X61705200Y-67242200D03*
X60435200Y-67242200D03*
X59165200Y-67242200D03*
X57895200Y-67242200D03*
X56625200Y-67242200D03*
X55355200Y-67242200D03*
X54085200Y-67242200D03*
X52815200Y-67242200D03*
X51545200Y-67242200D03*
D37*
X59165200Y-58542200D03*
D38*
X59165200Y-58242200D03*
X57260200Y-60147200D03*
X57260200Y-56972200D03*
X61070200Y-56972200D03*
X61070200Y-60147200D03*
D39*
X79500000Y-109500000D03*
X46500000Y-109500000D03*
X79500000Y-24500000D03*
X46500000Y-24500000D03*
M02*
