G04 #@! TF.GenerationSoftware,KiCad,Pcbnew,(5.1.4)-1*
G04 #@! TF.CreationDate,2020-12-02T10:45:32+01:00*
G04 #@! TF.ProjectId,ESP32 - LP IoT,45535033-3220-42d2-904c-5020496f542e,rev?*
G04 #@! TF.SameCoordinates,Original*
G04 #@! TF.FileFunction,Legend,Top*
G04 #@! TF.FilePolarity,Positive*
%FSLAX46Y46*%
G04 Gerber Fmt 4.6, Leading zero omitted, Abs format (unit mm)*
G04 Created by KiCad (PCBNEW (5.1.4)-1) date 2020-12-02 10:45:32*
%MOMM*%
%LPD*%
G04 APERTURE LIST*
%ADD10C,0.177800*%
%ADD11C,0.127000*%
%ADD12C,0.203200*%
%ADD13C,0.300000*%
%ADD14C,0.150000*%
%ADD15C,0.120000*%
%ADD16C,0.254000*%
G04 APERTURE END LIST*
D10*
X78159428Y-77751819D02*
X78159428Y-76735819D01*
X78546476Y-76735819D01*
X78643238Y-76784200D01*
X78691619Y-76832580D01*
X78740000Y-76929342D01*
X78740000Y-77074485D01*
X78691619Y-77171247D01*
X78643238Y-77219628D01*
X78546476Y-77268009D01*
X78159428Y-77268009D01*
X79610857Y-77074485D02*
X79610857Y-77751819D01*
X79175428Y-77074485D02*
X79175428Y-77606676D01*
X79223809Y-77703438D01*
X79320571Y-77751819D01*
X79465714Y-77751819D01*
X79562476Y-77703438D01*
X79610857Y-77655057D01*
X80046285Y-77703438D02*
X80143047Y-77751819D01*
X80336571Y-77751819D01*
X80433333Y-77703438D01*
X80481714Y-77606676D01*
X80481714Y-77558295D01*
X80433333Y-77461533D01*
X80336571Y-77413152D01*
X80191428Y-77413152D01*
X80094666Y-77364771D01*
X80046285Y-77268009D01*
X80046285Y-77219628D01*
X80094666Y-77122866D01*
X80191428Y-77074485D01*
X80336571Y-77074485D01*
X80433333Y-77122866D01*
X80917142Y-77751819D02*
X80917142Y-76735819D01*
X81352571Y-77751819D02*
X81352571Y-77219628D01*
X81304190Y-77122866D01*
X81207428Y-77074485D01*
X81062285Y-77074485D01*
X80965523Y-77122866D01*
X80917142Y-77171247D01*
X62809966Y-74163766D02*
X62809966Y-73274766D01*
X63021633Y-73274766D01*
X63148633Y-73317100D01*
X63233300Y-73401766D01*
X63275633Y-73486433D01*
X63317966Y-73655766D01*
X63317966Y-73782766D01*
X63275633Y-73952100D01*
X63233300Y-74036766D01*
X63148633Y-74121433D01*
X63021633Y-74163766D01*
X62809966Y-74163766D01*
X64037633Y-74121433D02*
X63952966Y-74163766D01*
X63783633Y-74163766D01*
X63698966Y-74121433D01*
X63656633Y-74036766D01*
X63656633Y-73698100D01*
X63698966Y-73613433D01*
X63783633Y-73571100D01*
X63952966Y-73571100D01*
X64037633Y-73613433D01*
X64079966Y-73698100D01*
X64079966Y-73782766D01*
X63656633Y-73867433D01*
X64418633Y-74121433D02*
X64503300Y-74163766D01*
X64672633Y-74163766D01*
X64757300Y-74121433D01*
X64799633Y-74036766D01*
X64799633Y-73994433D01*
X64757300Y-73909766D01*
X64672633Y-73867433D01*
X64545633Y-73867433D01*
X64460966Y-73825100D01*
X64418633Y-73740433D01*
X64418633Y-73698100D01*
X64460966Y-73613433D01*
X64545633Y-73571100D01*
X64672633Y-73571100D01*
X64757300Y-73613433D01*
X65180633Y-74163766D02*
X65180633Y-73571100D01*
X65180633Y-73274766D02*
X65138300Y-73317100D01*
X65180633Y-73359433D01*
X65222966Y-73317100D01*
X65180633Y-73274766D01*
X65180633Y-73359433D01*
X65984966Y-73571100D02*
X65984966Y-74290766D01*
X65942633Y-74375433D01*
X65900300Y-74417766D01*
X65815633Y-74460100D01*
X65688633Y-74460100D01*
X65603966Y-74417766D01*
X65984966Y-74121433D02*
X65900300Y-74163766D01*
X65730966Y-74163766D01*
X65646300Y-74121433D01*
X65603966Y-74079100D01*
X65561633Y-73994433D01*
X65561633Y-73740433D01*
X65603966Y-73655766D01*
X65646300Y-73613433D01*
X65730966Y-73571100D01*
X65900300Y-73571100D01*
X65984966Y-73613433D01*
X66408300Y-73571100D02*
X66408300Y-74163766D01*
X66408300Y-73655766D02*
X66450633Y-73613433D01*
X66535300Y-73571100D01*
X66662300Y-73571100D01*
X66746966Y-73613433D01*
X66789300Y-73698100D01*
X66789300Y-74163766D01*
X67551300Y-74121433D02*
X67466633Y-74163766D01*
X67297300Y-74163766D01*
X67212633Y-74121433D01*
X67170300Y-74036766D01*
X67170300Y-73698100D01*
X67212633Y-73613433D01*
X67297300Y-73571100D01*
X67466633Y-73571100D01*
X67551300Y-73613433D01*
X67593633Y-73698100D01*
X67593633Y-73782766D01*
X67170300Y-73867433D01*
X68355633Y-74163766D02*
X68355633Y-73274766D01*
X68355633Y-74121433D02*
X68270966Y-74163766D01*
X68101633Y-74163766D01*
X68016966Y-74121433D01*
X67974633Y-74079100D01*
X67932300Y-73994433D01*
X67932300Y-73740433D01*
X67974633Y-73655766D01*
X68016966Y-73613433D01*
X68101633Y-73571100D01*
X68270966Y-73571100D01*
X68355633Y-73613433D01*
X69456300Y-74163766D02*
X69456300Y-73274766D01*
X69456300Y-73613433D02*
X69540966Y-73571100D01*
X69710300Y-73571100D01*
X69794966Y-73613433D01*
X69837300Y-73655766D01*
X69879633Y-73740433D01*
X69879633Y-73994433D01*
X69837300Y-74079100D01*
X69794966Y-74121433D01*
X69710300Y-74163766D01*
X69540966Y-74163766D01*
X69456300Y-74121433D01*
X70175966Y-73571100D02*
X70387633Y-74163766D01*
X70599300Y-73571100D02*
X70387633Y-74163766D01*
X70302966Y-74375433D01*
X70260633Y-74417766D01*
X70175966Y-74460100D01*
X71784633Y-73274766D02*
X71953966Y-73274766D01*
X72038633Y-73317100D01*
X72123300Y-73401766D01*
X72165633Y-73571100D01*
X72165633Y-73867433D01*
X72123300Y-74036766D01*
X72038633Y-74121433D01*
X71953966Y-74163766D01*
X71784633Y-74163766D01*
X71699966Y-74121433D01*
X71615300Y-74036766D01*
X71572966Y-73867433D01*
X71572966Y-73571100D01*
X71615300Y-73401766D01*
X71699966Y-73317100D01*
X71784633Y-73274766D01*
X72842966Y-73698100D02*
X72969966Y-73740433D01*
X73012300Y-73782766D01*
X73054633Y-73867433D01*
X73054633Y-73994433D01*
X73012300Y-74079100D01*
X72969966Y-74121433D01*
X72885300Y-74163766D01*
X72546633Y-74163766D01*
X72546633Y-73274766D01*
X72842966Y-73274766D01*
X72927633Y-73317100D01*
X72969966Y-73359433D01*
X73012300Y-73444100D01*
X73012300Y-73528766D01*
X72969966Y-73613433D01*
X72927633Y-73655766D01*
X72842966Y-73698100D01*
X72546633Y-73698100D01*
X73435633Y-73274766D02*
X73435633Y-73994433D01*
X73477966Y-74079100D01*
X73520300Y-74121433D01*
X73604966Y-74163766D01*
X73774300Y-74163766D01*
X73858966Y-74121433D01*
X73901300Y-74079100D01*
X73943633Y-73994433D01*
X73943633Y-73274766D01*
X59825466Y-72174100D02*
X60121800Y-72174100D01*
X60248800Y-72639766D02*
X59825466Y-72639766D01*
X59825466Y-71750766D01*
X60248800Y-71750766D01*
X60587466Y-72597433D02*
X60714466Y-72639766D01*
X60926133Y-72639766D01*
X61010800Y-72597433D01*
X61053133Y-72555100D01*
X61095466Y-72470433D01*
X61095466Y-72385766D01*
X61053133Y-72301100D01*
X61010800Y-72258766D01*
X60926133Y-72216433D01*
X60756800Y-72174100D01*
X60672133Y-72131766D01*
X60629800Y-72089433D01*
X60587466Y-72004766D01*
X60587466Y-71920100D01*
X60629800Y-71835433D01*
X60672133Y-71793100D01*
X60756800Y-71750766D01*
X60968466Y-71750766D01*
X61095466Y-71793100D01*
X61476466Y-72639766D02*
X61476466Y-71750766D01*
X61815133Y-71750766D01*
X61899800Y-71793100D01*
X61942133Y-71835433D01*
X61984466Y-71920100D01*
X61984466Y-72047100D01*
X61942133Y-72131766D01*
X61899800Y-72174100D01*
X61815133Y-72216433D01*
X61476466Y-72216433D01*
X62280800Y-71750766D02*
X62831133Y-71750766D01*
X62534800Y-72089433D01*
X62661800Y-72089433D01*
X62746466Y-72131766D01*
X62788800Y-72174100D01*
X62831133Y-72258766D01*
X62831133Y-72470433D01*
X62788800Y-72555100D01*
X62746466Y-72597433D01*
X62661800Y-72639766D01*
X62407800Y-72639766D01*
X62323133Y-72597433D01*
X62280800Y-72555100D01*
X63169800Y-71835433D02*
X63212133Y-71793100D01*
X63296800Y-71750766D01*
X63508466Y-71750766D01*
X63593133Y-71793100D01*
X63635466Y-71835433D01*
X63677800Y-71920100D01*
X63677800Y-72004766D01*
X63635466Y-72131766D01*
X63127466Y-72639766D01*
X63677800Y-72639766D01*
X64736133Y-72301100D02*
X65413466Y-72301100D01*
X66514133Y-72639766D02*
X66514133Y-71750766D01*
X67064466Y-72639766D02*
X66979800Y-72597433D01*
X66937466Y-72555100D01*
X66895133Y-72470433D01*
X66895133Y-72216433D01*
X66937466Y-72131766D01*
X66979800Y-72089433D01*
X67064466Y-72047100D01*
X67191466Y-72047100D01*
X67276133Y-72089433D01*
X67318466Y-72131766D01*
X67360800Y-72216433D01*
X67360800Y-72470433D01*
X67318466Y-72555100D01*
X67276133Y-72597433D01*
X67191466Y-72639766D01*
X67064466Y-72639766D01*
X67614800Y-71750766D02*
X68122800Y-71750766D01*
X67868800Y-72639766D02*
X67868800Y-71750766D01*
X69011800Y-72047100D02*
X69223466Y-72639766D01*
X69435133Y-72047100D01*
X70112466Y-72597433D02*
X70027800Y-72639766D01*
X69858466Y-72639766D01*
X69773800Y-72597433D01*
X69731466Y-72512766D01*
X69731466Y-72174100D01*
X69773800Y-72089433D01*
X69858466Y-72047100D01*
X70027800Y-72047100D01*
X70112466Y-72089433D01*
X70154800Y-72174100D01*
X70154800Y-72258766D01*
X69731466Y-72343433D01*
X70535800Y-72639766D02*
X70535800Y-72047100D01*
X70535800Y-72216433D02*
X70578133Y-72131766D01*
X70620466Y-72089433D01*
X70705133Y-72047100D01*
X70789800Y-72047100D01*
X71086133Y-72555100D02*
X71128466Y-72597433D01*
X71086133Y-72639766D01*
X71043800Y-72597433D01*
X71086133Y-72555100D01*
X71086133Y-72639766D01*
X72652466Y-72639766D02*
X72144466Y-72639766D01*
X72398466Y-72639766D02*
X72398466Y-71750766D01*
X72313800Y-71877766D01*
X72229133Y-71962433D01*
X72144466Y-72004766D01*
X73033466Y-72555100D02*
X73075800Y-72597433D01*
X73033466Y-72639766D01*
X72991133Y-72597433D01*
X73033466Y-72555100D01*
X73033466Y-72639766D01*
X73626133Y-71750766D02*
X73710800Y-71750766D01*
X73795466Y-71793100D01*
X73837800Y-71835433D01*
X73880133Y-71920100D01*
X73922466Y-72089433D01*
X73922466Y-72301100D01*
X73880133Y-72470433D01*
X73837800Y-72555100D01*
X73795466Y-72597433D01*
X73710800Y-72639766D01*
X73626133Y-72639766D01*
X73541466Y-72597433D01*
X73499133Y-72555100D01*
X73456800Y-72470433D01*
X73414466Y-72301100D01*
X73414466Y-72089433D01*
X73456800Y-71920100D01*
X73499133Y-71835433D01*
X73541466Y-71793100D01*
X73626133Y-71750766D01*
D11*
X55116185Y-40329757D02*
X55025471Y-40299519D01*
X54995233Y-40269280D01*
X54964995Y-40208804D01*
X54964995Y-40118090D01*
X54995233Y-40057614D01*
X55025471Y-40027376D01*
X55085947Y-39997138D01*
X55327852Y-39997138D01*
X55327852Y-40632138D01*
X55116185Y-40632138D01*
X55055709Y-40601900D01*
X55025471Y-40571661D01*
X54995233Y-40511185D01*
X54995233Y-40450709D01*
X55025471Y-40390233D01*
X55055709Y-40359995D01*
X55116185Y-40329757D01*
X55327852Y-40329757D01*
X54692852Y-40632138D02*
X54692852Y-40118090D01*
X54662614Y-40057614D01*
X54632376Y-40027376D01*
X54571900Y-39997138D01*
X54450947Y-39997138D01*
X54390471Y-40027376D01*
X54360233Y-40057614D01*
X54329995Y-40118090D01*
X54329995Y-40632138D01*
X54057852Y-40027376D02*
X53967138Y-39997138D01*
X53815947Y-39997138D01*
X53755471Y-40027376D01*
X53725233Y-40057614D01*
X53694995Y-40118090D01*
X53694995Y-40178566D01*
X53725233Y-40239042D01*
X53755471Y-40269280D01*
X53815947Y-40299519D01*
X53936900Y-40329757D01*
X53997376Y-40359995D01*
X54027614Y-40390233D01*
X54057852Y-40450709D01*
X54057852Y-40511185D01*
X54027614Y-40571661D01*
X53997376Y-40601900D01*
X53936900Y-40632138D01*
X53785709Y-40632138D01*
X53694995Y-40601900D01*
X53301900Y-40299519D02*
X53301900Y-39997138D01*
X53513566Y-40632138D02*
X53301900Y-40299519D01*
X53090233Y-40632138D01*
X57142138Y-39870138D02*
X57353804Y-40172519D01*
X57504995Y-39870138D02*
X57504995Y-40505138D01*
X57263090Y-40505138D01*
X57202614Y-40474900D01*
X57172376Y-40444661D01*
X57142138Y-40384185D01*
X57142138Y-40293471D01*
X57172376Y-40232995D01*
X57202614Y-40202757D01*
X57263090Y-40172519D01*
X57504995Y-40172519D01*
X56900233Y-39900376D02*
X56809519Y-39870138D01*
X56658328Y-39870138D01*
X56597852Y-39900376D01*
X56567614Y-39930614D01*
X56537376Y-39991090D01*
X56537376Y-40051566D01*
X56567614Y-40112042D01*
X56597852Y-40142280D01*
X56658328Y-40172519D01*
X56779280Y-40202757D01*
X56839757Y-40232995D01*
X56869995Y-40263233D01*
X56900233Y-40323709D01*
X56900233Y-40384185D01*
X56869995Y-40444661D01*
X56839757Y-40474900D01*
X56779280Y-40505138D01*
X56628090Y-40505138D01*
X56537376Y-40474900D01*
X56355947Y-40505138D02*
X55993090Y-40505138D01*
X56174519Y-39870138D02*
X56174519Y-40505138D01*
X59792809Y-39844738D02*
X59792809Y-40479738D01*
X59641619Y-40479738D01*
X59550904Y-40449500D01*
X59490428Y-40389023D01*
X59460190Y-40328547D01*
X59429952Y-40207595D01*
X59429952Y-40116880D01*
X59460190Y-39995928D01*
X59490428Y-39935452D01*
X59550904Y-39874976D01*
X59641619Y-39844738D01*
X59792809Y-39844738D01*
X58794952Y-39905214D02*
X58825190Y-39874976D01*
X58915904Y-39844738D01*
X58976380Y-39844738D01*
X59067095Y-39874976D01*
X59127571Y-39935452D01*
X59157809Y-39995928D01*
X59188047Y-40116880D01*
X59188047Y-40207595D01*
X59157809Y-40328547D01*
X59127571Y-40389023D01*
X59067095Y-40449500D01*
X58976380Y-40479738D01*
X58915904Y-40479738D01*
X58825190Y-40449500D01*
X58794952Y-40419261D01*
X62621280Y-40627300D02*
X61986280Y-40627300D01*
X62107233Y-39778214D02*
X62137471Y-39747976D01*
X62228185Y-39717738D01*
X62288661Y-39717738D01*
X62379376Y-39747976D01*
X62439852Y-39808452D01*
X62470090Y-39868928D01*
X62500328Y-39989880D01*
X62500328Y-40080595D01*
X62470090Y-40201547D01*
X62439852Y-40262023D01*
X62379376Y-40322500D01*
X62288661Y-40352738D01*
X62228185Y-40352738D01*
X62137471Y-40322500D01*
X62107233Y-40292261D01*
X61986280Y-40627300D02*
X61381519Y-40627300D01*
X61865328Y-39747976D02*
X61774614Y-39717738D01*
X61623423Y-39717738D01*
X61562947Y-39747976D01*
X61532709Y-39778214D01*
X61502471Y-39838690D01*
X61502471Y-39899166D01*
X61532709Y-39959642D01*
X61562947Y-39989880D01*
X61623423Y-40020119D01*
X61744376Y-40050357D01*
X61804852Y-40080595D01*
X61835090Y-40110833D01*
X61865328Y-40171309D01*
X61865328Y-40231785D01*
X61835090Y-40292261D01*
X61804852Y-40322500D01*
X61744376Y-40352738D01*
X61593185Y-40352738D01*
X61502471Y-40322500D01*
X64919376Y-39930614D02*
X64949614Y-39900376D01*
X65040328Y-39870138D01*
X65100804Y-39870138D01*
X65191519Y-39900376D01*
X65251995Y-39960852D01*
X65282233Y-40021328D01*
X65312471Y-40142280D01*
X65312471Y-40232995D01*
X65282233Y-40353947D01*
X65251995Y-40414423D01*
X65191519Y-40474900D01*
X65100804Y-40505138D01*
X65040328Y-40505138D01*
X64949614Y-40474900D01*
X64919376Y-40444661D01*
X64344852Y-39870138D02*
X64647233Y-39870138D01*
X64647233Y-40505138D01*
X64133185Y-39870138D02*
X64133185Y-40505138D01*
X63770328Y-39870138D02*
X64042471Y-40232995D01*
X63770328Y-40505138D02*
X64133185Y-40142280D01*
X67604519Y-39870138D02*
X67604519Y-40505138D01*
X67453328Y-40505138D01*
X67362614Y-40474900D01*
X67302138Y-40414423D01*
X67271900Y-40353947D01*
X67241661Y-40232995D01*
X67241661Y-40142280D01*
X67271900Y-40021328D01*
X67302138Y-39960852D01*
X67362614Y-39900376D01*
X67453328Y-39870138D01*
X67604519Y-39870138D01*
X66969519Y-39870138D02*
X66969519Y-40505138D01*
X66667138Y-39870138D02*
X66667138Y-40505138D01*
X66304280Y-39870138D01*
X66304280Y-40505138D01*
X69851209Y-40474900D02*
X69911685Y-40505138D01*
X70002400Y-40505138D01*
X70093114Y-40474900D01*
X70153590Y-40414423D01*
X70183828Y-40353947D01*
X70214066Y-40232995D01*
X70214066Y-40142280D01*
X70183828Y-40021328D01*
X70153590Y-39960852D01*
X70093114Y-39900376D01*
X70002400Y-39870138D01*
X69941923Y-39870138D01*
X69851209Y-39900376D01*
X69820971Y-39930614D01*
X69820971Y-40142280D01*
X69941923Y-40142280D01*
X69548828Y-39870138D02*
X69548828Y-40505138D01*
X69185971Y-39870138D01*
X69185971Y-40505138D01*
X68883590Y-39870138D02*
X68883590Y-40505138D01*
X68732400Y-40505138D01*
X68641685Y-40474900D01*
X68581209Y-40414423D01*
X68550971Y-40353947D01*
X68520733Y-40232995D01*
X68520733Y-40142280D01*
X68550971Y-40021328D01*
X68581209Y-39960852D01*
X68641685Y-39900376D01*
X68732400Y-39870138D01*
X68883590Y-39870138D01*
X72668190Y-40505138D02*
X72275095Y-40505138D01*
X72486761Y-40263233D01*
X72396047Y-40263233D01*
X72335571Y-40232995D01*
X72305333Y-40202757D01*
X72275095Y-40142280D01*
X72275095Y-39991090D01*
X72305333Y-39930614D01*
X72335571Y-39900376D01*
X72396047Y-39870138D01*
X72577476Y-39870138D01*
X72637952Y-39900376D01*
X72668190Y-39930614D01*
X72093666Y-40505138D02*
X71882000Y-39870138D01*
X71670333Y-40505138D01*
X71519142Y-40505138D02*
X71126047Y-40505138D01*
X71337714Y-40263233D01*
X71247000Y-40263233D01*
X71186523Y-40232995D01*
X71156285Y-40202757D01*
X71126047Y-40142280D01*
X71126047Y-39991090D01*
X71156285Y-39930614D01*
X71186523Y-39900376D01*
X71247000Y-39870138D01*
X71428428Y-39870138D01*
X71488904Y-39900376D01*
X71519142Y-39930614D01*
X59077980Y-35806138D02*
X59077980Y-36441138D01*
X58654647Y-36441138D02*
X58533695Y-36441138D01*
X58473219Y-36410900D01*
X58412742Y-36350423D01*
X58382504Y-36229471D01*
X58382504Y-36017804D01*
X58412742Y-35896852D01*
X58473219Y-35836376D01*
X58533695Y-35806138D01*
X58654647Y-35806138D01*
X58715123Y-35836376D01*
X58775600Y-35896852D01*
X58805838Y-36017804D01*
X58805838Y-36229471D01*
X58775600Y-36350423D01*
X58715123Y-36410900D01*
X58654647Y-36441138D01*
X58170838Y-36441138D02*
X57777742Y-36441138D01*
X57989409Y-36199233D01*
X57898695Y-36199233D01*
X57838219Y-36168995D01*
X57807980Y-36138757D01*
X57777742Y-36078280D01*
X57777742Y-35927090D01*
X57807980Y-35866614D01*
X57838219Y-35836376D01*
X57898695Y-35806138D01*
X58080123Y-35806138D01*
X58140600Y-35836376D01*
X58170838Y-35866614D01*
X57233457Y-36229471D02*
X57233457Y-35806138D01*
X57384647Y-36471376D02*
X57535838Y-36017804D01*
X57142742Y-36017804D01*
X56385580Y-35837888D02*
X56385580Y-36472888D01*
X55962247Y-36472888D02*
X55841295Y-36472888D01*
X55780819Y-36442650D01*
X55720342Y-36382173D01*
X55690104Y-36261221D01*
X55690104Y-36049554D01*
X55720342Y-35928602D01*
X55780819Y-35868126D01*
X55841295Y-35837888D01*
X55962247Y-35837888D01*
X56022723Y-35868126D01*
X56083200Y-35928602D01*
X56113438Y-36049554D01*
X56113438Y-36261221D01*
X56083200Y-36382173D01*
X56022723Y-36442650D01*
X55962247Y-36472888D01*
X55478438Y-36472888D02*
X55085342Y-36472888D01*
X55297009Y-36230983D01*
X55206295Y-36230983D01*
X55145819Y-36200745D01*
X55115580Y-36170507D01*
X55085342Y-36110030D01*
X55085342Y-35958840D01*
X55115580Y-35898364D01*
X55145819Y-35868126D01*
X55206295Y-35837888D01*
X55387723Y-35837888D01*
X55448200Y-35868126D01*
X55478438Y-35898364D01*
X54510819Y-36472888D02*
X54813200Y-36472888D01*
X54843438Y-36170507D01*
X54813200Y-36200745D01*
X54752723Y-36230983D01*
X54601533Y-36230983D01*
X54541057Y-36200745D01*
X54510819Y-36170507D01*
X54480580Y-36110030D01*
X54480580Y-35958840D01*
X54510819Y-35898364D01*
X54541057Y-35868126D01*
X54601533Y-35837888D01*
X54752723Y-35837888D01*
X54813200Y-35868126D01*
X54843438Y-35898364D01*
X53591580Y-35831538D02*
X53591580Y-36466538D01*
X53168247Y-36466538D02*
X53047295Y-36466538D01*
X52986819Y-36436300D01*
X52926342Y-36375823D01*
X52896104Y-36254871D01*
X52896104Y-36043204D01*
X52926342Y-35922252D01*
X52986819Y-35861776D01*
X53047295Y-35831538D01*
X53168247Y-35831538D01*
X53228723Y-35861776D01*
X53289200Y-35922252D01*
X53319438Y-36043204D01*
X53319438Y-36254871D01*
X53289200Y-36375823D01*
X53228723Y-36436300D01*
X53168247Y-36466538D01*
X52684438Y-36466538D02*
X52291342Y-36466538D01*
X52503009Y-36224633D01*
X52412295Y-36224633D01*
X52351819Y-36194395D01*
X52321580Y-36164157D01*
X52291342Y-36103680D01*
X52291342Y-35952490D01*
X52321580Y-35892014D01*
X52351819Y-35861776D01*
X52412295Y-35831538D01*
X52593723Y-35831538D01*
X52654200Y-35861776D01*
X52684438Y-35892014D01*
X52049438Y-36406061D02*
X52019200Y-36436300D01*
X51958723Y-36466538D01*
X51807533Y-36466538D01*
X51747057Y-36436300D01*
X51716819Y-36406061D01*
X51686580Y-36345585D01*
X51686580Y-36285109D01*
X51716819Y-36194395D01*
X52079676Y-35831538D01*
X51686580Y-35831538D01*
D12*
X76987400Y-38303200D02*
X49047400Y-38303200D01*
D13*
X49022000Y-38303200D02*
X49022000Y-32791400D01*
X49047400Y-35509200D02*
X76987400Y-35509200D01*
X49072800Y-32816800D02*
X77012800Y-32816800D01*
X61772800Y-38252400D02*
X61772800Y-35534600D01*
X66852800Y-35458400D02*
X66852800Y-32918400D01*
D12*
X77012800Y-32816800D02*
X77012800Y-38303200D01*
D13*
X59232800Y-35458400D02*
X59232800Y-32918400D01*
D11*
X72444428Y-97569261D02*
X72081571Y-97569261D01*
X72263000Y-97569261D02*
X72263000Y-96934261D01*
X72202523Y-97024976D01*
X72142047Y-97085452D01*
X72081571Y-97115690D01*
D13*
X59182000Y-30226000D02*
X59182000Y-27686000D01*
X66802000Y-30226000D02*
X66802000Y-27686000D01*
D14*
X61722000Y-30226000D02*
X61722000Y-30286000D01*
D13*
X61722000Y-32766000D02*
X61722000Y-30226000D01*
X49022000Y-30226000D02*
X76962000Y-30226000D01*
X49022000Y-32826000D02*
X49022000Y-22098000D01*
X77022000Y-32826000D02*
X49022000Y-32826000D01*
X77022000Y-22098000D02*
X77022000Y-32826000D01*
X49022000Y-27686000D02*
X76962000Y-27686000D01*
D11*
X74302257Y-35806138D02*
X74302257Y-36441138D01*
X74090590Y-35987566D01*
X73878923Y-36441138D01*
X73878923Y-35806138D01*
X73455590Y-36441138D02*
X73334638Y-36441138D01*
X73274161Y-36410900D01*
X73213685Y-36350423D01*
X73183447Y-36229471D01*
X73183447Y-36017804D01*
X73213685Y-35896852D01*
X73274161Y-35836376D01*
X73334638Y-35806138D01*
X73455590Y-35806138D01*
X73516066Y-35836376D01*
X73576542Y-35896852D01*
X73606780Y-36017804D01*
X73606780Y-36229471D01*
X73576542Y-36350423D01*
X73516066Y-36410900D01*
X73455590Y-36441138D01*
X72941542Y-35836376D02*
X72850828Y-35806138D01*
X72699638Y-35806138D01*
X72639161Y-35836376D01*
X72608923Y-35866614D01*
X72578685Y-35927090D01*
X72578685Y-35987566D01*
X72608923Y-36048042D01*
X72639161Y-36078280D01*
X72699638Y-36108519D01*
X72820590Y-36138757D01*
X72881066Y-36168995D01*
X72911304Y-36199233D01*
X72941542Y-36259709D01*
X72941542Y-36320185D01*
X72911304Y-36380661D01*
X72881066Y-36410900D01*
X72820590Y-36441138D01*
X72669400Y-36441138D01*
X72578685Y-36410900D01*
X72306542Y-35806138D02*
X72306542Y-36441138D01*
X76630590Y-36441138D02*
X76237495Y-36441138D01*
X76449161Y-36199233D01*
X76358447Y-36199233D01*
X76297971Y-36168995D01*
X76267733Y-36138757D01*
X76237495Y-36078280D01*
X76237495Y-35927090D01*
X76267733Y-35866614D01*
X76297971Y-35836376D01*
X76358447Y-35806138D01*
X76539876Y-35806138D01*
X76600352Y-35836376D01*
X76630590Y-35866614D01*
X76056066Y-36441138D02*
X75844400Y-35806138D01*
X75632733Y-36441138D01*
X75481542Y-36441138D02*
X75088447Y-36441138D01*
X75300114Y-36199233D01*
X75209400Y-36199233D01*
X75148923Y-36168995D01*
X75118685Y-36138757D01*
X75088447Y-36078280D01*
X75088447Y-35927090D01*
X75118685Y-35866614D01*
X75148923Y-35836376D01*
X75209400Y-35806138D01*
X75390828Y-35806138D01*
X75451304Y-35836376D01*
X75481542Y-35866614D01*
X63501209Y-36410900D02*
X63561685Y-36441138D01*
X63652400Y-36441138D01*
X63743114Y-36410900D01*
X63803590Y-36350423D01*
X63833828Y-36289947D01*
X63864066Y-36168995D01*
X63864066Y-36078280D01*
X63833828Y-35957328D01*
X63803590Y-35896852D01*
X63743114Y-35836376D01*
X63652400Y-35806138D01*
X63591923Y-35806138D01*
X63501209Y-35836376D01*
X63470971Y-35866614D01*
X63470971Y-36078280D01*
X63591923Y-36078280D01*
X63198828Y-35806138D02*
X63198828Y-36441138D01*
X62835971Y-35806138D01*
X62835971Y-36441138D01*
X62533590Y-35806138D02*
X62533590Y-36441138D01*
X62382400Y-36441138D01*
X62291685Y-36410900D01*
X62231209Y-36350423D01*
X62200971Y-36289947D01*
X62170733Y-36168995D01*
X62170733Y-36078280D01*
X62200971Y-35957328D01*
X62231209Y-35896852D01*
X62291685Y-35836376D01*
X62382400Y-35806138D01*
X62533590Y-35806138D01*
X68505614Y-35866614D02*
X68535852Y-35836376D01*
X68626566Y-35806138D01*
X68687042Y-35806138D01*
X68777757Y-35836376D01*
X68838233Y-35896852D01*
X68868471Y-35957328D01*
X68898709Y-36078280D01*
X68898709Y-36168995D01*
X68868471Y-36289947D01*
X68838233Y-36350423D01*
X68777757Y-36410900D01*
X68687042Y-36441138D01*
X68626566Y-36441138D01*
X68535852Y-36410900D01*
X68505614Y-36380661D01*
X68263709Y-35836376D02*
X68172995Y-35806138D01*
X68021804Y-35806138D01*
X67961328Y-35836376D01*
X67931090Y-35866614D01*
X67900852Y-35927090D01*
X67900852Y-35987566D01*
X67931090Y-36048042D01*
X67961328Y-36078280D01*
X68021804Y-36108519D01*
X68142757Y-36138757D01*
X68203233Y-36168995D01*
X68233471Y-36199233D01*
X68263709Y-36259709D01*
X68263709Y-36320185D01*
X68233471Y-36380661D01*
X68203233Y-36410900D01*
X68142757Y-36441138D01*
X67991566Y-36441138D01*
X67900852Y-36410900D01*
X67507757Y-36441138D02*
X67447280Y-36441138D01*
X67386804Y-36410900D01*
X67356566Y-36380661D01*
X67326328Y-36320185D01*
X67296090Y-36199233D01*
X67296090Y-36048042D01*
X67326328Y-35927090D01*
X67356566Y-35866614D01*
X67386804Y-35836376D01*
X67447280Y-35806138D01*
X67507757Y-35806138D01*
X67568233Y-35836376D01*
X67598471Y-35866614D01*
X67628709Y-35927090D01*
X67658947Y-36048042D01*
X67658947Y-36199233D01*
X67628709Y-36320185D01*
X67598471Y-36380661D01*
X67568233Y-36410900D01*
X67507757Y-36441138D01*
X65935376Y-35866614D02*
X65965614Y-35836376D01*
X66056328Y-35806138D01*
X66116804Y-35806138D01*
X66207519Y-35836376D01*
X66267995Y-35896852D01*
X66298233Y-35957328D01*
X66328471Y-36078280D01*
X66328471Y-36168995D01*
X66298233Y-36289947D01*
X66267995Y-36350423D01*
X66207519Y-36410900D01*
X66116804Y-36441138D01*
X66056328Y-36441138D01*
X65965614Y-36410900D01*
X65935376Y-36380661D01*
X65360852Y-35806138D02*
X65663233Y-35806138D01*
X65663233Y-36441138D01*
X65149185Y-35806138D02*
X65149185Y-36441138D01*
X64786328Y-35806138D02*
X65058471Y-36168995D01*
X64786328Y-36441138D02*
X65149185Y-36078280D01*
X71635257Y-35806138D02*
X71635257Y-36441138D01*
X71423590Y-35987566D01*
X71211923Y-36441138D01*
X71211923Y-35806138D01*
X70909542Y-35806138D02*
X70909542Y-36441138D01*
X70637400Y-35836376D02*
X70546685Y-35806138D01*
X70395495Y-35806138D01*
X70335019Y-35836376D01*
X70304780Y-35866614D01*
X70274542Y-35927090D01*
X70274542Y-35987566D01*
X70304780Y-36048042D01*
X70335019Y-36078280D01*
X70395495Y-36108519D01*
X70516447Y-36138757D01*
X70576923Y-36168995D01*
X70607161Y-36199233D01*
X70637400Y-36259709D01*
X70637400Y-36320185D01*
X70607161Y-36380661D01*
X70576923Y-36410900D01*
X70516447Y-36441138D01*
X70365257Y-36441138D01*
X70274542Y-36410900D01*
X69881447Y-36441138D02*
X69760495Y-36441138D01*
X69700019Y-36410900D01*
X69639542Y-36350423D01*
X69609304Y-36229471D01*
X69609304Y-36017804D01*
X69639542Y-35896852D01*
X69700019Y-35836376D01*
X69760495Y-35806138D01*
X69881447Y-35806138D01*
X69941923Y-35836376D01*
X70002400Y-35896852D01*
X70032638Y-36017804D01*
X70032638Y-36229471D01*
X70002400Y-36350423D01*
X69941923Y-36410900D01*
X69881447Y-36441138D01*
X61500657Y-36466538D02*
X61288990Y-35831538D01*
X61077323Y-36466538D01*
X60653990Y-36164157D02*
X60563276Y-36133919D01*
X60533038Y-36103680D01*
X60502800Y-36043204D01*
X60502800Y-35952490D01*
X60533038Y-35892014D01*
X60563276Y-35861776D01*
X60623752Y-35831538D01*
X60865657Y-35831538D01*
X60865657Y-36466538D01*
X60653990Y-36466538D01*
X60593514Y-36436300D01*
X60563276Y-36406061D01*
X60533038Y-36345585D01*
X60533038Y-36285109D01*
X60563276Y-36224633D01*
X60593514Y-36194395D01*
X60653990Y-36164157D01*
X60865657Y-36164157D01*
X59958514Y-35831538D02*
X59958514Y-36164157D01*
X59988752Y-36224633D01*
X60049228Y-36254871D01*
X60170180Y-36254871D01*
X60230657Y-36224633D01*
X59958514Y-35861776D02*
X60018990Y-35831538D01*
X60170180Y-35831538D01*
X60230657Y-35861776D01*
X60260895Y-35922252D01*
X60260895Y-35982728D01*
X60230657Y-36043204D01*
X60170180Y-36073442D01*
X60018990Y-36073442D01*
X59958514Y-36103680D01*
X59746847Y-36254871D02*
X59504942Y-36254871D01*
X59656133Y-36466538D02*
X59656133Y-35922252D01*
X59625895Y-35861776D01*
X59565419Y-35831538D01*
X59504942Y-35831538D01*
X50674209Y-36461700D02*
X50734685Y-36491938D01*
X50825400Y-36491938D01*
X50916114Y-36461700D01*
X50976590Y-36401223D01*
X51006828Y-36340747D01*
X51037066Y-36219795D01*
X51037066Y-36129080D01*
X51006828Y-36008128D01*
X50976590Y-35947652D01*
X50916114Y-35887176D01*
X50825400Y-35856938D01*
X50764923Y-35856938D01*
X50674209Y-35887176D01*
X50643971Y-35917414D01*
X50643971Y-36129080D01*
X50764923Y-36129080D01*
X50371828Y-35856938D02*
X50371828Y-36491938D01*
X50008971Y-35856938D01*
X50008971Y-36491938D01*
X49706590Y-35856938D02*
X49706590Y-36491938D01*
X49555400Y-36491938D01*
X49464685Y-36461700D01*
X49404209Y-36401223D01*
X49373971Y-36340747D01*
X49343733Y-36219795D01*
X49343733Y-36129080D01*
X49373971Y-36008128D01*
X49404209Y-35947652D01*
X49464685Y-35887176D01*
X49555400Y-35856938D01*
X49706590Y-35856938D01*
X63566523Y-33397976D02*
X63506047Y-33367738D01*
X63385095Y-33367738D01*
X63324619Y-33397976D01*
X63294380Y-33458452D01*
X63294380Y-33488690D01*
X63324619Y-33549166D01*
X63385095Y-33579404D01*
X63475809Y-33579404D01*
X63536285Y-33609642D01*
X63566523Y-33670119D01*
X63566523Y-33700357D01*
X63536285Y-33760833D01*
X63475809Y-33791071D01*
X63385095Y-33791071D01*
X63324619Y-33760833D01*
X63022238Y-33367738D02*
X63022238Y-33791071D01*
X63022238Y-34002738D02*
X63052476Y-33972500D01*
X63022238Y-33942261D01*
X62992000Y-33972500D01*
X63022238Y-34002738D01*
X63022238Y-33942261D01*
X62447714Y-33791071D02*
X62447714Y-33277023D01*
X62477952Y-33216547D01*
X62508190Y-33186309D01*
X62568666Y-33156071D01*
X62659380Y-33156071D01*
X62719857Y-33186309D01*
X62447714Y-33397976D02*
X62508190Y-33367738D01*
X62629142Y-33367738D01*
X62689619Y-33397976D01*
X62719857Y-33428214D01*
X62750095Y-33488690D01*
X62750095Y-33670119D01*
X62719857Y-33730595D01*
X62689619Y-33760833D01*
X62629142Y-33791071D01*
X62508190Y-33791071D01*
X62447714Y-33760833D01*
X66479057Y-33850338D02*
X66267390Y-33215338D01*
X66055723Y-33850338D01*
X65632390Y-33547957D02*
X65541676Y-33517719D01*
X65511438Y-33487480D01*
X65481200Y-33427004D01*
X65481200Y-33336290D01*
X65511438Y-33275814D01*
X65541676Y-33245576D01*
X65602152Y-33215338D01*
X65844057Y-33215338D01*
X65844057Y-33850338D01*
X65632390Y-33850338D01*
X65571914Y-33820100D01*
X65541676Y-33789861D01*
X65511438Y-33729385D01*
X65511438Y-33668909D01*
X65541676Y-33608433D01*
X65571914Y-33578195D01*
X65632390Y-33547957D01*
X65844057Y-33547957D01*
X64936914Y-33215338D02*
X64936914Y-33547957D01*
X64967152Y-33608433D01*
X65027628Y-33638671D01*
X65148580Y-33638671D01*
X65209057Y-33608433D01*
X64936914Y-33245576D02*
X64997390Y-33215338D01*
X65148580Y-33215338D01*
X65209057Y-33245576D01*
X65239295Y-33306052D01*
X65239295Y-33366528D01*
X65209057Y-33427004D01*
X65148580Y-33457242D01*
X64997390Y-33457242D01*
X64936914Y-33487480D01*
X64725247Y-33638671D02*
X64483342Y-33638671D01*
X64634533Y-33850338D02*
X64634533Y-33306052D01*
X64604295Y-33245576D01*
X64543819Y-33215338D01*
X64483342Y-33215338D01*
X60935809Y-33769300D02*
X60996285Y-33799538D01*
X61087000Y-33799538D01*
X61177714Y-33769300D01*
X61238190Y-33708823D01*
X61268428Y-33648347D01*
X61298666Y-33527395D01*
X61298666Y-33436680D01*
X61268428Y-33315728D01*
X61238190Y-33255252D01*
X61177714Y-33194776D01*
X61087000Y-33164538D01*
X61026523Y-33164538D01*
X60935809Y-33194776D01*
X60905571Y-33225014D01*
X60905571Y-33436680D01*
X61026523Y-33436680D01*
X60633428Y-33164538D02*
X60633428Y-33799538D01*
X60270571Y-33164538D01*
X60270571Y-33799538D01*
X59968190Y-33164538D02*
X59968190Y-33799538D01*
X59817000Y-33799538D01*
X59726285Y-33769300D01*
X59665809Y-33708823D01*
X59635571Y-33648347D01*
X59605333Y-33527395D01*
X59605333Y-33436680D01*
X59635571Y-33315728D01*
X59665809Y-33255252D01*
X59726285Y-33194776D01*
X59817000Y-33164538D01*
X59968190Y-33164538D01*
X56178752Y-33194776D02*
X56088038Y-33164538D01*
X55936847Y-33164538D01*
X55876371Y-33194776D01*
X55846133Y-33225014D01*
X55815895Y-33285490D01*
X55815895Y-33345966D01*
X55846133Y-33406442D01*
X55876371Y-33436680D01*
X55936847Y-33466919D01*
X56057800Y-33497157D01*
X56118276Y-33527395D01*
X56148514Y-33557633D01*
X56178752Y-33618109D01*
X56178752Y-33678585D01*
X56148514Y-33739061D01*
X56118276Y-33769300D01*
X56057800Y-33799538D01*
X55906609Y-33799538D01*
X55815895Y-33769300D01*
X55180895Y-33225014D02*
X55211133Y-33194776D01*
X55301847Y-33164538D01*
X55362323Y-33164538D01*
X55453038Y-33194776D01*
X55513514Y-33255252D01*
X55543752Y-33315728D01*
X55573990Y-33436680D01*
X55573990Y-33527395D01*
X55543752Y-33648347D01*
X55513514Y-33708823D01*
X55453038Y-33769300D01*
X55362323Y-33799538D01*
X55301847Y-33799538D01*
X55211133Y-33769300D01*
X55180895Y-33739061D01*
X54606371Y-33164538D02*
X54908752Y-33164538D01*
X54908752Y-33799538D01*
X50699609Y-33769300D02*
X50760085Y-33799538D01*
X50850800Y-33799538D01*
X50941514Y-33769300D01*
X51001990Y-33708823D01*
X51032228Y-33648347D01*
X51062466Y-33527395D01*
X51062466Y-33436680D01*
X51032228Y-33315728D01*
X51001990Y-33255252D01*
X50941514Y-33194776D01*
X50850800Y-33164538D01*
X50790323Y-33164538D01*
X50699609Y-33194776D01*
X50669371Y-33225014D01*
X50669371Y-33436680D01*
X50790323Y-33436680D01*
X50397228Y-33164538D02*
X50397228Y-33799538D01*
X50034371Y-33164538D01*
X50034371Y-33799538D01*
X49731990Y-33164538D02*
X49731990Y-33799538D01*
X49580800Y-33799538D01*
X49490085Y-33769300D01*
X49429609Y-33708823D01*
X49399371Y-33648347D01*
X49369133Y-33527395D01*
X49369133Y-33436680D01*
X49399371Y-33315728D01*
X49429609Y-33255252D01*
X49490085Y-33194776D01*
X49580800Y-33164538D01*
X49731990Y-33164538D01*
X58748990Y-33799538D02*
X58355895Y-33799538D01*
X58567561Y-33557633D01*
X58476847Y-33557633D01*
X58416371Y-33527395D01*
X58386133Y-33497157D01*
X58355895Y-33436680D01*
X58355895Y-33285490D01*
X58386133Y-33225014D01*
X58416371Y-33194776D01*
X58476847Y-33164538D01*
X58658276Y-33164538D01*
X58718752Y-33194776D01*
X58748990Y-33225014D01*
X58174466Y-33799538D02*
X57962800Y-33164538D01*
X57751133Y-33799538D01*
X57599942Y-33799538D02*
X57206847Y-33799538D01*
X57418514Y-33557633D01*
X57327800Y-33557633D01*
X57267323Y-33527395D01*
X57237085Y-33497157D01*
X57206847Y-33436680D01*
X57206847Y-33285490D01*
X57237085Y-33225014D01*
X57267323Y-33194776D01*
X57327800Y-33164538D01*
X57509228Y-33164538D01*
X57569704Y-33194776D01*
X57599942Y-33225014D01*
X53653871Y-33194776D02*
X53563157Y-33164538D01*
X53411966Y-33164538D01*
X53351490Y-33194776D01*
X53321252Y-33225014D01*
X53291014Y-33285490D01*
X53291014Y-33345966D01*
X53321252Y-33406442D01*
X53351490Y-33436680D01*
X53411966Y-33466919D01*
X53532919Y-33497157D01*
X53593395Y-33527395D01*
X53623633Y-33557633D01*
X53653871Y-33618109D01*
X53653871Y-33678585D01*
X53623633Y-33739061D01*
X53593395Y-33769300D01*
X53532919Y-33799538D01*
X53381728Y-33799538D01*
X53291014Y-33769300D01*
X53018871Y-33164538D02*
X53018871Y-33799538D01*
X52867680Y-33799538D01*
X52776966Y-33769300D01*
X52716490Y-33708823D01*
X52686252Y-33648347D01*
X52656014Y-33527395D01*
X52656014Y-33436680D01*
X52686252Y-33315728D01*
X52716490Y-33255252D01*
X52776966Y-33194776D01*
X52867680Y-33164538D01*
X53018871Y-33164538D01*
X52414109Y-33345966D02*
X52111728Y-33345966D01*
X52474585Y-33164538D02*
X52262919Y-33799538D01*
X52051252Y-33164538D01*
X71095809Y-33824938D02*
X70732952Y-33824938D01*
X70914380Y-33189938D02*
X70914380Y-33824938D01*
X70581761Y-33824938D02*
X70158428Y-33189938D01*
X70158428Y-33824938D02*
X70581761Y-33189938D01*
X73257833Y-33189938D02*
X73469500Y-33492319D01*
X73620690Y-33189938D02*
X73620690Y-33824938D01*
X73378785Y-33824938D01*
X73318309Y-33794700D01*
X73288071Y-33764461D01*
X73257833Y-33703985D01*
X73257833Y-33613271D01*
X73288071Y-33552795D01*
X73318309Y-33522557D01*
X73378785Y-33492319D01*
X73620690Y-33492319D01*
X73046166Y-33824938D02*
X72622833Y-33189938D01*
X72622833Y-33824938D02*
X73046166Y-33189938D01*
X76605190Y-33824938D02*
X76212095Y-33824938D01*
X76423761Y-33583033D01*
X76333047Y-33583033D01*
X76272571Y-33552795D01*
X76242333Y-33522557D01*
X76212095Y-33462080D01*
X76212095Y-33310890D01*
X76242333Y-33250414D01*
X76272571Y-33220176D01*
X76333047Y-33189938D01*
X76514476Y-33189938D01*
X76574952Y-33220176D01*
X76605190Y-33250414D01*
X76030666Y-33824938D02*
X75819000Y-33189938D01*
X75607333Y-33824938D01*
X75456142Y-33824938D02*
X75063047Y-33824938D01*
X75274714Y-33583033D01*
X75184000Y-33583033D01*
X75123523Y-33552795D01*
X75093285Y-33522557D01*
X75063047Y-33462080D01*
X75063047Y-33310890D01*
X75093285Y-33250414D01*
X75123523Y-33220176D01*
X75184000Y-33189938D01*
X75365428Y-33189938D01*
X75425904Y-33220176D01*
X75456142Y-33250414D01*
X68555809Y-33794700D02*
X68616285Y-33824938D01*
X68707000Y-33824938D01*
X68797714Y-33794700D01*
X68858190Y-33734223D01*
X68888428Y-33673747D01*
X68918666Y-33552795D01*
X68918666Y-33462080D01*
X68888428Y-33341128D01*
X68858190Y-33280652D01*
X68797714Y-33220176D01*
X68707000Y-33189938D01*
X68646523Y-33189938D01*
X68555809Y-33220176D01*
X68525571Y-33250414D01*
X68525571Y-33462080D01*
X68646523Y-33462080D01*
X68253428Y-33189938D02*
X68253428Y-33824938D01*
X67890571Y-33189938D01*
X67890571Y-33824938D01*
X67588190Y-33189938D02*
X67588190Y-33824938D01*
X67437000Y-33824938D01*
X67346285Y-33794700D01*
X67285809Y-33734223D01*
X67255571Y-33673747D01*
X67225333Y-33552795D01*
X67225333Y-33462080D01*
X67255571Y-33341128D01*
X67285809Y-33280652D01*
X67346285Y-33220176D01*
X67437000Y-33189938D01*
X67588190Y-33189938D01*
D10*
X70497700Y-37037433D02*
X70497700Y-37926433D01*
X70497700Y-37503100D02*
X69989700Y-37503100D01*
X69989700Y-37037433D02*
X69989700Y-37926433D01*
X69608700Y-37079766D02*
X69481700Y-37037433D01*
X69270033Y-37037433D01*
X69185366Y-37079766D01*
X69143033Y-37122100D01*
X69100700Y-37206766D01*
X69100700Y-37291433D01*
X69143033Y-37376100D01*
X69185366Y-37418433D01*
X69270033Y-37460766D01*
X69439366Y-37503100D01*
X69524033Y-37545433D01*
X69566366Y-37587766D01*
X69608700Y-37672433D01*
X69608700Y-37757100D01*
X69566366Y-37841766D01*
X69524033Y-37884100D01*
X69439366Y-37926433D01*
X69227700Y-37926433D01*
X69100700Y-37884100D01*
X68719700Y-37037433D02*
X68719700Y-37926433D01*
X68381033Y-37926433D01*
X68296366Y-37884100D01*
X68254033Y-37841766D01*
X68211700Y-37757100D01*
X68211700Y-37630100D01*
X68254033Y-37545433D01*
X68296366Y-37503100D01*
X68381033Y-37460766D01*
X68719700Y-37460766D01*
X67830700Y-37037433D02*
X67830700Y-37926433D01*
X56824033Y-37858700D02*
X56908700Y-37901033D01*
X57035700Y-37901033D01*
X57162700Y-37858700D01*
X57247366Y-37774033D01*
X57289700Y-37689366D01*
X57332033Y-37520033D01*
X57332033Y-37393033D01*
X57289700Y-37223700D01*
X57247366Y-37139033D01*
X57162700Y-37054366D01*
X57035700Y-37012033D01*
X56951033Y-37012033D01*
X56824033Y-37054366D01*
X56781700Y-37096700D01*
X56781700Y-37393033D01*
X56951033Y-37393033D01*
X56400700Y-37012033D02*
X56400700Y-37901033D01*
X56062033Y-37901033D01*
X55977366Y-37858700D01*
X55935033Y-37816366D01*
X55892700Y-37731700D01*
X55892700Y-37604700D01*
X55935033Y-37520033D01*
X55977366Y-37477700D01*
X56062033Y-37435366D01*
X56400700Y-37435366D01*
X55511700Y-37012033D02*
X55511700Y-37901033D01*
X54919033Y-37901033D02*
X54749700Y-37901033D01*
X54665033Y-37858700D01*
X54580366Y-37774033D01*
X54538033Y-37604700D01*
X54538033Y-37308366D01*
X54580366Y-37139033D01*
X54665033Y-37054366D01*
X54749700Y-37012033D01*
X54919033Y-37012033D01*
X55003700Y-37054366D01*
X55088366Y-37139033D01*
X55130700Y-37308366D01*
X55130700Y-37604700D01*
X55088366Y-37774033D01*
X55003700Y-37858700D01*
X54919033Y-37901033D01*
X54199366Y-37054366D02*
X54114700Y-37012033D01*
X53945366Y-37012033D01*
X53860700Y-37054366D01*
X53818366Y-37139033D01*
X53818366Y-37181366D01*
X53860700Y-37266033D01*
X53945366Y-37308366D01*
X54072366Y-37308366D01*
X54157033Y-37350700D01*
X54199366Y-37435366D01*
X54199366Y-37477700D01*
X54157033Y-37562366D01*
X54072366Y-37604700D01*
X53945366Y-37604700D01*
X53860700Y-37562366D01*
X55020633Y-34294233D02*
X55020633Y-35183233D01*
X54639633Y-35098566D02*
X54597300Y-35140900D01*
X54512633Y-35183233D01*
X54300966Y-35183233D01*
X54216300Y-35140900D01*
X54173966Y-35098566D01*
X54131633Y-35013900D01*
X54131633Y-34929233D01*
X54173966Y-34802233D01*
X54681966Y-34294233D01*
X54131633Y-34294233D01*
X53242633Y-34378900D02*
X53284966Y-34336566D01*
X53411966Y-34294233D01*
X53496633Y-34294233D01*
X53623633Y-34336566D01*
X53708300Y-34421233D01*
X53750633Y-34505900D01*
X53792966Y-34675233D01*
X53792966Y-34802233D01*
X53750633Y-34971566D01*
X53708300Y-35056233D01*
X53623633Y-35140900D01*
X53496633Y-35183233D01*
X53411966Y-35183233D01*
X53284966Y-35140900D01*
X53242633Y-35098566D01*
X64380533Y-34319633D02*
X64380533Y-35208633D01*
X64168866Y-35208633D01*
X64041866Y-35166300D01*
X63957200Y-35081633D01*
X63914866Y-34996966D01*
X63872533Y-34827633D01*
X63872533Y-34700633D01*
X63914866Y-34531300D01*
X63957200Y-34446633D01*
X64041866Y-34361966D01*
X64168866Y-34319633D01*
X64380533Y-34319633D01*
X63364533Y-34319633D02*
X63449200Y-34361966D01*
X63491533Y-34404300D01*
X63533866Y-34488966D01*
X63533866Y-34742966D01*
X63491533Y-34827633D01*
X63449200Y-34869966D01*
X63364533Y-34912300D01*
X63237533Y-34912300D01*
X63152866Y-34869966D01*
X63110533Y-34827633D01*
X63068200Y-34742966D01*
X63068200Y-34488966D01*
X63110533Y-34404300D01*
X63152866Y-34361966D01*
X63237533Y-34319633D01*
X63364533Y-34319633D01*
X62560200Y-34319633D02*
X62644866Y-34361966D01*
X62687200Y-34404300D01*
X62729533Y-34488966D01*
X62729533Y-34742966D01*
X62687200Y-34827633D01*
X62644866Y-34869966D01*
X62560200Y-34912300D01*
X62433200Y-34912300D01*
X62348533Y-34869966D01*
X62306200Y-34827633D01*
X62263866Y-34742966D01*
X62263866Y-34488966D01*
X62306200Y-34404300D01*
X62348533Y-34361966D01*
X62433200Y-34319633D01*
X62560200Y-34319633D01*
X61882866Y-34319633D02*
X61882866Y-34912300D01*
X61882866Y-34742966D02*
X61840533Y-34827633D01*
X61798200Y-34869966D01*
X61713533Y-34912300D01*
X61628866Y-34912300D01*
X73376366Y-35056233D02*
X73376366Y-34336566D01*
X73334033Y-34251900D01*
X73291700Y-34209566D01*
X73207033Y-34167233D01*
X73037700Y-34167233D01*
X72953033Y-34209566D01*
X72910700Y-34251900D01*
X72868366Y-34336566D01*
X72868366Y-35056233D01*
X72487366Y-34421233D02*
X72064033Y-34421233D01*
X72572033Y-34167233D02*
X72275700Y-35056233D01*
X71979366Y-34167233D01*
X71175033Y-34167233D02*
X71471366Y-34590566D01*
X71683033Y-34167233D02*
X71683033Y-35056233D01*
X71344366Y-35056233D01*
X71259700Y-35013900D01*
X71217366Y-34971566D01*
X71175033Y-34886900D01*
X71175033Y-34759900D01*
X71217366Y-34675233D01*
X71259700Y-34632900D01*
X71344366Y-34590566D01*
X71683033Y-34590566D01*
X70921033Y-35056233D02*
X70413033Y-35056233D01*
X70667033Y-34167233D02*
X70667033Y-35056233D01*
D12*
X80596619Y-59236428D02*
X81419095Y-59236428D01*
X81515857Y-59188047D01*
X81564238Y-59139666D01*
X81612619Y-59042904D01*
X81612619Y-58849380D01*
X81564238Y-58752619D01*
X81515857Y-58704238D01*
X81419095Y-58655857D01*
X80596619Y-58655857D01*
X81564238Y-58220428D02*
X81612619Y-58123666D01*
X81612619Y-57930142D01*
X81564238Y-57833380D01*
X81467476Y-57785000D01*
X81419095Y-57785000D01*
X81322333Y-57833380D01*
X81273952Y-57930142D01*
X81273952Y-58075285D01*
X81225571Y-58172047D01*
X81128809Y-58220428D01*
X81080428Y-58220428D01*
X80983666Y-58172047D01*
X80935285Y-58075285D01*
X80935285Y-57930142D01*
X80983666Y-57833380D01*
X81564238Y-56962523D02*
X81612619Y-57059285D01*
X81612619Y-57252809D01*
X81564238Y-57349571D01*
X81467476Y-57397952D01*
X81080428Y-57397952D01*
X80983666Y-57349571D01*
X80935285Y-57252809D01*
X80935285Y-57059285D01*
X80983666Y-56962523D01*
X81080428Y-56914142D01*
X81177190Y-56914142D01*
X81273952Y-57397952D01*
X81612619Y-56478714D02*
X80935285Y-56478714D01*
X81128809Y-56478714D02*
X81032047Y-56430333D01*
X80983666Y-56381952D01*
X80935285Y-56285190D01*
X80935285Y-56188428D01*
D10*
X81682166Y-47265166D02*
X81258833Y-47561500D01*
X81682166Y-47773166D02*
X80793166Y-47773166D01*
X80793166Y-47434500D01*
X80835500Y-47349833D01*
X80877833Y-47307500D01*
X80962500Y-47265166D01*
X81089500Y-47265166D01*
X81174166Y-47307500D01*
X81216500Y-47349833D01*
X81258833Y-47434500D01*
X81258833Y-47773166D01*
X80793166Y-46968833D02*
X81682166Y-46376166D01*
X80793166Y-46376166D02*
X81682166Y-46968833D01*
X80793166Y-53128333D02*
X80793166Y-52620333D01*
X81682166Y-52874333D02*
X80793166Y-52874333D01*
X80793166Y-52408666D02*
X81682166Y-51816000D01*
X80793166Y-51816000D02*
X81682166Y-52408666D01*
D11*
X81252785Y-100354190D02*
X81283023Y-100384428D01*
X81313261Y-100475142D01*
X81313261Y-100535619D01*
X81283023Y-100626333D01*
X81222547Y-100686809D01*
X81162071Y-100717047D01*
X81041119Y-100747285D01*
X80950404Y-100747285D01*
X80829452Y-100717047D01*
X80768976Y-100686809D01*
X80708500Y-100626333D01*
X80678261Y-100535619D01*
X80678261Y-100475142D01*
X80708500Y-100384428D01*
X80738738Y-100354190D01*
X81313261Y-100082047D02*
X80678261Y-100082047D01*
X81313261Y-99809904D02*
X80980642Y-99809904D01*
X80920166Y-99840142D01*
X80889928Y-99900619D01*
X80889928Y-99991333D01*
X80920166Y-100051809D01*
X80950404Y-100082047D01*
X81313261Y-99235380D02*
X80980642Y-99235380D01*
X80920166Y-99265619D01*
X80889928Y-99326095D01*
X80889928Y-99447047D01*
X80920166Y-99507523D01*
X81283023Y-99235380D02*
X81313261Y-99295857D01*
X81313261Y-99447047D01*
X81283023Y-99507523D01*
X81222547Y-99537761D01*
X81162071Y-99537761D01*
X81101595Y-99507523D01*
X81071357Y-99447047D01*
X81071357Y-99295857D01*
X81041119Y-99235380D01*
X81313261Y-98933000D02*
X80889928Y-98933000D01*
X81010880Y-98933000D02*
X80950404Y-98902761D01*
X80920166Y-98872523D01*
X80889928Y-98812047D01*
X80889928Y-98751571D01*
X80889928Y-98267761D02*
X81403976Y-98267761D01*
X81464452Y-98298000D01*
X81494690Y-98328238D01*
X81524928Y-98388714D01*
X81524928Y-98479428D01*
X81494690Y-98539904D01*
X81283023Y-98267761D02*
X81313261Y-98328238D01*
X81313261Y-98449190D01*
X81283023Y-98509666D01*
X81252785Y-98539904D01*
X81192309Y-98570142D01*
X81010880Y-98570142D01*
X80950404Y-98539904D01*
X80920166Y-98509666D01*
X80889928Y-98449190D01*
X80889928Y-98328238D01*
X80920166Y-98267761D01*
X81283023Y-97723476D02*
X81313261Y-97783952D01*
X81313261Y-97904904D01*
X81283023Y-97965380D01*
X81222547Y-97995619D01*
X80980642Y-97995619D01*
X80920166Y-97965380D01*
X80889928Y-97904904D01*
X80889928Y-97783952D01*
X80920166Y-97723476D01*
X80980642Y-97693238D01*
X81041119Y-97693238D01*
X81101595Y-97995619D01*
X81313261Y-97148952D02*
X80678261Y-97148952D01*
X81283023Y-97148952D02*
X81313261Y-97209428D01*
X81313261Y-97330380D01*
X81283023Y-97390857D01*
X81252785Y-97421095D01*
X81192309Y-97451333D01*
X81010880Y-97451333D01*
X80950404Y-97421095D01*
X80920166Y-97390857D01*
X80889928Y-97330380D01*
X80889928Y-97209428D01*
X80920166Y-97148952D01*
D10*
X81322333Y-65072380D02*
X81322333Y-64588571D01*
X81612619Y-65169142D02*
X80596619Y-64830476D01*
X81612619Y-64491809D01*
X80935285Y-64249904D02*
X81612619Y-64056380D01*
X81128809Y-63862857D01*
X81612619Y-63669333D01*
X80935285Y-63475809D01*
X81612619Y-62653333D02*
X81080428Y-62653333D01*
X80983666Y-62701714D01*
X80935285Y-62798476D01*
X80935285Y-62992000D01*
X80983666Y-63088761D01*
X81564238Y-62653333D02*
X81612619Y-62750095D01*
X81612619Y-62992000D01*
X81564238Y-63088761D01*
X81467476Y-63137142D01*
X81370714Y-63137142D01*
X81273952Y-63088761D01*
X81225571Y-62992000D01*
X81225571Y-62750095D01*
X81177190Y-62653333D01*
X81612619Y-62169523D02*
X80596619Y-62169523D01*
X81225571Y-62072761D02*
X81612619Y-61782476D01*
X80935285Y-61782476D02*
X81322333Y-62169523D01*
X81564238Y-60960000D02*
X81612619Y-61056761D01*
X81612619Y-61250285D01*
X81564238Y-61347047D01*
X81467476Y-61395428D01*
X81080428Y-61395428D01*
X80983666Y-61347047D01*
X80935285Y-61250285D01*
X80935285Y-61056761D01*
X80983666Y-60960000D01*
X81080428Y-60911619D01*
X81177190Y-60911619D01*
X81273952Y-61395428D01*
D11*
X81252785Y-105727500D02*
X81283023Y-105757738D01*
X81313261Y-105848452D01*
X81313261Y-105908928D01*
X81283023Y-105999642D01*
X81222547Y-106060119D01*
X81162071Y-106090357D01*
X81041119Y-106120595D01*
X80950404Y-106120595D01*
X80829452Y-106090357D01*
X80768976Y-106060119D01*
X80708500Y-105999642D01*
X80678261Y-105908928D01*
X80678261Y-105848452D01*
X80708500Y-105757738D01*
X80738738Y-105727500D01*
X81313261Y-105455357D02*
X80678261Y-105455357D01*
X81313261Y-105183214D02*
X80980642Y-105183214D01*
X80920166Y-105213452D01*
X80889928Y-105273928D01*
X80889928Y-105364642D01*
X80920166Y-105425119D01*
X80950404Y-105455357D01*
X81313261Y-104608690D02*
X80980642Y-104608690D01*
X80920166Y-104638928D01*
X80889928Y-104699404D01*
X80889928Y-104820357D01*
X80920166Y-104880833D01*
X81283023Y-104608690D02*
X81313261Y-104669166D01*
X81313261Y-104820357D01*
X81283023Y-104880833D01*
X81222547Y-104911071D01*
X81162071Y-104911071D01*
X81101595Y-104880833D01*
X81071357Y-104820357D01*
X81071357Y-104669166D01*
X81041119Y-104608690D01*
X81313261Y-104306309D02*
X80889928Y-104306309D01*
X81010880Y-104306309D02*
X80950404Y-104276071D01*
X80920166Y-104245833D01*
X80889928Y-104185357D01*
X80889928Y-104124880D01*
X80889928Y-103641071D02*
X81403976Y-103641071D01*
X81464452Y-103671309D01*
X81494690Y-103701547D01*
X81524928Y-103762023D01*
X81524928Y-103852738D01*
X81494690Y-103913214D01*
X81283023Y-103641071D02*
X81313261Y-103701547D01*
X81313261Y-103822500D01*
X81283023Y-103882976D01*
X81252785Y-103913214D01*
X81192309Y-103943452D01*
X81010880Y-103943452D01*
X80950404Y-103913214D01*
X80920166Y-103882976D01*
X80889928Y-103822500D01*
X80889928Y-103701547D01*
X80920166Y-103641071D01*
X81313261Y-103338690D02*
X80889928Y-103338690D01*
X80678261Y-103338690D02*
X80708500Y-103368928D01*
X80738738Y-103338690D01*
X80708500Y-103308452D01*
X80678261Y-103338690D01*
X80738738Y-103338690D01*
X80889928Y-103036309D02*
X81313261Y-103036309D01*
X80950404Y-103036309D02*
X80920166Y-103006071D01*
X80889928Y-102945595D01*
X80889928Y-102854880D01*
X80920166Y-102794404D01*
X80980642Y-102764166D01*
X81313261Y-102764166D01*
X80889928Y-102189642D02*
X81403976Y-102189642D01*
X81464452Y-102219880D01*
X81494690Y-102250119D01*
X81524928Y-102310595D01*
X81524928Y-102401309D01*
X81494690Y-102461785D01*
X81283023Y-102189642D02*
X81313261Y-102250119D01*
X81313261Y-102371071D01*
X81283023Y-102431547D01*
X81252785Y-102461785D01*
X81192309Y-102492023D01*
X81010880Y-102492023D01*
X80950404Y-102461785D01*
X80920166Y-102431547D01*
X80889928Y-102371071D01*
X80889928Y-102250119D01*
X80920166Y-102189642D01*
D15*
X64207000Y-95813000D02*
X70667000Y-95813000D01*
X70667000Y-95813000D02*
X70667000Y-89353000D01*
X64207000Y-95813000D02*
X64207000Y-89353000D01*
X64207000Y-89353000D02*
X70667000Y-89353000D01*
X50698400Y-69240400D02*
X50063400Y-69240400D01*
X50698400Y-71272400D02*
X50063400Y-71272400D01*
X54127400Y-69240400D02*
X53492400Y-69240400D01*
X54127400Y-71272400D02*
X53492400Y-71272400D01*
X54127400Y-71272400D02*
X54127400Y-69240400D01*
X50063400Y-69240400D02*
X50063400Y-71272400D01*
X76733400Y-85445600D02*
X76733400Y-84810600D01*
X74701400Y-85445600D02*
X74701400Y-84810600D01*
X76733400Y-88874600D02*
X76733400Y-88239600D01*
X74701400Y-88874600D02*
X74701400Y-88239600D01*
X74701400Y-88874600D02*
X76733400Y-88874600D01*
X76733400Y-84810600D02*
X74701400Y-84810600D01*
X59242000Y-30286000D02*
X59242000Y-27626000D01*
X51562000Y-30286000D02*
X59242000Y-30286000D01*
X51562000Y-27626000D02*
X59242000Y-27626000D01*
X51562000Y-30286000D02*
X51562000Y-27626000D01*
X50292000Y-30286000D02*
X48962000Y-30286000D01*
X48962000Y-30286000D02*
X48962000Y-28956000D01*
X54682000Y-89353000D02*
X61142000Y-89353000D01*
X54682000Y-95813000D02*
X54682000Y-89353000D01*
X61142000Y-95813000D02*
X61142000Y-89353000D01*
X54682000Y-95813000D02*
X61142000Y-95813000D01*
X58928000Y-103505000D02*
X58928000Y-102870000D01*
X56896000Y-103505000D02*
X56896000Y-102870000D01*
X58928000Y-106934000D02*
X58928000Y-106299000D01*
X56896000Y-106934000D02*
X56896000Y-106299000D01*
X56896000Y-106934000D02*
X58928000Y-106934000D01*
X58928000Y-102870000D02*
X56896000Y-102870000D01*
X56540400Y-76454000D02*
X55905400Y-76454000D01*
X56540400Y-78486000D02*
X55905400Y-78486000D01*
X59969400Y-76454000D02*
X59334400Y-76454000D01*
X59969400Y-78486000D02*
X59334400Y-78486000D01*
X59969400Y-78486000D02*
X59969400Y-76454000D01*
X55905400Y-76454000D02*
X55905400Y-78486000D01*
X52705000Y-78994000D02*
X52705000Y-78359000D01*
X50673000Y-78994000D02*
X50673000Y-78359000D01*
X52705000Y-82423000D02*
X52705000Y-81788000D01*
X50673000Y-82423000D02*
X50673000Y-81788000D01*
X50673000Y-82423000D02*
X52705000Y-82423000D01*
X52705000Y-78359000D02*
X50673000Y-78359000D01*
X53467000Y-102870000D02*
X52832000Y-102870000D01*
X53467000Y-104902000D02*
X52832000Y-104902000D01*
X56896000Y-102870000D02*
X56261000Y-102870000D01*
X56896000Y-104902000D02*
X56261000Y-104902000D01*
X56896000Y-104902000D02*
X56896000Y-102870000D01*
X52832000Y-102870000D02*
X52832000Y-104902000D01*
X66742000Y-30286000D02*
X66742000Y-28956000D01*
X68072000Y-30286000D02*
X66742000Y-30286000D01*
X69342000Y-30286000D02*
X69342000Y-27626000D01*
X69342000Y-27626000D02*
X77022000Y-27626000D01*
X69342000Y-30286000D02*
X77022000Y-30286000D01*
X77022000Y-30286000D02*
X77022000Y-27626000D01*
X61662000Y-32826000D02*
X61662000Y-31496000D01*
X62992000Y-32826000D02*
X61662000Y-32826000D01*
X64262000Y-32826000D02*
X64262000Y-30166000D01*
X64262000Y-30166000D02*
X77022000Y-30166000D01*
X64262000Y-32826000D02*
X77022000Y-32826000D01*
X77022000Y-32826000D02*
X77022000Y-30166000D01*
X66862000Y-30286000D02*
X66862000Y-27626000D01*
X61722000Y-30286000D02*
X66862000Y-30286000D01*
X61722000Y-27626000D02*
X66862000Y-27626000D01*
X61722000Y-30286000D02*
X61722000Y-27626000D01*
X60452000Y-30286000D02*
X59122000Y-30286000D01*
X59122000Y-30286000D02*
X59122000Y-28956000D01*
X56896000Y-102870000D02*
X56896000Y-100838000D01*
X52832000Y-100838000D02*
X52832000Y-102870000D01*
X52832000Y-100838000D02*
X53467000Y-100838000D01*
X52832000Y-102870000D02*
X53467000Y-102870000D01*
X56261000Y-100838000D02*
X56896000Y-100838000D01*
X56261000Y-102870000D02*
X56896000Y-102870000D01*
X76982000Y-92964000D02*
X76982000Y-91014000D01*
X76982000Y-92964000D02*
X76982000Y-94914000D01*
X71862000Y-92964000D02*
X71862000Y-91014000D01*
X71862000Y-92964000D02*
X71862000Y-96414000D01*
X76167100Y-81282000D02*
X75237100Y-81282000D01*
X73007100Y-81282000D02*
X73937100Y-81282000D01*
X73007100Y-81282000D02*
X73007100Y-83442000D01*
X76167100Y-81282000D02*
X76167100Y-82742000D01*
X48331000Y-76960000D02*
X48331000Y-75500000D01*
X51491000Y-76960000D02*
X51491000Y-74800000D01*
X51491000Y-76960000D02*
X50561000Y-76960000D01*
X48331000Y-76960000D02*
X49261000Y-76960000D01*
X72669400Y-88874600D02*
X74701400Y-88874600D01*
X74701400Y-84810600D02*
X72669400Y-84810600D01*
X74701400Y-84810600D02*
X74701400Y-85445600D01*
X72669400Y-84810600D02*
X72669400Y-85445600D01*
X74701400Y-88239600D02*
X74701400Y-88874600D01*
X72669400Y-88239600D02*
X72669400Y-88874600D01*
X48641000Y-85852000D02*
X48641000Y-86487000D01*
X50673000Y-85852000D02*
X50673000Y-86487000D01*
X48641000Y-82423000D02*
X48641000Y-83058000D01*
X50673000Y-82423000D02*
X50673000Y-83058000D01*
X50673000Y-82423000D02*
X48641000Y-82423000D01*
X48641000Y-86487000D02*
X50673000Y-86487000D01*
X46609000Y-85852000D02*
X46609000Y-86487000D01*
X48641000Y-85852000D02*
X48641000Y-86487000D01*
X46609000Y-82423000D02*
X46609000Y-83058000D01*
X48641000Y-82423000D02*
X48641000Y-83058000D01*
X48641000Y-82423000D02*
X46609000Y-82423000D01*
X46609000Y-86487000D02*
X48641000Y-86487000D01*
X78765400Y-85445600D02*
X78765400Y-84810600D01*
X76733400Y-85445600D02*
X76733400Y-84810600D01*
X78765400Y-88874600D02*
X78765400Y-88239600D01*
X76733400Y-88874600D02*
X76733400Y-88239600D01*
X76733400Y-88874600D02*
X78765400Y-88874600D01*
X78765400Y-84810600D02*
X76733400Y-84810600D01*
X73787000Y-60198000D02*
X75819000Y-60198000D01*
X75819000Y-56134000D02*
X73787000Y-56134000D01*
X75819000Y-56134000D02*
X75819000Y-56769000D01*
X73787000Y-56134000D02*
X73787000Y-56769000D01*
X75819000Y-59563000D02*
X75819000Y-60198000D01*
X73787000Y-59563000D02*
X73787000Y-60198000D01*
X75819000Y-52705000D02*
X75819000Y-52070000D01*
X73787000Y-52705000D02*
X73787000Y-52070000D01*
X75819000Y-56134000D02*
X75819000Y-55499000D01*
X73787000Y-56134000D02*
X73787000Y-55499000D01*
X73787000Y-56134000D02*
X75819000Y-56134000D01*
X75819000Y-52070000D02*
X73787000Y-52070000D01*
X48006000Y-72390000D02*
X48641000Y-72390000D01*
X48006000Y-70358000D02*
X48641000Y-70358000D01*
X44577000Y-72390000D02*
X45212000Y-72390000D01*
X44577000Y-70358000D02*
X45212000Y-70358000D01*
X44577000Y-70358000D02*
X44577000Y-72390000D01*
X48641000Y-72390000D02*
X48641000Y-70358000D01*
X59936900Y-85452000D02*
X59936900Y-84192000D01*
X59936900Y-78632000D02*
X59936900Y-79892000D01*
X56176900Y-85452000D02*
X59936900Y-85452000D01*
X53926900Y-78632000D02*
X59936900Y-78632000D01*
X79469100Y-81282000D02*
X78539100Y-81282000D01*
X76309100Y-81282000D02*
X77239100Y-81282000D01*
X76309100Y-81282000D02*
X76309100Y-83442000D01*
X79469100Y-81282000D02*
X79469100Y-82742000D01*
X78790800Y-88874600D02*
X80822800Y-88874600D01*
X80822800Y-84810600D02*
X78790800Y-84810600D01*
X80822800Y-84810600D02*
X80822800Y-85445600D01*
X78790800Y-84810600D02*
X78790800Y-85445600D01*
X80822800Y-88239600D02*
X80822800Y-88874600D01*
X78790800Y-88239600D02*
X78790800Y-88874600D01*
X51091000Y-107838500D02*
X51541000Y-107838500D01*
X51091000Y-109688500D02*
X51091000Y-107838500D01*
X58891000Y-112238500D02*
X58891000Y-111988500D01*
X51091000Y-112238500D02*
X51091000Y-111988500D01*
X58891000Y-109688500D02*
X58891000Y-107838500D01*
X58891000Y-107838500D02*
X58441000Y-107838500D01*
X53291000Y-107288500D02*
X53741000Y-107288500D01*
X53291000Y-107288500D02*
X53291000Y-107738500D01*
D14*
X75524000Y-100139500D02*
X75524000Y-111365500D01*
X67224000Y-100084500D02*
X67224000Y-111365500D01*
X67224000Y-111365500D02*
X75524000Y-111365500D01*
X67224000Y-100084500D02*
X75524000Y-100084500D01*
X69624000Y-111365500D02*
X69624000Y-116965500D01*
X73124000Y-111365500D02*
X73124000Y-116965500D01*
X69624000Y-116975500D02*
X73124000Y-116975500D01*
X70574000Y-116975500D02*
X69874000Y-122365500D01*
X72174000Y-116975500D02*
X72874000Y-122365500D01*
X72874000Y-122375500D02*
G75*
G02X69874000Y-122375500I-1500000J0D01*
G01*
D15*
X45710800Y-100593200D02*
X48370800Y-100593200D01*
X45710800Y-97993200D02*
X45710800Y-100593200D01*
X48370800Y-97993200D02*
X48370800Y-100593200D01*
X45710800Y-97993200D02*
X48370800Y-97993200D01*
X45710800Y-96723200D02*
X45710800Y-95393200D01*
X45710800Y-95393200D02*
X47040800Y-95393200D01*
X45029000Y-76960000D02*
X45959000Y-76960000D01*
X48189000Y-76960000D02*
X47259000Y-76960000D01*
X48189000Y-76960000D02*
X48189000Y-74800000D01*
X45029000Y-76960000D02*
X45029000Y-75500000D01*
X48641000Y-74422000D02*
X48641000Y-72390000D01*
X44577000Y-72390000D02*
X44577000Y-74422000D01*
X44577000Y-72390000D02*
X45212000Y-72390000D01*
X44577000Y-74422000D02*
X45212000Y-74422000D01*
X48006000Y-72390000D02*
X48641000Y-72390000D01*
X48006000Y-74422000D02*
X48641000Y-74422000D01*
X52324000Y-96748600D02*
X51308000Y-96748600D01*
X51816000Y-96748600D02*
X51308000Y-97510600D01*
X52324000Y-97510600D02*
X51816000Y-96748600D01*
X52324000Y-97510600D02*
X51308000Y-97510600D01*
D14*
X53316000Y-96379600D02*
X53066000Y-96379600D01*
X53066000Y-96379600D02*
X50316000Y-96379600D01*
X50316000Y-99379600D02*
X50566000Y-99379600D01*
X50316000Y-94879600D02*
X50316000Y-99379600D01*
X50566000Y-94879600D02*
X50316000Y-94879600D01*
X53316000Y-99379600D02*
X53066000Y-99379600D01*
X53316000Y-94879600D02*
X53316000Y-99379600D01*
X53066000Y-94879600D02*
X53316000Y-94879600D01*
D15*
X50698400Y-71272400D02*
X50063400Y-71272400D01*
X50698400Y-73304400D02*
X50063400Y-73304400D01*
X54127400Y-71272400D02*
X53492400Y-71272400D01*
X54127400Y-73304400D02*
X53492400Y-73304400D01*
X54127400Y-73304400D02*
X54127400Y-71272400D01*
X50063400Y-71272400D02*
X50063400Y-73304400D01*
X56540400Y-74422000D02*
X55905400Y-74422000D01*
X56540400Y-76454000D02*
X55905400Y-76454000D01*
X59969400Y-74422000D02*
X59334400Y-74422000D01*
X59969400Y-76454000D02*
X59334400Y-76454000D01*
X59969400Y-76454000D02*
X59969400Y-74422000D01*
X55905400Y-74422000D02*
X55905400Y-76454000D01*
X50673000Y-78359000D02*
X48641000Y-78359000D01*
X48641000Y-82423000D02*
X50673000Y-82423000D01*
X48641000Y-82423000D02*
X48641000Y-81788000D01*
X50673000Y-82423000D02*
X50673000Y-81788000D01*
X48641000Y-78994000D02*
X48641000Y-78359000D01*
X50673000Y-78994000D02*
X50673000Y-78359000D01*
X52705000Y-82423000D02*
X50673000Y-82423000D01*
X50673000Y-86487000D02*
X52705000Y-86487000D01*
X50673000Y-86487000D02*
X50673000Y-85852000D01*
X52705000Y-86487000D02*
X52705000Y-85852000D01*
X50673000Y-83058000D02*
X50673000Y-82423000D01*
X52705000Y-83058000D02*
X52705000Y-82423000D01*
X66294000Y-100520500D02*
X66294000Y-101282500D01*
X66294000Y-100520500D02*
X63754000Y-100520500D01*
X63754000Y-100520500D02*
X63754000Y-101282500D01*
X63754000Y-105727500D02*
X63754000Y-104965500D01*
X66294000Y-105727500D02*
X66294000Y-104965500D01*
X63754000Y-105727500D02*
X66294000Y-105727500D01*
X77720800Y-69166400D02*
X77490800Y-69166400D01*
X81490800Y-68646400D02*
X81490800Y-76366400D01*
X81490800Y-76366400D02*
X77590800Y-76366400D01*
X74480800Y-68646400D02*
X74480800Y-69166400D01*
X81490800Y-68646400D02*
X77590800Y-68646400D01*
X77720800Y-75846400D02*
X77490800Y-75846400D01*
X74990800Y-69166400D02*
X74480800Y-69166400D01*
X74990800Y-68646400D02*
X74480800Y-68646400D01*
X77720800Y-75306400D02*
X77720800Y-75846400D01*
X74990800Y-75846400D02*
X74480800Y-75846400D01*
X74480800Y-75846400D02*
X74480800Y-76366400D01*
X74990800Y-76366400D02*
X74480800Y-76366400D01*
X77720800Y-69166400D02*
X77720800Y-69706400D01*
X77720800Y-70806400D02*
X77720800Y-74206400D01*
X77720800Y-69706400D02*
X77720800Y-70806400D01*
X77720800Y-74206400D02*
X77720800Y-75306400D01*
X81490800Y-70756400D02*
X87090800Y-70756400D01*
X87090800Y-70756400D02*
X87090800Y-74256400D01*
X87090800Y-74256400D02*
X81490800Y-74256400D01*
X79564608Y-100503735D02*
G75*
G03X79721516Y-97271400I-1078608J1672335D01*
G01*
X77407392Y-100503735D02*
G75*
G02X77250484Y-97271400I1078608J1672335D01*
G01*
X79565837Y-99872530D02*
G75*
G03X79566000Y-97790439I-1079837J1041130D01*
G01*
X77406163Y-99872530D02*
G75*
G02X77406000Y-97790439I1079837J1041130D01*
G01*
X79722000Y-97271400D02*
X79566000Y-97271400D01*
X77406000Y-97271400D02*
X77250000Y-97271400D01*
X78105000Y-99060000D02*
X78867000Y-99060000D01*
X78867000Y-99060000D02*
X78486000Y-98679000D01*
X78486000Y-98679000D02*
X78105000Y-99060000D01*
X78867000Y-98640900D02*
X78105000Y-98640900D01*
X78867000Y-104038400D02*
X78105000Y-104038400D01*
X78486000Y-104076500D02*
X78105000Y-104457500D01*
X78867000Y-104457500D02*
X78486000Y-104076500D01*
X78105000Y-104457500D02*
X78867000Y-104457500D01*
X77406000Y-102668900D02*
X77250000Y-102668900D01*
X79722000Y-102668900D02*
X79566000Y-102668900D01*
X77406163Y-105270030D02*
G75*
G02X77406000Y-103187939I1079837J1041130D01*
G01*
X79565837Y-105270030D02*
G75*
G03X79566000Y-103187939I-1079837J1041130D01*
G01*
X77407392Y-105901235D02*
G75*
G02X77250484Y-102668900I1078608J1672335D01*
G01*
X79564608Y-105901235D02*
G75*
G03X79721516Y-102668900I-1078608J1672335D01*
G01*
X78105000Y-63246000D02*
X78867000Y-63246000D01*
X78486000Y-63207900D02*
X78867000Y-62826900D01*
X78105000Y-62826900D02*
X78486000Y-63207900D01*
X78867000Y-62826900D02*
X78105000Y-62826900D01*
X79566000Y-64615500D02*
X79722000Y-64615500D01*
X77250000Y-64615500D02*
X77406000Y-64615500D01*
X79565837Y-62014370D02*
G75*
G02X79566000Y-64096461I-1079837J-1041130D01*
G01*
X77406163Y-62014370D02*
G75*
G03X77406000Y-64096461I1079837J-1041130D01*
G01*
X79564608Y-61383165D02*
G75*
G02X79721516Y-64615500I-1078608J-1672335D01*
G01*
X77407392Y-61383165D02*
G75*
G03X77250484Y-64615500I1078608J-1672335D01*
G01*
X77407392Y-56049165D02*
G75*
G03X77250484Y-59281500I1078608J-1672335D01*
G01*
X79564608Y-56049165D02*
G75*
G02X79721516Y-59281500I-1078608J-1672335D01*
G01*
X77406163Y-56680370D02*
G75*
G03X77406000Y-58762461I1079837J-1041130D01*
G01*
X79565837Y-56680370D02*
G75*
G02X79566000Y-58762461I-1079837J-1041130D01*
G01*
X77250000Y-59281500D02*
X77406000Y-59281500D01*
X79566000Y-59281500D02*
X79722000Y-59281500D01*
X78867000Y-57492900D02*
X78105000Y-57492900D01*
X78105000Y-57492900D02*
X78486000Y-57873900D01*
X78486000Y-57873900D02*
X78867000Y-57492900D01*
X78105000Y-57912000D02*
X78867000Y-57912000D01*
X77407392Y-50715165D02*
G75*
G03X77250484Y-53947500I1078608J-1672335D01*
G01*
X79564608Y-50715165D02*
G75*
G02X79721516Y-53947500I-1078608J-1672335D01*
G01*
X77406163Y-51346370D02*
G75*
G03X77406000Y-53428461I1079837J-1041130D01*
G01*
X79565837Y-51346370D02*
G75*
G02X79566000Y-53428461I-1079837J-1041130D01*
G01*
X77250000Y-53947500D02*
X77406000Y-53947500D01*
X79566000Y-53947500D02*
X79722000Y-53947500D01*
X78867000Y-52158900D02*
X78105000Y-52158900D01*
X78105000Y-52158900D02*
X78486000Y-52539900D01*
X78486000Y-52539900D02*
X78867000Y-52158900D01*
X78105000Y-52578000D02*
X78867000Y-52578000D01*
X78105000Y-47307500D02*
X78867000Y-47307500D01*
X78486000Y-47269400D02*
X78867000Y-46888400D01*
X78105000Y-46888400D02*
X78486000Y-47269400D01*
X78867000Y-46888400D02*
X78105000Y-46888400D01*
X79566000Y-48677000D02*
X79722000Y-48677000D01*
X77250000Y-48677000D02*
X77406000Y-48677000D01*
X79565837Y-46075870D02*
G75*
G02X79566000Y-48157961I-1079837J-1041130D01*
G01*
X77406163Y-46075870D02*
G75*
G03X77406000Y-48157961I1079837J-1041130D01*
G01*
X79564608Y-45444665D02*
G75*
G02X79721516Y-48677000I-1078608J-1672335D01*
G01*
X77407392Y-45444665D02*
G75*
G03X77250484Y-48677000I1078608J-1672335D01*
G01*
X73262800Y-43519400D02*
X73262800Y-40859400D01*
X55422800Y-43519400D02*
X73262800Y-43519400D01*
X55422800Y-40859400D02*
X73262800Y-40859400D01*
X55422800Y-43519400D02*
X55422800Y-40859400D01*
X54152800Y-43519400D02*
X52822800Y-43519400D01*
X52822800Y-43519400D02*
X52822800Y-42189400D01*
X61782000Y-32826000D02*
X61782000Y-30166000D01*
X51562000Y-32826000D02*
X61782000Y-32826000D01*
X51562000Y-30166000D02*
X61782000Y-30166000D01*
X51562000Y-32826000D02*
X51562000Y-30166000D01*
X50292000Y-32826000D02*
X48962000Y-32826000D01*
X48962000Y-32826000D02*
X48962000Y-31496000D01*
D14*
X50045200Y-49242200D02*
X50045200Y-67242200D01*
X44045200Y-67242200D02*
X69545200Y-67242200D01*
X44045200Y-49242200D02*
X69545200Y-49242200D01*
X69545200Y-49242200D02*
X69545200Y-67242200D01*
X44045200Y-49242200D02*
X44045200Y-67242200D01*
X81148556Y-109500000D02*
G75*
G03X81148556Y-109500000I-1648556J0D01*
G01*
X48148556Y-109500000D02*
G75*
G03X48148556Y-109500000I-1648556J0D01*
G01*
X81148556Y-24500000D02*
G75*
G03X81148556Y-24500000I-1648556J0D01*
G01*
X48148556Y-24500000D02*
G75*
G03X48148556Y-24500000I-1648556J0D01*
G01*
D11*
X66554652Y-96754042D02*
X66645366Y-96784280D01*
X66675604Y-96814519D01*
X66705842Y-96874995D01*
X66705842Y-96965709D01*
X66675604Y-97026185D01*
X66645366Y-97056423D01*
X66584890Y-97086661D01*
X66342985Y-97086661D01*
X66342985Y-96451661D01*
X66554652Y-96451661D01*
X66615128Y-96481900D01*
X66645366Y-96512138D01*
X66675604Y-96572614D01*
X66675604Y-96633090D01*
X66645366Y-96693566D01*
X66615128Y-96723804D01*
X66554652Y-96754042D01*
X66342985Y-96754042D01*
X66887271Y-96451661D02*
X67250128Y-96451661D01*
X67068700Y-97086661D02*
X67068700Y-96451661D01*
X67461795Y-97086661D02*
X67461795Y-96451661D01*
X67824652Y-97086661D01*
X67824652Y-96451661D01*
X68066557Y-96451661D02*
X68459652Y-96451661D01*
X68247985Y-96693566D01*
X68338700Y-96693566D01*
X68399176Y-96723804D01*
X68429414Y-96754042D01*
X68459652Y-96814519D01*
X68459652Y-96965709D01*
X68429414Y-97026185D01*
X68399176Y-97056423D01*
X68338700Y-97086661D01*
X68157271Y-97086661D01*
X68096795Y-97056423D01*
X68066557Y-97026185D01*
X54758166Y-70394285D02*
X54727928Y-70424523D01*
X54637214Y-70454761D01*
X54576738Y-70454761D01*
X54486023Y-70424523D01*
X54425547Y-70364047D01*
X54395309Y-70303571D01*
X54365071Y-70182619D01*
X54365071Y-70091904D01*
X54395309Y-69970952D01*
X54425547Y-69910476D01*
X54486023Y-69850000D01*
X54576738Y-69819761D01*
X54637214Y-69819761D01*
X54727928Y-69850000D01*
X54758166Y-69880238D01*
X55362928Y-70454761D02*
X55000071Y-70454761D01*
X55181500Y-70454761D02*
X55181500Y-69819761D01*
X55121023Y-69910476D01*
X55060547Y-69970952D01*
X55000071Y-70001190D01*
X75675066Y-84589861D02*
X75463400Y-84287480D01*
X75312209Y-84589861D02*
X75312209Y-83954861D01*
X75554114Y-83954861D01*
X75614590Y-83985100D01*
X75644828Y-84015338D01*
X75675066Y-84075814D01*
X75675066Y-84166528D01*
X75644828Y-84227004D01*
X75614590Y-84257242D01*
X75554114Y-84287480D01*
X75312209Y-84287480D01*
X75977447Y-84589861D02*
X76098400Y-84589861D01*
X76158876Y-84559623D01*
X76189114Y-84529385D01*
X76249590Y-84438671D01*
X76279828Y-84317719D01*
X76279828Y-84075814D01*
X76249590Y-84015338D01*
X76219352Y-83985100D01*
X76158876Y-83954861D01*
X76037923Y-83954861D01*
X75977447Y-83985100D01*
X75947209Y-84015338D01*
X75916971Y-84075814D01*
X75916971Y-84227004D01*
X75947209Y-84287480D01*
X75977447Y-84317719D01*
X76037923Y-84347957D01*
X76158876Y-84347957D01*
X76219352Y-84317719D01*
X76249590Y-84287480D01*
X76279828Y-84227004D01*
X49970266Y-35171138D02*
X49970266Y-34717566D01*
X50000504Y-34626852D01*
X50060980Y-34566376D01*
X50151695Y-34536138D01*
X50212171Y-34536138D01*
X49395742Y-34959471D02*
X49395742Y-34536138D01*
X49546933Y-35201376D02*
X49698123Y-34747804D01*
X49305028Y-34747804D01*
X57029652Y-96804842D02*
X57120366Y-96835080D01*
X57150604Y-96865319D01*
X57180842Y-96925795D01*
X57180842Y-97016509D01*
X57150604Y-97076985D01*
X57120366Y-97107223D01*
X57059890Y-97137461D01*
X56817985Y-97137461D01*
X56817985Y-96502461D01*
X57029652Y-96502461D01*
X57090128Y-96532700D01*
X57120366Y-96562938D01*
X57150604Y-96623414D01*
X57150604Y-96683890D01*
X57120366Y-96744366D01*
X57090128Y-96774604D01*
X57029652Y-96804842D01*
X56817985Y-96804842D01*
X57362271Y-96502461D02*
X57725128Y-96502461D01*
X57543700Y-97137461D02*
X57543700Y-96502461D01*
X57936795Y-97137461D02*
X57936795Y-96502461D01*
X58299652Y-97137461D01*
X58299652Y-96502461D01*
X58571795Y-96562938D02*
X58602033Y-96532700D01*
X58662509Y-96502461D01*
X58813700Y-96502461D01*
X58874176Y-96532700D01*
X58904414Y-96562938D01*
X58934652Y-96623414D01*
X58934652Y-96683890D01*
X58904414Y-96774604D01*
X58541557Y-97137461D01*
X58934652Y-97137461D01*
X57806166Y-102649261D02*
X57503785Y-102649261D01*
X57503785Y-102014261D01*
X57987595Y-102074738D02*
X58017833Y-102044500D01*
X58078309Y-102014261D01*
X58229500Y-102014261D01*
X58289976Y-102044500D01*
X58320214Y-102074738D01*
X58350452Y-102135214D01*
X58350452Y-102195690D01*
X58320214Y-102286404D01*
X57957357Y-102649261D01*
X58350452Y-102649261D01*
X60600166Y-77696785D02*
X60569928Y-77727023D01*
X60479214Y-77757261D01*
X60418738Y-77757261D01*
X60328023Y-77727023D01*
X60267547Y-77666547D01*
X60237309Y-77606071D01*
X60207071Y-77485119D01*
X60207071Y-77394404D01*
X60237309Y-77273452D01*
X60267547Y-77212976D01*
X60328023Y-77152500D01*
X60418738Y-77122261D01*
X60479214Y-77122261D01*
X60569928Y-77152500D01*
X60600166Y-77182738D01*
X61144452Y-77122261D02*
X61023500Y-77122261D01*
X60963023Y-77152500D01*
X60932785Y-77182738D01*
X60872309Y-77273452D01*
X60842071Y-77394404D01*
X60842071Y-77636309D01*
X60872309Y-77696785D01*
X60902547Y-77727023D01*
X60963023Y-77757261D01*
X61083976Y-77757261D01*
X61144452Y-77727023D01*
X61174690Y-77696785D01*
X61204928Y-77636309D01*
X61204928Y-77485119D01*
X61174690Y-77424642D01*
X61144452Y-77394404D01*
X61083976Y-77364166D01*
X60963023Y-77364166D01*
X60902547Y-77394404D01*
X60872309Y-77424642D01*
X60842071Y-77485119D01*
X52218166Y-78077785D02*
X52187928Y-78108023D01*
X52097214Y-78138261D01*
X52036738Y-78138261D01*
X51946023Y-78108023D01*
X51885547Y-78047547D01*
X51855309Y-77987071D01*
X51825071Y-77866119D01*
X51825071Y-77775404D01*
X51855309Y-77654452D01*
X51885547Y-77593976D01*
X51946023Y-77533500D01*
X52036738Y-77503261D01*
X52097214Y-77503261D01*
X52187928Y-77533500D01*
X52218166Y-77563738D01*
X52429833Y-77503261D02*
X52853166Y-77503261D01*
X52581023Y-78138261D01*
X51964166Y-104239785D02*
X51933928Y-104270023D01*
X51843214Y-104300261D01*
X51782738Y-104300261D01*
X51692023Y-104270023D01*
X51631547Y-104209547D01*
X51601309Y-104149071D01*
X51571071Y-104028119D01*
X51571071Y-103937404D01*
X51601309Y-103816452D01*
X51631547Y-103755976D01*
X51692023Y-103695500D01*
X51782738Y-103665261D01*
X51843214Y-103665261D01*
X51933928Y-103695500D01*
X51964166Y-103725738D01*
X52266547Y-104300261D02*
X52387500Y-104300261D01*
X52447976Y-104270023D01*
X52478214Y-104239785D01*
X52538690Y-104149071D01*
X52568928Y-104028119D01*
X52568928Y-103786214D01*
X52538690Y-103725738D01*
X52508452Y-103695500D01*
X52447976Y-103665261D01*
X52327023Y-103665261D01*
X52266547Y-103695500D01*
X52236309Y-103725738D01*
X52206071Y-103786214D01*
X52206071Y-103937404D01*
X52236309Y-103997880D01*
X52266547Y-104028119D01*
X52327023Y-104058357D01*
X52447976Y-104058357D01*
X52508452Y-104028119D01*
X52538690Y-103997880D01*
X52568928Y-103937404D01*
X67801066Y-35018738D02*
X67801066Y-34565166D01*
X67831304Y-34474452D01*
X67891780Y-34413976D01*
X67982495Y-34383738D01*
X68042971Y-34383738D01*
X67559161Y-35018738D02*
X67166066Y-35018738D01*
X67377733Y-34776833D01*
X67287019Y-34776833D01*
X67226542Y-34746595D01*
X67196304Y-34716357D01*
X67166066Y-34655880D01*
X67166066Y-34504690D01*
X67196304Y-34444214D01*
X67226542Y-34413976D01*
X67287019Y-34383738D01*
X67468447Y-34383738D01*
X67528923Y-34413976D01*
X67559161Y-34444214D01*
X62721066Y-37584138D02*
X62721066Y-37130566D01*
X62751304Y-37039852D01*
X62811780Y-36979376D01*
X62902495Y-36949138D01*
X62962971Y-36949138D01*
X62146542Y-37584138D02*
X62267495Y-37584138D01*
X62327971Y-37553900D01*
X62358209Y-37523661D01*
X62418685Y-37432947D01*
X62448923Y-37311995D01*
X62448923Y-37070090D01*
X62418685Y-37009614D01*
X62388447Y-36979376D01*
X62327971Y-36949138D01*
X62207019Y-36949138D01*
X62146542Y-36979376D01*
X62116304Y-37009614D01*
X62086066Y-37070090D01*
X62086066Y-37221280D01*
X62116304Y-37281757D01*
X62146542Y-37311995D01*
X62207019Y-37342233D01*
X62327971Y-37342233D01*
X62388447Y-37311995D01*
X62418685Y-37281757D01*
X62448923Y-37221280D01*
X60206466Y-35018738D02*
X60206466Y-34565166D01*
X60236704Y-34474452D01*
X60297180Y-34413976D01*
X60387895Y-34383738D01*
X60448371Y-34383738D01*
X59964561Y-35018738D02*
X59541228Y-35018738D01*
X59813371Y-34383738D01*
X51964166Y-102268261D02*
X51661785Y-102268261D01*
X51661785Y-101633261D01*
X52508452Y-102268261D02*
X52145595Y-102268261D01*
X52327023Y-102268261D02*
X52327023Y-101633261D01*
X52266547Y-101723976D01*
X52206071Y-101784452D01*
X52145595Y-101814690D01*
X74769738Y-97215476D02*
X74739500Y-97275952D01*
X74679023Y-97336428D01*
X74588309Y-97427142D01*
X74558071Y-97487619D01*
X74558071Y-97548095D01*
X74709261Y-97517857D02*
X74679023Y-97578333D01*
X74618547Y-97638809D01*
X74497595Y-97669047D01*
X74285928Y-97669047D01*
X74164976Y-97638809D01*
X74104500Y-97578333D01*
X74074261Y-97517857D01*
X74074261Y-97396904D01*
X74104500Y-97336428D01*
X74164976Y-97275952D01*
X74285928Y-97245714D01*
X74497595Y-97245714D01*
X74618547Y-97275952D01*
X74679023Y-97336428D01*
X74709261Y-97396904D01*
X74709261Y-97517857D01*
X74709261Y-96640952D02*
X74709261Y-97003809D01*
X74709261Y-96822380D02*
X74074261Y-96822380D01*
X74164976Y-96882857D01*
X74225452Y-96943333D01*
X74255690Y-97003809D01*
X73791838Y-80578476D02*
X73761600Y-80638952D01*
X73701123Y-80699428D01*
X73610409Y-80790142D01*
X73580171Y-80850619D01*
X73580171Y-80911095D01*
X73731361Y-80880857D02*
X73701123Y-80941333D01*
X73640647Y-81001809D01*
X73519695Y-81032047D01*
X73308028Y-81032047D01*
X73187076Y-81001809D01*
X73126600Y-80941333D01*
X73096361Y-80880857D01*
X73096361Y-80759904D01*
X73126600Y-80699428D01*
X73187076Y-80638952D01*
X73308028Y-80608714D01*
X73519695Y-80608714D01*
X73640647Y-80638952D01*
X73701123Y-80699428D01*
X73731361Y-80759904D01*
X73731361Y-80880857D01*
X73156838Y-80366809D02*
X73126600Y-80336571D01*
X73096361Y-80276095D01*
X73096361Y-80124904D01*
X73126600Y-80064428D01*
X73156838Y-80034190D01*
X73217314Y-80003952D01*
X73277790Y-80003952D01*
X73368504Y-80034190D01*
X73731361Y-80397047D01*
X73731361Y-80003952D01*
X48491623Y-77893938D02*
X48431147Y-77863700D01*
X48370671Y-77803223D01*
X48279957Y-77712509D01*
X48219480Y-77682271D01*
X48159004Y-77682271D01*
X48189242Y-77833461D02*
X48128766Y-77803223D01*
X48068290Y-77742747D01*
X48038052Y-77621795D01*
X48038052Y-77410128D01*
X48068290Y-77289176D01*
X48128766Y-77228700D01*
X48189242Y-77198461D01*
X48310195Y-77198461D01*
X48370671Y-77228700D01*
X48431147Y-77289176D01*
X48461385Y-77410128D01*
X48461385Y-77621795D01*
X48431147Y-77742747D01*
X48370671Y-77803223D01*
X48310195Y-77833461D01*
X48189242Y-77833461D01*
X49035909Y-77198461D02*
X48733528Y-77198461D01*
X48703290Y-77500842D01*
X48733528Y-77470604D01*
X48794004Y-77440366D01*
X48945195Y-77440366D01*
X49005671Y-77470604D01*
X49035909Y-77500842D01*
X49066147Y-77561319D01*
X49066147Y-77712509D01*
X49035909Y-77772985D01*
X49005671Y-77803223D01*
X48945195Y-77833461D01*
X48794004Y-77833461D01*
X48733528Y-77803223D01*
X48703290Y-77772985D01*
X73643066Y-84589861D02*
X73431400Y-84287480D01*
X73280209Y-84589861D02*
X73280209Y-83954861D01*
X73522114Y-83954861D01*
X73582590Y-83985100D01*
X73612828Y-84015338D01*
X73643066Y-84075814D01*
X73643066Y-84166528D01*
X73612828Y-84227004D01*
X73582590Y-84257242D01*
X73522114Y-84287480D01*
X73280209Y-84287480D01*
X74005923Y-84227004D02*
X73945447Y-84196766D01*
X73915209Y-84166528D01*
X73884971Y-84106052D01*
X73884971Y-84075814D01*
X73915209Y-84015338D01*
X73945447Y-83985100D01*
X74005923Y-83954861D01*
X74126876Y-83954861D01*
X74187352Y-83985100D01*
X74217590Y-84015338D01*
X74247828Y-84075814D01*
X74247828Y-84106052D01*
X74217590Y-84166528D01*
X74187352Y-84196766D01*
X74126876Y-84227004D01*
X74005923Y-84227004D01*
X73945447Y-84257242D01*
X73915209Y-84287480D01*
X73884971Y-84347957D01*
X73884971Y-84468909D01*
X73915209Y-84529385D01*
X73945447Y-84559623D01*
X74005923Y-84589861D01*
X74126876Y-84589861D01*
X74187352Y-84559623D01*
X74217590Y-84529385D01*
X74247828Y-84468909D01*
X74247828Y-84347957D01*
X74217590Y-84287480D01*
X74187352Y-84257242D01*
X74126876Y-84227004D01*
X49350385Y-87409261D02*
X49138719Y-87106880D01*
X48987528Y-87409261D02*
X48987528Y-86774261D01*
X49229433Y-86774261D01*
X49289909Y-86804500D01*
X49320147Y-86834738D01*
X49350385Y-86895214D01*
X49350385Y-86985928D01*
X49320147Y-87046404D01*
X49289909Y-87076642D01*
X49229433Y-87106880D01*
X48987528Y-87106880D01*
X49955147Y-87409261D02*
X49592290Y-87409261D01*
X49773719Y-87409261D02*
X49773719Y-86774261D01*
X49713242Y-86864976D01*
X49652766Y-86925452D01*
X49592290Y-86955690D01*
X50559909Y-87409261D02*
X50197052Y-87409261D01*
X50378480Y-87409261D02*
X50378480Y-86774261D01*
X50318004Y-86864976D01*
X50257528Y-86925452D01*
X50197052Y-86955690D01*
X47165985Y-87409261D02*
X46954319Y-87106880D01*
X46803128Y-87409261D02*
X46803128Y-86774261D01*
X47045033Y-86774261D01*
X47105509Y-86804500D01*
X47135747Y-86834738D01*
X47165985Y-86895214D01*
X47165985Y-86985928D01*
X47135747Y-87046404D01*
X47105509Y-87076642D01*
X47045033Y-87106880D01*
X46803128Y-87106880D01*
X47770747Y-87409261D02*
X47407890Y-87409261D01*
X47589319Y-87409261D02*
X47589319Y-86774261D01*
X47528842Y-86864976D01*
X47468366Y-86925452D01*
X47407890Y-86955690D01*
X48163842Y-86774261D02*
X48224319Y-86774261D01*
X48284795Y-86804500D01*
X48315033Y-86834738D01*
X48345271Y-86895214D01*
X48375509Y-87016166D01*
X48375509Y-87167357D01*
X48345271Y-87288309D01*
X48315033Y-87348785D01*
X48284795Y-87379023D01*
X48224319Y-87409261D01*
X48163842Y-87409261D01*
X48103366Y-87379023D01*
X48073128Y-87348785D01*
X48042890Y-87288309D01*
X48012652Y-87167357D01*
X48012652Y-87016166D01*
X48042890Y-86895214D01*
X48073128Y-86834738D01*
X48103366Y-86804500D01*
X48163842Y-86774261D01*
X77341185Y-89606361D02*
X77129519Y-89303980D01*
X76978328Y-89606361D02*
X76978328Y-88971361D01*
X77220233Y-88971361D01*
X77280709Y-89001600D01*
X77310947Y-89031838D01*
X77341185Y-89092314D01*
X77341185Y-89183028D01*
X77310947Y-89243504D01*
X77280709Y-89273742D01*
X77220233Y-89303980D01*
X76978328Y-89303980D01*
X77945947Y-89606361D02*
X77583090Y-89606361D01*
X77764519Y-89606361D02*
X77764519Y-88971361D01*
X77704042Y-89062076D01*
X77643566Y-89122552D01*
X77583090Y-89152790D01*
X78187852Y-89031838D02*
X78218090Y-89001600D01*
X78278566Y-88971361D01*
X78429757Y-88971361D01*
X78490233Y-89001600D01*
X78520471Y-89031838D01*
X78550709Y-89092314D01*
X78550709Y-89152790D01*
X78520471Y-89243504D01*
X78157614Y-89606361D01*
X78550709Y-89606361D01*
X73693261Y-58574214D02*
X73390880Y-58785880D01*
X73693261Y-58937071D02*
X73058261Y-58937071D01*
X73058261Y-58695166D01*
X73088500Y-58634690D01*
X73118738Y-58604452D01*
X73179214Y-58574214D01*
X73269928Y-58574214D01*
X73330404Y-58604452D01*
X73360642Y-58634690D01*
X73390880Y-58695166D01*
X73390880Y-58937071D01*
X73118738Y-58332309D02*
X73088500Y-58302071D01*
X73058261Y-58241595D01*
X73058261Y-58090404D01*
X73088500Y-58029928D01*
X73118738Y-57999690D01*
X73179214Y-57969452D01*
X73239690Y-57969452D01*
X73330404Y-57999690D01*
X73693261Y-58362547D01*
X73693261Y-57969452D01*
X73269928Y-57425166D02*
X73693261Y-57425166D01*
X73028023Y-57576357D02*
X73481595Y-57727547D01*
X73481595Y-57334452D01*
X73566261Y-54637214D02*
X73263880Y-54848880D01*
X73566261Y-55000071D02*
X72931261Y-55000071D01*
X72931261Y-54758166D01*
X72961500Y-54697690D01*
X72991738Y-54667452D01*
X73052214Y-54637214D01*
X73142928Y-54637214D01*
X73203404Y-54667452D01*
X73233642Y-54697690D01*
X73263880Y-54758166D01*
X73263880Y-55000071D01*
X72991738Y-54395309D02*
X72961500Y-54365071D01*
X72931261Y-54304595D01*
X72931261Y-54153404D01*
X72961500Y-54092928D01*
X72991738Y-54062690D01*
X73052214Y-54032452D01*
X73112690Y-54032452D01*
X73203404Y-54062690D01*
X73566261Y-54425547D01*
X73566261Y-54032452D01*
X72931261Y-53457928D02*
X72931261Y-53760309D01*
X73233642Y-53790547D01*
X73203404Y-53760309D01*
X73173166Y-53699833D01*
X73173166Y-53548642D01*
X73203404Y-53488166D01*
X73233642Y-53457928D01*
X73294119Y-53427690D01*
X73445309Y-53427690D01*
X73505785Y-53457928D01*
X73536023Y-53488166D01*
X73566261Y-53548642D01*
X73566261Y-53699833D01*
X73536023Y-53760309D01*
X73505785Y-53790547D01*
X46175385Y-70289661D02*
X45963719Y-69987280D01*
X45812528Y-70289661D02*
X45812528Y-69654661D01*
X46054433Y-69654661D01*
X46114909Y-69684900D01*
X46145147Y-69715138D01*
X46175385Y-69775614D01*
X46175385Y-69866328D01*
X46145147Y-69926804D01*
X46114909Y-69957042D01*
X46054433Y-69987280D01*
X45812528Y-69987280D01*
X46780147Y-70289661D02*
X46417290Y-70289661D01*
X46598719Y-70289661D02*
X46598719Y-69654661D01*
X46538242Y-69745376D01*
X46477766Y-69805852D01*
X46417290Y-69836090D01*
X47324433Y-69866328D02*
X47324433Y-70289661D01*
X47173242Y-69624423D02*
X47022052Y-70077995D01*
X47415147Y-70077995D01*
X60158690Y-78963761D02*
X60158690Y-79477809D01*
X60188928Y-79538285D01*
X60219166Y-79568523D01*
X60279642Y-79598761D01*
X60400595Y-79598761D01*
X60461071Y-79568523D01*
X60491309Y-79538285D01*
X60521547Y-79477809D01*
X60521547Y-78963761D01*
X60793690Y-79024238D02*
X60823928Y-78994000D01*
X60884404Y-78963761D01*
X61035595Y-78963761D01*
X61096071Y-78994000D01*
X61126309Y-79024238D01*
X61156547Y-79084714D01*
X61156547Y-79145190D01*
X61126309Y-79235904D01*
X60763452Y-79598761D01*
X61156547Y-79598761D01*
X76398361Y-81001809D02*
X76912409Y-81001809D01*
X76972885Y-80971571D01*
X77003123Y-80941333D01*
X77033361Y-80880857D01*
X77033361Y-80759904D01*
X77003123Y-80699428D01*
X76972885Y-80669190D01*
X76912409Y-80638952D01*
X76398361Y-80638952D01*
X76398361Y-80397047D02*
X76398361Y-80003952D01*
X76640266Y-80215619D01*
X76640266Y-80124904D01*
X76670504Y-80064428D01*
X76700742Y-80034190D01*
X76761219Y-80003952D01*
X76912409Y-80003952D01*
X76972885Y-80034190D01*
X77003123Y-80064428D01*
X77033361Y-80124904D01*
X77033361Y-80306333D01*
X77003123Y-80366809D01*
X76972885Y-80397047D01*
X79398585Y-84529385D02*
X79368347Y-84559623D01*
X79277633Y-84589861D01*
X79217157Y-84589861D01*
X79126442Y-84559623D01*
X79065966Y-84499147D01*
X79035728Y-84438671D01*
X79005490Y-84317719D01*
X79005490Y-84227004D01*
X79035728Y-84106052D01*
X79065966Y-84045576D01*
X79126442Y-83985100D01*
X79217157Y-83954861D01*
X79277633Y-83954861D01*
X79368347Y-83985100D01*
X79398585Y-84015338D01*
X80003347Y-84589861D02*
X79640490Y-84589861D01*
X79821919Y-84589861D02*
X79821919Y-83954861D01*
X79761442Y-84045576D01*
X79700966Y-84106052D01*
X79640490Y-84136290D01*
X80215014Y-83954861D02*
X80608109Y-83954861D01*
X80396442Y-84196766D01*
X80487157Y-84196766D01*
X80547633Y-84227004D01*
X80577871Y-84257242D01*
X80608109Y-84317719D01*
X80608109Y-84468909D01*
X80577871Y-84529385D01*
X80547633Y-84559623D01*
X80487157Y-84589861D01*
X80305728Y-84589861D01*
X80245252Y-84559623D01*
X80215014Y-84529385D01*
X49944261Y-108669666D02*
X50397833Y-108669666D01*
X50488547Y-108699904D01*
X50549023Y-108760380D01*
X50579261Y-108851095D01*
X50579261Y-108911571D01*
X50579261Y-108034666D02*
X50579261Y-108397523D01*
X50579261Y-108216095D02*
X49944261Y-108216095D01*
X50034976Y-108276571D01*
X50095452Y-108337047D01*
X50125690Y-108397523D01*
X67479333Y-99801523D02*
X67570047Y-99831761D01*
X67721238Y-99831761D01*
X67781714Y-99801523D01*
X67811952Y-99771285D01*
X67842190Y-99710809D01*
X67842190Y-99650333D01*
X67811952Y-99589857D01*
X67781714Y-99559619D01*
X67721238Y-99529380D01*
X67600285Y-99499142D01*
X67539809Y-99468904D01*
X67509571Y-99438666D01*
X67479333Y-99378190D01*
X67479333Y-99317714D01*
X67509571Y-99257238D01*
X67539809Y-99227000D01*
X67600285Y-99196761D01*
X67751476Y-99196761D01*
X67842190Y-99227000D01*
X68053857Y-99196761D02*
X68205047Y-99831761D01*
X68326000Y-99378190D01*
X68446952Y-99831761D01*
X68598142Y-99196761D01*
X69172666Y-99831761D02*
X68809809Y-99831761D01*
X68991238Y-99831761D02*
X68991238Y-99196761D01*
X68930761Y-99287476D01*
X68870285Y-99347952D01*
X68809809Y-99378190D01*
X46224371Y-100845861D02*
X46587228Y-100845861D01*
X46405800Y-101480861D02*
X46405800Y-100845861D01*
X46798895Y-101480861D02*
X46798895Y-100845861D01*
X46798895Y-101148242D02*
X47161752Y-101148242D01*
X47161752Y-101480861D02*
X47161752Y-100845861D01*
X47796752Y-101480861D02*
X47433895Y-101480861D01*
X47615323Y-101480861D02*
X47615323Y-100845861D01*
X47554847Y-100936576D01*
X47494371Y-100997052D01*
X47433895Y-101027290D01*
X45354723Y-77919338D02*
X45294247Y-77889100D01*
X45233771Y-77828623D01*
X45143057Y-77737909D01*
X45082580Y-77707671D01*
X45022104Y-77707671D01*
X45052342Y-77858861D02*
X44991866Y-77828623D01*
X44931390Y-77768147D01*
X44901152Y-77647195D01*
X44901152Y-77435528D01*
X44931390Y-77314576D01*
X44991866Y-77254100D01*
X45052342Y-77223861D01*
X45173295Y-77223861D01*
X45233771Y-77254100D01*
X45294247Y-77314576D01*
X45324485Y-77435528D01*
X45324485Y-77647195D01*
X45294247Y-77768147D01*
X45233771Y-77828623D01*
X45173295Y-77858861D01*
X45052342Y-77858861D01*
X45536152Y-77223861D02*
X45959485Y-77223861D01*
X45687342Y-77858861D01*
X49185285Y-74328261D02*
X48973619Y-74025880D01*
X48822428Y-74328261D02*
X48822428Y-73693261D01*
X49064333Y-73693261D01*
X49124809Y-73723500D01*
X49155047Y-73753738D01*
X49185285Y-73814214D01*
X49185285Y-73904928D01*
X49155047Y-73965404D01*
X49124809Y-73995642D01*
X49064333Y-74025880D01*
X48822428Y-74025880D01*
X49790047Y-74328261D02*
X49427190Y-74328261D01*
X49608619Y-74328261D02*
X49608619Y-73693261D01*
X49548142Y-73783976D01*
X49487666Y-73844452D01*
X49427190Y-73874690D01*
X50092428Y-74328261D02*
X50213380Y-74328261D01*
X50273857Y-74298023D01*
X50304095Y-74267785D01*
X50364571Y-74177071D01*
X50394809Y-74056119D01*
X50394809Y-73814214D01*
X50364571Y-73753738D01*
X50334333Y-73723500D01*
X50273857Y-73693261D01*
X50152904Y-73693261D01*
X50092428Y-73723500D01*
X50062190Y-73753738D01*
X50031952Y-73814214D01*
X50031952Y-73965404D01*
X50062190Y-74025880D01*
X50092428Y-74056119D01*
X50152904Y-74086357D01*
X50273857Y-74086357D01*
X50334333Y-74056119D01*
X50364571Y-74025880D01*
X50394809Y-73965404D01*
X51245709Y-93759261D02*
X51245709Y-93124261D01*
X51396900Y-93124261D01*
X51487614Y-93154500D01*
X51548090Y-93214976D01*
X51578328Y-93275452D01*
X51608566Y-93396404D01*
X51608566Y-93487119D01*
X51578328Y-93608071D01*
X51548090Y-93668547D01*
X51487614Y-93729023D01*
X51396900Y-93759261D01*
X51245709Y-93759261D01*
X52213328Y-93759261D02*
X51850471Y-93759261D01*
X52031900Y-93759261D02*
X52031900Y-93124261D01*
X51971423Y-93214976D01*
X51910947Y-93275452D01*
X51850471Y-93305690D01*
X54758166Y-72426285D02*
X54727928Y-72456523D01*
X54637214Y-72486761D01*
X54576738Y-72486761D01*
X54486023Y-72456523D01*
X54425547Y-72396047D01*
X54395309Y-72335571D01*
X54365071Y-72214619D01*
X54365071Y-72123904D01*
X54395309Y-72002952D01*
X54425547Y-71942476D01*
X54486023Y-71882000D01*
X54576738Y-71851761D01*
X54637214Y-71851761D01*
X54727928Y-71882000D01*
X54758166Y-71912238D01*
X55000071Y-71912238D02*
X55030309Y-71882000D01*
X55090785Y-71851761D01*
X55241976Y-71851761D01*
X55302452Y-71882000D01*
X55332690Y-71912238D01*
X55362928Y-71972714D01*
X55362928Y-72033190D01*
X55332690Y-72123904D01*
X54969833Y-72486761D01*
X55362928Y-72486761D01*
X60600166Y-75728285D02*
X60569928Y-75758523D01*
X60479214Y-75788761D01*
X60418738Y-75788761D01*
X60328023Y-75758523D01*
X60267547Y-75698047D01*
X60237309Y-75637571D01*
X60207071Y-75516619D01*
X60207071Y-75425904D01*
X60237309Y-75304952D01*
X60267547Y-75244476D01*
X60328023Y-75184000D01*
X60418738Y-75153761D01*
X60479214Y-75153761D01*
X60569928Y-75184000D01*
X60600166Y-75214238D01*
X61174690Y-75153761D02*
X60872309Y-75153761D01*
X60842071Y-75456142D01*
X60872309Y-75425904D01*
X60932785Y-75395666D01*
X61083976Y-75395666D01*
X61144452Y-75425904D01*
X61174690Y-75456142D01*
X61204928Y-75516619D01*
X61204928Y-75667809D01*
X61174690Y-75728285D01*
X61144452Y-75758523D01*
X61083976Y-75788761D01*
X60932785Y-75788761D01*
X60872309Y-75758523D01*
X60842071Y-75728285D01*
X47773166Y-79347785D02*
X47742928Y-79378023D01*
X47652214Y-79408261D01*
X47591738Y-79408261D01*
X47501023Y-79378023D01*
X47440547Y-79317547D01*
X47410309Y-79257071D01*
X47380071Y-79136119D01*
X47380071Y-79045404D01*
X47410309Y-78924452D01*
X47440547Y-78863976D01*
X47501023Y-78803500D01*
X47591738Y-78773261D01*
X47652214Y-78773261D01*
X47742928Y-78803500D01*
X47773166Y-78833738D01*
X48136023Y-79045404D02*
X48075547Y-79015166D01*
X48045309Y-78984928D01*
X48015071Y-78924452D01*
X48015071Y-78894214D01*
X48045309Y-78833738D01*
X48075547Y-78803500D01*
X48136023Y-78773261D01*
X48256976Y-78773261D01*
X48317452Y-78803500D01*
X48347690Y-78833738D01*
X48377928Y-78894214D01*
X48377928Y-78924452D01*
X48347690Y-78984928D01*
X48317452Y-79015166D01*
X48256976Y-79045404D01*
X48136023Y-79045404D01*
X48075547Y-79075642D01*
X48045309Y-79105880D01*
X48015071Y-79166357D01*
X48015071Y-79287309D01*
X48045309Y-79347785D01*
X48075547Y-79378023D01*
X48136023Y-79408261D01*
X48256976Y-79408261D01*
X48317452Y-79378023D01*
X48347690Y-79347785D01*
X48377928Y-79287309D01*
X48377928Y-79166357D01*
X48347690Y-79105880D01*
X48317452Y-79075642D01*
X48256976Y-79045404D01*
X51128385Y-87399585D02*
X51098147Y-87429823D01*
X51007433Y-87460061D01*
X50946957Y-87460061D01*
X50856242Y-87429823D01*
X50795766Y-87369347D01*
X50765528Y-87308871D01*
X50735290Y-87187919D01*
X50735290Y-87097204D01*
X50765528Y-86976252D01*
X50795766Y-86915776D01*
X50856242Y-86855300D01*
X50946957Y-86825061D01*
X51007433Y-86825061D01*
X51098147Y-86855300D01*
X51128385Y-86885538D01*
X51733147Y-87460061D02*
X51370290Y-87460061D01*
X51551719Y-87460061D02*
X51551719Y-86825061D01*
X51491242Y-86915776D01*
X51430766Y-86976252D01*
X51370290Y-87006490D01*
X52277433Y-87036728D02*
X52277433Y-87460061D01*
X52126242Y-86794823D02*
X51975052Y-87248395D01*
X52368147Y-87248395D01*
X64812333Y-99903642D02*
X64600666Y-99903642D01*
X64600666Y-100236261D02*
X64600666Y-99601261D01*
X64903047Y-99601261D01*
X65477571Y-100236261D02*
X65114714Y-100236261D01*
X65296142Y-100236261D02*
X65296142Y-99601261D01*
X65235666Y-99691976D01*
X65175190Y-99752452D01*
X65114714Y-99782690D01*
X79305452Y-68026642D02*
X79396166Y-68056880D01*
X79426404Y-68087119D01*
X79456642Y-68147595D01*
X79456642Y-68238309D01*
X79426404Y-68298785D01*
X79396166Y-68329023D01*
X79335690Y-68359261D01*
X79093785Y-68359261D01*
X79093785Y-67724261D01*
X79305452Y-67724261D01*
X79365928Y-67754500D01*
X79396166Y-67784738D01*
X79426404Y-67845214D01*
X79426404Y-67905690D01*
X79396166Y-67966166D01*
X79365928Y-67996404D01*
X79305452Y-68026642D01*
X79093785Y-68026642D01*
X79638071Y-67724261D02*
X80000928Y-67724261D01*
X79819500Y-68359261D02*
X79819500Y-67724261D01*
X80212595Y-68359261D02*
X80212595Y-67724261D01*
X80575452Y-68359261D01*
X80575452Y-67724261D01*
X81210452Y-68359261D02*
X80847595Y-68359261D01*
X81029023Y-68359261D02*
X81029023Y-67724261D01*
X80968547Y-67814976D01*
X80908071Y-67875452D01*
X80847595Y-67905690D01*
X76284061Y-98500595D02*
X76284061Y-98802976D01*
X75649061Y-98802976D01*
X75951442Y-98288928D02*
X75951442Y-98077261D01*
X76284061Y-97986547D02*
X76284061Y-98288928D01*
X75649061Y-98288928D01*
X75649061Y-97986547D01*
X76284061Y-97714404D02*
X75649061Y-97714404D01*
X75649061Y-97563214D01*
X75679300Y-97472500D01*
X75739776Y-97412023D01*
X75800252Y-97381785D01*
X75921204Y-97351547D01*
X76011919Y-97351547D01*
X76132871Y-97381785D01*
X76193347Y-97412023D01*
X76253823Y-97472500D01*
X76284061Y-97563214D01*
X76284061Y-97714404D01*
X76284061Y-96746785D02*
X76284061Y-97109642D01*
X76284061Y-96928214D02*
X75649061Y-96928214D01*
X75739776Y-96988690D01*
X75800252Y-97049166D01*
X75830490Y-97109642D01*
X76487261Y-102755095D02*
X76487261Y-103057476D01*
X75852261Y-103057476D01*
X76154642Y-102543428D02*
X76154642Y-102331761D01*
X76487261Y-102241047D02*
X76487261Y-102543428D01*
X75852261Y-102543428D01*
X75852261Y-102241047D01*
X76487261Y-101968904D02*
X75852261Y-101968904D01*
X75852261Y-101817714D01*
X75882500Y-101727000D01*
X75942976Y-101666523D01*
X76003452Y-101636285D01*
X76124404Y-101606047D01*
X76215119Y-101606047D01*
X76336071Y-101636285D01*
X76396547Y-101666523D01*
X76457023Y-101727000D01*
X76487261Y-101817714D01*
X76487261Y-101968904D01*
X75912738Y-101364142D02*
X75882500Y-101333904D01*
X75852261Y-101273428D01*
X75852261Y-101122238D01*
X75882500Y-101061761D01*
X75912738Y-101031523D01*
X75973214Y-101001285D01*
X76033690Y-101001285D01*
X76124404Y-101031523D01*
X76487261Y-101394380D01*
X76487261Y-101001285D01*
X76868261Y-61289595D02*
X76868261Y-61591976D01*
X76233261Y-61591976D01*
X76535642Y-61077928D02*
X76535642Y-60866261D01*
X76868261Y-60775547D02*
X76868261Y-61077928D01*
X76233261Y-61077928D01*
X76233261Y-60775547D01*
X76868261Y-60503404D02*
X76233261Y-60503404D01*
X76233261Y-60352214D01*
X76263500Y-60261500D01*
X76323976Y-60201023D01*
X76384452Y-60170785D01*
X76505404Y-60140547D01*
X76596119Y-60140547D01*
X76717071Y-60170785D01*
X76777547Y-60201023D01*
X76838023Y-60261500D01*
X76868261Y-60352214D01*
X76868261Y-60503404D01*
X76233261Y-59928880D02*
X76233261Y-59535785D01*
X76475166Y-59747452D01*
X76475166Y-59656738D01*
X76505404Y-59596261D01*
X76535642Y-59566023D01*
X76596119Y-59535785D01*
X76747309Y-59535785D01*
X76807785Y-59566023D01*
X76838023Y-59596261D01*
X76868261Y-59656738D01*
X76868261Y-59838166D01*
X76838023Y-59898642D01*
X76807785Y-59928880D01*
X76931761Y-55701595D02*
X76931761Y-56003976D01*
X76296761Y-56003976D01*
X76599142Y-55489928D02*
X76599142Y-55278261D01*
X76931761Y-55187547D02*
X76931761Y-55489928D01*
X76296761Y-55489928D01*
X76296761Y-55187547D01*
X76931761Y-54915404D02*
X76296761Y-54915404D01*
X76296761Y-54764214D01*
X76327000Y-54673500D01*
X76387476Y-54613023D01*
X76447952Y-54582785D01*
X76568904Y-54552547D01*
X76659619Y-54552547D01*
X76780571Y-54582785D01*
X76841047Y-54613023D01*
X76901523Y-54673500D01*
X76931761Y-54764214D01*
X76931761Y-54915404D01*
X76508428Y-54008261D02*
X76931761Y-54008261D01*
X76266523Y-54159452D02*
X76720095Y-54310642D01*
X76720095Y-53917547D01*
X76804761Y-50621595D02*
X76804761Y-50923976D01*
X76169761Y-50923976D01*
X76472142Y-50409928D02*
X76472142Y-50198261D01*
X76804761Y-50107547D02*
X76804761Y-50409928D01*
X76169761Y-50409928D01*
X76169761Y-50107547D01*
X76804761Y-49835404D02*
X76169761Y-49835404D01*
X76169761Y-49684214D01*
X76200000Y-49593500D01*
X76260476Y-49533023D01*
X76320952Y-49502785D01*
X76441904Y-49472547D01*
X76532619Y-49472547D01*
X76653571Y-49502785D01*
X76714047Y-49533023D01*
X76774523Y-49593500D01*
X76804761Y-49684214D01*
X76804761Y-49835404D01*
X76169761Y-48898023D02*
X76169761Y-49200404D01*
X76472142Y-49230642D01*
X76441904Y-49200404D01*
X76411666Y-49139928D01*
X76411666Y-48988738D01*
X76441904Y-48928261D01*
X76472142Y-48898023D01*
X76532619Y-48867785D01*
X76683809Y-48867785D01*
X76744285Y-48898023D01*
X76774523Y-48928261D01*
X76804761Y-48988738D01*
X76804761Y-49139928D01*
X76774523Y-49200404D01*
X76744285Y-49230642D01*
X76677761Y-45478095D02*
X76677761Y-45780476D01*
X76042761Y-45780476D01*
X76345142Y-45266428D02*
X76345142Y-45054761D01*
X76677761Y-44964047D02*
X76677761Y-45266428D01*
X76042761Y-45266428D01*
X76042761Y-44964047D01*
X76677761Y-44691904D02*
X76042761Y-44691904D01*
X76042761Y-44540714D01*
X76073000Y-44450000D01*
X76133476Y-44389523D01*
X76193952Y-44359285D01*
X76314904Y-44329047D01*
X76405619Y-44329047D01*
X76526571Y-44359285D01*
X76587047Y-44389523D01*
X76647523Y-44450000D01*
X76677761Y-44540714D01*
X76677761Y-44691904D01*
X76042761Y-43784761D02*
X76042761Y-43905714D01*
X76073000Y-43966190D01*
X76103238Y-43996428D01*
X76193952Y-44056904D01*
X76314904Y-44087142D01*
X76556809Y-44087142D01*
X76617285Y-44056904D01*
X76647523Y-44026666D01*
X76677761Y-43966190D01*
X76677761Y-43845238D01*
X76647523Y-43784761D01*
X76617285Y-43754523D01*
X76556809Y-43724285D01*
X76405619Y-43724285D01*
X76345142Y-43754523D01*
X76314904Y-43784761D01*
X76284666Y-43845238D01*
X76284666Y-43966190D01*
X76314904Y-44026666D01*
X76345142Y-44056904D01*
X76405619Y-44087142D01*
X51849261Y-42629666D02*
X52302833Y-42629666D01*
X52393547Y-42659904D01*
X52454023Y-42720380D01*
X52484261Y-42811095D01*
X52484261Y-42871571D01*
X51849261Y-42024904D02*
X51849261Y-42327285D01*
X52151642Y-42357523D01*
X52121404Y-42327285D01*
X52091166Y-42266809D01*
X52091166Y-42115619D01*
X52121404Y-42055142D01*
X52151642Y-42024904D01*
X52212119Y-41994666D01*
X52363309Y-41994666D01*
X52423785Y-42024904D01*
X52454023Y-42055142D01*
X52484261Y-42115619D01*
X52484261Y-42266809D01*
X52454023Y-42327285D01*
X52423785Y-42357523D01*
X49944866Y-37990538D02*
X49944866Y-37536966D01*
X49975104Y-37446252D01*
X50035580Y-37385776D01*
X50126295Y-37355538D01*
X50186771Y-37355538D01*
X49551771Y-37718395D02*
X49612247Y-37748633D01*
X49642485Y-37778871D01*
X49672723Y-37839347D01*
X49672723Y-37869585D01*
X49642485Y-37930061D01*
X49612247Y-37960300D01*
X49551771Y-37990538D01*
X49430819Y-37990538D01*
X49370342Y-37960300D01*
X49340104Y-37930061D01*
X49309866Y-37869585D01*
X49309866Y-37839347D01*
X49340104Y-37778871D01*
X49370342Y-37748633D01*
X49430819Y-37718395D01*
X49551771Y-37718395D01*
X49612247Y-37688157D01*
X49642485Y-37657919D01*
X49672723Y-37597442D01*
X49672723Y-37476490D01*
X49642485Y-37416014D01*
X49612247Y-37385776D01*
X49551771Y-37355538D01*
X49430819Y-37355538D01*
X49370342Y-37385776D01*
X49340104Y-37416014D01*
X49309866Y-37476490D01*
X49309866Y-37597442D01*
X49340104Y-37657919D01*
X49370342Y-37688157D01*
X49430819Y-37718395D01*
X46607790Y-48267861D02*
X46607790Y-48781909D01*
X46638028Y-48842385D01*
X46668266Y-48872623D01*
X46728742Y-48902861D01*
X46849695Y-48902861D01*
X46910171Y-48872623D01*
X46940409Y-48842385D01*
X46970647Y-48781909D01*
X46970647Y-48267861D01*
X47545171Y-48479528D02*
X47545171Y-48902861D01*
X47393980Y-48237623D02*
X47242790Y-48691195D01*
X47635885Y-48691195D01*
D16*
X47136485Y-65166723D02*
X47136485Y-64743390D01*
X47801723Y-64561961D02*
X47801723Y-65166723D01*
X46531723Y-65166723D01*
X46531723Y-64561961D01*
X47741247Y-64078152D02*
X47801723Y-63896723D01*
X47801723Y-63594342D01*
X47741247Y-63473390D01*
X47680771Y-63412914D01*
X47559819Y-63352438D01*
X47438866Y-63352438D01*
X47317914Y-63412914D01*
X47257438Y-63473390D01*
X47196961Y-63594342D01*
X47136485Y-63836247D01*
X47076009Y-63957200D01*
X47015533Y-64017676D01*
X46894580Y-64078152D01*
X46773628Y-64078152D01*
X46652676Y-64017676D01*
X46592200Y-63957200D01*
X46531723Y-63836247D01*
X46531723Y-63533866D01*
X46592200Y-63352438D01*
X47801723Y-62808152D02*
X46531723Y-62808152D01*
X46531723Y-62324342D01*
X46592200Y-62203390D01*
X46652676Y-62142914D01*
X46773628Y-62082438D01*
X46955057Y-62082438D01*
X47076009Y-62142914D01*
X47136485Y-62203390D01*
X47196961Y-62324342D01*
X47196961Y-62808152D01*
X46531723Y-61659104D02*
X46531723Y-60872914D01*
X47015533Y-61296247D01*
X47015533Y-61114819D01*
X47076009Y-60993866D01*
X47136485Y-60933390D01*
X47257438Y-60872914D01*
X47559819Y-60872914D01*
X47680771Y-60933390D01*
X47741247Y-60993866D01*
X47801723Y-61114819D01*
X47801723Y-61477676D01*
X47741247Y-61598628D01*
X47680771Y-61659104D01*
X46652676Y-60389104D02*
X46592200Y-60328628D01*
X46531723Y-60207676D01*
X46531723Y-59905295D01*
X46592200Y-59784342D01*
X46652676Y-59723866D01*
X46773628Y-59663390D01*
X46894580Y-59663390D01*
X47076009Y-59723866D01*
X47801723Y-60449580D01*
X47801723Y-59663390D01*
X47317914Y-59119104D02*
X47317914Y-58151485D01*
X46531723Y-57667676D02*
X47801723Y-57365295D01*
X46894580Y-57123390D01*
X47801723Y-56881485D01*
X46531723Y-56579104D01*
X47801723Y-55369580D02*
X47196961Y-55792914D01*
X47801723Y-56095295D02*
X46531723Y-56095295D01*
X46531723Y-55611485D01*
X46592200Y-55490533D01*
X46652676Y-55430057D01*
X46773628Y-55369580D01*
X46955057Y-55369580D01*
X47076009Y-55430057D01*
X47136485Y-55490533D01*
X47196961Y-55611485D01*
X47196961Y-56095295D01*
X46531723Y-54583390D02*
X46531723Y-54341485D01*
X46592200Y-54220533D01*
X46713152Y-54099580D01*
X46955057Y-54039104D01*
X47378390Y-54039104D01*
X47620295Y-54099580D01*
X47741247Y-54220533D01*
X47801723Y-54341485D01*
X47801723Y-54583390D01*
X47741247Y-54704342D01*
X47620295Y-54825295D01*
X47378390Y-54885771D01*
X46955057Y-54885771D01*
X46713152Y-54825295D01*
X46592200Y-54704342D01*
X46531723Y-54583390D01*
X46531723Y-53252914D02*
X46531723Y-53011009D01*
X46592200Y-52890057D01*
X46713152Y-52769104D01*
X46955057Y-52708628D01*
X47378390Y-52708628D01*
X47620295Y-52769104D01*
X47741247Y-52890057D01*
X47801723Y-53011009D01*
X47801723Y-53252914D01*
X47741247Y-53373866D01*
X47620295Y-53494819D01*
X47378390Y-53555295D01*
X46955057Y-53555295D01*
X46713152Y-53494819D01*
X46592200Y-53373866D01*
X46531723Y-53252914D01*
X47801723Y-52164342D02*
X46531723Y-52164342D01*
X47438866Y-51741009D01*
X46531723Y-51317676D01*
X47801723Y-51317676D01*
D11*
X50769461Y-67949271D02*
X50769461Y-68312128D01*
X50769461Y-68130700D02*
X50134461Y-68130700D01*
X50225176Y-68191176D01*
X50285652Y-68251652D01*
X50315890Y-68312128D01*
M02*
