G04 #@! TF.GenerationSoftware,KiCad,Pcbnew,(5.1.4)-1*
G04 #@! TF.CreationDate,2020-12-02T10:45:32+01:00*
G04 #@! TF.ProjectId,ESP32 - LP IoT,45535033-3220-42d2-904c-5020496f542e,rev?*
G04 #@! TF.SameCoordinates,Original*
G04 #@! TF.FileFunction,Soldermask,Bot*
G04 #@! TF.FilePolarity,Negative*
%FSLAX46Y46*%
G04 Gerber Fmt 4.6, Leading zero omitted, Abs format (unit mm)*
G04 Created by KiCad (PCBNEW (5.1.4)-1) date 2020-12-02 10:45:32*
%MOMM*%
%LPD*%
G04 APERTURE LIST*
%ADD10R,1.797000X1.670000*%
%ADD11R,2.100000X2.100000*%
%ADD12O,2.100000X2.100000*%
%ADD13R,0.800000X1.600000*%
%ADD14R,1.670000X1.797000*%
%ADD15R,1.300000X1.200000*%
%ADD16R,1.460000X1.050000*%
%ADD17C,1.850000*%
%ADD18O,1.600000X2.300000*%
%ADD19C,2.500000*%
%ADD20C,1.009600*%
%ADD21R,0.650000X1.250000*%
%ADD22R,2.780000X2.050000*%
%ADD23C,0.100000*%
%ADD24C,2.100000*%
%ADD25O,2.100000X2.400000*%
%ADD26C,2.150000*%
%ADD27R,2.200000X2.200000*%
%ADD28C,2.200000*%
%ADD29O,1.670000X1.670000*%
%ADD30R,6.400000X6.400000*%
%ADD31R,3.400000X3.900000*%
%ADD32C,3.400000*%
G04 APERTURE END LIST*
D10*
X62115700Y-47561500D03*
X62115700Y-49847500D03*
D11*
X50292000Y-28956000D03*
D12*
X52832000Y-28956000D03*
X55372000Y-28956000D03*
X57912000Y-28956000D03*
D13*
X73139300Y-83981600D03*
X73774300Y-83981600D03*
X74409300Y-83981600D03*
X75044300Y-83981600D03*
X75679300Y-83981600D03*
X76314300Y-83981600D03*
X76949300Y-83981600D03*
X77584300Y-83981600D03*
X78219300Y-83981600D03*
X78854300Y-83981600D03*
X78854300Y-78781600D03*
X78219300Y-78781600D03*
X77584300Y-78781600D03*
X76949300Y-78781600D03*
X76314300Y-78781600D03*
X75679300Y-78781600D03*
X75044300Y-78781600D03*
X74409300Y-78781600D03*
X73774300Y-78781600D03*
X73139300Y-78781600D03*
D14*
X51130200Y-64414400D03*
X53416200Y-64414400D03*
D10*
X57658000Y-102997000D03*
X57658000Y-105283000D03*
X51562000Y-102997000D03*
X51562000Y-105283000D03*
X55956200Y-49860200D03*
X55956200Y-47574200D03*
D14*
X77368400Y-87223600D03*
X75082400Y-87223600D03*
X59855100Y-77025500D03*
X57569100Y-77025500D03*
X73304400Y-87223600D03*
X71018400Y-87223600D03*
X57569100Y-83121500D03*
X59855100Y-83121500D03*
D12*
X75692000Y-28956000D03*
X73152000Y-28956000D03*
X70612000Y-28956000D03*
D11*
X68072000Y-28956000D03*
D12*
X75692000Y-31496000D03*
X73152000Y-31496000D03*
X70612000Y-31496000D03*
X68072000Y-31496000D03*
X65532000Y-31496000D03*
D11*
X62992000Y-31496000D03*
X60452000Y-28956000D03*
D12*
X62992000Y-28956000D03*
X65532000Y-28956000D03*
D15*
X69434200Y-53721000D03*
X71434200Y-54671000D03*
X71434200Y-52771000D03*
X64576200Y-52771000D03*
X64576200Y-54671000D03*
X62576200Y-53721000D03*
X66005200Y-53721000D03*
X68005200Y-54671000D03*
X68005200Y-52771000D03*
X61147200Y-52771000D03*
X61147200Y-54671000D03*
X59147200Y-53721000D03*
X74863200Y-52771000D03*
X74863200Y-54671000D03*
X72863200Y-53721000D03*
X71517000Y-66278800D03*
X71517000Y-64378800D03*
X73517000Y-65328800D03*
X65427100Y-77459800D03*
X65427100Y-79359800D03*
X63427100Y-78409800D03*
X73551800Y-61991200D03*
X71551800Y-61041200D03*
X71551800Y-62941200D03*
X63443100Y-81709300D03*
X65443100Y-82659300D03*
X65443100Y-80759300D03*
D10*
X55626000Y-105283000D03*
X55626000Y-102997000D03*
X53594000Y-105283000D03*
X53594000Y-102997000D03*
X60083700Y-49847500D03*
X60083700Y-47561500D03*
X74307700Y-47561500D03*
X74307700Y-49847500D03*
X64147700Y-47561500D03*
X64147700Y-49847500D03*
X68211700Y-49847500D03*
X68211700Y-47561500D03*
X58013600Y-47574200D03*
X58013600Y-49860200D03*
D14*
X59855100Y-79057500D03*
X57569100Y-79057500D03*
X65582800Y-65963800D03*
X67868800Y-65963800D03*
X65582800Y-59867800D03*
X67868800Y-59867800D03*
X65557400Y-57785000D03*
X67843400Y-57785000D03*
D10*
X61772800Y-80975200D03*
X61772800Y-83261200D03*
D14*
X65582800Y-61899800D03*
X67868800Y-61899800D03*
X65582800Y-63931800D03*
X67868800Y-63931800D03*
X71018400Y-93319600D03*
X73304400Y-93319600D03*
D10*
X61760100Y-76898500D03*
X61760100Y-79184500D03*
D14*
X57569100Y-81089500D03*
X59855100Y-81089500D03*
X71018400Y-91287600D03*
X73304400Y-91287600D03*
X75082400Y-91287600D03*
X77368400Y-91287600D03*
X77368400Y-93319600D03*
X75082400Y-93319600D03*
D16*
X51681200Y-48564800D03*
X51681200Y-47614800D03*
X51681200Y-49514800D03*
X53881200Y-49514800D03*
X53881200Y-48564800D03*
X53881200Y-47614800D03*
D17*
X52491000Y-108138500D03*
X57491000Y-108138500D03*
D18*
X51491000Y-110838500D03*
X58491000Y-110838500D03*
D14*
X48895000Y-94234000D03*
X46609000Y-94234000D03*
X48895000Y-86106000D03*
X46609000Y-86106000D03*
X46609000Y-92202000D03*
X48895000Y-92202000D03*
X48895000Y-88138000D03*
X46609000Y-88138000D03*
X46609000Y-90144600D03*
X48895000Y-90144600D03*
D19*
X73914000Y-107124500D03*
X68834000Y-107124500D03*
X73914000Y-102044500D03*
X71374000Y-102044500D03*
X68834000Y-102044500D03*
D11*
X47040800Y-96723200D03*
D12*
X47040800Y-99263200D03*
D20*
X51244500Y-89852500D03*
X51244500Y-90614500D03*
X52768500Y-89852500D03*
X52768500Y-90614500D03*
X52006500Y-89852500D03*
X52006500Y-90614500D03*
D21*
X53006500Y-88783500D03*
X52506500Y-88783500D03*
X52006500Y-88783500D03*
X51506500Y-88783500D03*
X51006500Y-88783500D03*
X51006500Y-91683500D03*
X51506500Y-91683500D03*
X52006500Y-91683500D03*
X52506500Y-91683500D03*
X53006500Y-91683500D03*
D22*
X52006500Y-90233500D03*
D14*
X73025000Y-26543000D03*
X70739000Y-26543000D03*
X55753000Y-26543000D03*
X53467000Y-26543000D03*
X69532500Y-39624000D03*
X71818500Y-39624000D03*
X70104000Y-33782000D03*
X67818000Y-33782000D03*
X61595000Y-26543000D03*
X63881000Y-26543000D03*
D10*
X66179700Y-49847500D03*
X66179700Y-47561500D03*
X72275700Y-47561500D03*
X72275700Y-49847500D03*
X70243700Y-49847500D03*
X70243700Y-47561500D03*
X55245000Y-91249500D03*
X55245000Y-93535500D03*
X55245000Y-87185500D03*
X55245000Y-89471500D03*
D14*
X77368400Y-89255600D03*
X75082400Y-89255600D03*
X71018400Y-89255600D03*
X73304400Y-89255600D03*
D15*
X71517000Y-59624000D03*
X71517000Y-57724000D03*
X73517000Y-58674000D03*
D23*
G36*
X63001447Y-108211987D02*
G01*
X63031425Y-108216434D01*
X63060824Y-108223798D01*
X63089358Y-108234008D01*
X63116755Y-108246965D01*
X63142750Y-108262546D01*
X63167092Y-108280600D01*
X63189548Y-108300952D01*
X63209900Y-108323408D01*
X63227954Y-108347750D01*
X63243535Y-108373745D01*
X63256492Y-108401142D01*
X63266702Y-108429676D01*
X63274066Y-108459075D01*
X63278513Y-108489053D01*
X63280000Y-108519323D01*
X63280000Y-110301677D01*
X63278513Y-110331947D01*
X63274066Y-110361925D01*
X63266702Y-110391324D01*
X63256492Y-110419858D01*
X63243535Y-110447255D01*
X63227954Y-110473250D01*
X63209900Y-110497592D01*
X63189548Y-110520048D01*
X63167092Y-110540400D01*
X63142750Y-110558454D01*
X63116755Y-110574035D01*
X63089358Y-110586992D01*
X63060824Y-110597202D01*
X63031425Y-110604566D01*
X63001447Y-110609013D01*
X62971177Y-110610500D01*
X61488823Y-110610500D01*
X61458553Y-110609013D01*
X61428575Y-110604566D01*
X61399176Y-110597202D01*
X61370642Y-110586992D01*
X61343245Y-110574035D01*
X61317250Y-110558454D01*
X61292908Y-110540400D01*
X61270452Y-110520048D01*
X61250100Y-110497592D01*
X61232046Y-110473250D01*
X61216465Y-110447255D01*
X61203508Y-110419858D01*
X61193298Y-110391324D01*
X61185934Y-110361925D01*
X61181487Y-110331947D01*
X61180000Y-110301677D01*
X61180000Y-108519323D01*
X61181487Y-108489053D01*
X61185934Y-108459075D01*
X61193298Y-108429676D01*
X61203508Y-108401142D01*
X61216465Y-108373745D01*
X61232046Y-108347750D01*
X61250100Y-108323408D01*
X61270452Y-108300952D01*
X61292908Y-108280600D01*
X61317250Y-108262546D01*
X61343245Y-108246965D01*
X61370642Y-108234008D01*
X61399176Y-108223798D01*
X61428575Y-108216434D01*
X61458553Y-108211987D01*
X61488823Y-108210500D01*
X62971177Y-108210500D01*
X63001447Y-108211987D01*
X63001447Y-108211987D01*
G37*
D24*
X62230000Y-109410500D03*
D25*
X64730000Y-109410500D03*
D19*
X76300800Y-76016400D03*
D26*
X78790800Y-74756400D03*
X78790800Y-70256400D03*
D19*
X76300800Y-69006400D03*
D27*
X78486000Y-97561400D03*
D28*
X78486000Y-100101400D03*
X78486000Y-105498900D03*
D27*
X78486000Y-102958900D03*
D28*
X78486000Y-61785500D03*
D27*
X78486000Y-64325500D03*
X78486000Y-58991500D03*
D28*
X78486000Y-56451500D03*
D27*
X78486000Y-53657500D03*
D28*
X78486000Y-51117500D03*
X78486000Y-45847000D03*
D27*
X78486000Y-48387000D03*
D11*
X54152800Y-42189400D03*
D12*
X56692800Y-42189400D03*
X59232800Y-42189400D03*
X61772800Y-42189400D03*
X64312800Y-42189400D03*
X66852800Y-42189400D03*
X69392800Y-42189400D03*
X71932800Y-42189400D03*
D11*
X50292000Y-31496000D03*
D12*
X52832000Y-31496000D03*
X55372000Y-31496000D03*
X57912000Y-31496000D03*
X60452000Y-31496000D03*
D14*
X56642000Y-33909000D03*
X54356000Y-33909000D03*
D29*
X59165200Y-58242200D03*
X57260200Y-60147200D03*
X57260200Y-56972200D03*
X61070200Y-56972200D03*
X61070200Y-60147200D03*
D30*
X59165200Y-58542200D03*
D31*
X59944000Y-87477600D03*
X66944000Y-87477600D03*
D32*
X79500000Y-109500000D03*
X46500000Y-109500000D03*
X79500000Y-24500000D03*
X46500000Y-24500000D03*
M02*
